<svg width="164" height="48" viewBox="0 0 164 48" fill="none" xmlns="http://www.w3.org/2000/svg">
<path d="M13.9453 8.22L9.08531 22.5H5.78531L0.945312 8.22H4.00531L6.68531 16.72C6.73865 16.8667 6.81198 17.14 6.90531 17.54C7.01198 17.9267 7.11865 18.34 7.22531 18.78C7.33198 19.2067 7.40531 19.5667 7.44531 19.86C7.48531 19.5667 7.55198 19.2067 7.64531 18.78C7.75198 18.34 7.85865 17.9267 7.96531 17.54C8.07198 17.14 8.14531 16.8667 8.18531 16.72L10.8853 8.22H13.9453ZM23.6923 22.5L22.6523 19.1H17.4523L16.4123 22.5H13.1523L18.1923 8.16H21.8923L26.9523 22.5H23.6923ZM20.8923 13.24C20.8257 13.0133 20.739 12.7267 20.6323 12.38C20.5257 12.0333 20.419 11.68 20.3123 11.32C20.2057 10.96 20.119 10.6467 20.0523 10.38C19.9857 10.6467 19.8923 10.98 19.7723 11.38C19.6657 11.7667 19.559 12.14 19.4523 12.5C19.359 12.8467 19.2857 13.0933 19.2323 13.24L18.2123 16.56H21.9323L20.8923 13.24ZM32.8547 22.5H29.8347V10.74H25.9547V8.22H36.7347V10.74H32.8547V22.5Z" fill="#666666"/>
<path d="M55.972 15.22C55.972 16.82 55.6654 18.16 55.052 19.24C54.4387 20.32 53.5454 21.1333 52.372 21.68C51.212 22.2267 49.812 22.5 48.172 22.5H44.132V8.22H48.612C50.1054 8.22 51.3987 8.48667 52.492 9.02C53.5987 9.55333 54.452 10.34 55.052 11.38C55.6654 12.4067 55.972 13.6867 55.972 15.22ZM52.832 15.3C52.832 14.2467 52.6787 13.38 52.372 12.7C52.0654 12.02 51.6054 11.52 50.992 11.2C50.392 10.8667 49.652 10.7 48.772 10.7H47.152V20H48.452C49.932 20 51.032 19.6067 51.752 18.82C52.472 18.0333 52.832 16.86 52.832 15.3ZM67.2861 22.5L66.2461 19.1H61.0461L60.0061 22.5H56.7461L61.7861 8.16H65.4861L70.5461 22.5H67.2861ZM64.4861 13.24C64.4194 13.0133 64.3328 12.7267 64.2261 12.38C64.1194 12.0333 64.0128 11.68 63.9061 11.32C63.7994 10.96 63.7128 10.6467 63.6461 10.38C63.5794 10.6467 63.4861 10.98 63.3661 11.38C63.2594 11.7667 63.1528 12.14 63.0461 12.5C62.9528 12.8467 62.8794 13.0933 62.8261 13.24L61.8061 16.56H65.5261L64.4861 13.24ZM76.4484 22.5H73.4284V10.74H69.5484V8.22H80.3284V10.74H76.4484V22.5ZM89.8642 22.5L88.8242 19.1H83.6242L82.5842 22.5H79.3242L84.3642 8.16H88.0642L93.1242 22.5H89.8642ZM87.0642 13.24C86.9976 13.0133 86.9109 12.7267 86.8042 12.38C86.6976 12.0333 86.5909 11.68 86.4842 11.32C86.3776 10.96 86.2909 10.6467 86.2242 10.38C86.1576 10.6467 86.0642 10.98 85.9442 11.38C85.8376 11.7667 85.7309 12.14 85.6242 12.5C85.5309 12.8467 85.4576 13.0933 85.4042 13.24L84.3842 16.56H88.1042L87.0642 13.24ZM108.348 22.5H100.128V8.22H108.348V10.7H103.148V13.84H107.988V16.32H103.148V20H108.348V22.5ZM123.98 22.5H120.14L113.92 11.7H113.84C113.853 12.0333 113.866 12.3733 113.88 12.72C113.893 13.0533 113.906 13.3933 113.92 13.74C113.946 14.0733 113.966 14.4133 113.98 14.76C113.993 15.0933 114.006 15.4333 114.02 15.78V22.5H111.32V8.22H115.14L121.34 18.92H121.4C121.386 18.5867 121.373 18.26 121.36 17.94C121.346 17.6067 121.333 17.28 121.32 16.96C121.32 16.6267 121.313 16.3 121.3 15.98C121.286 15.6467 121.273 15.3133 121.26 14.98V8.22H123.98V22.5ZM133.089 22.5H130.069V10.74H126.189V8.22H136.969V10.74H133.089V22.5ZM143.331 8.22C144.624 8.22 145.691 8.38 146.531 8.7C147.371 9.00667 147.998 9.48 148.411 10.12C148.824 10.7467 149.031 11.54 149.031 12.5C149.031 13.1533 148.904 13.7267 148.651 14.22C148.411 14.7 148.084 15.1133 147.671 15.46C147.271 15.7933 146.838 16.0667 146.371 16.28L150.571 22.5H147.211L143.811 17.02H142.191V22.5H139.171V8.22H143.331ZM143.111 10.7H142.191V14.56H143.171C143.838 14.56 144.378 14.4867 144.791 14.34C145.204 14.1933 145.504 13.9733 145.691 13.68C145.878 13.3733 145.971 13.0067 145.971 12.58C145.971 12.1267 145.864 11.7667 145.651 11.5C145.451 11.22 145.138 11.02 144.711 10.9C144.298 10.7667 143.764 10.7 143.111 10.7ZM156.814 14.1L159.794 8.22H163.054L158.314 16.94V22.5H155.314V17.04L150.574 8.22H153.854L156.814 14.1Z" fill="#7DAEE8"/>
<path d="M3.58004 37.64C3.02937 37.64 2.51604 37.5887 2.04004 37.486C1.57337 37.374 1.17671 37.2433 0.850039 37.094L1.21404 36.086C1.41004 36.1607 1.63404 36.24 1.88604 36.324C2.13804 36.408 2.40871 36.478 2.69804 36.534C2.99671 36.5807 3.30004 36.604 3.60804 36.604C4.10271 36.604 4.51337 36.5107 4.84004 36.324C5.16671 36.1373 5.33004 35.8667 5.33004 35.512C5.33004 35.2973 5.26937 35.1153 5.14804 34.966C5.03604 34.8073 4.85871 34.6627 4.61604 34.532C4.37337 34.4013 4.06071 34.2753 3.67804 34.154C3.09004 33.9673 2.59071 33.7713 2.18004 33.566C1.77871 33.3513 1.47071 33.0993 1.25604 32.81C1.05071 32.5113 0.948039 32.1427 0.948039 31.704C0.948039 31.312 1.05071 30.9667 1.25604 30.668C1.47071 30.36 1.79737 30.122 2.23604 29.954C2.68404 29.7767 3.25337 29.688 3.94404 29.688C4.39204 29.688 4.81204 29.73 5.20404 29.814C5.60537 29.8887 5.91804 29.996 6.14204 30.136V31.186C5.98337 31.1113 5.78271 31.0367 5.54004 30.962C5.30671 30.8873 5.05004 30.8267 4.77004 30.78C4.49004 30.7333 4.20071 30.71 3.90204 30.71C3.27671 30.71 2.83337 30.808 2.57204 31.004C2.32004 31.1907 2.19404 31.4053 2.19404 31.648C2.19404 31.8533 2.25004 32.026 2.36204 32.166C2.48337 32.306 2.68404 32.4413 2.96404 32.572C3.25337 32.7027 3.64071 32.852 4.12604 33.02C4.57404 33.1693 4.98471 33.342 5.35804 33.538C5.73137 33.734 6.02537 33.9813 6.24004 34.28C6.46404 34.5693 6.57604 34.9427 6.57604 35.4C6.57604 35.792 6.47804 36.1607 6.28204 36.506C6.09537 36.842 5.78271 37.1173 5.34404 37.332C4.90537 37.5373 4.31737 37.64 3.58004 37.64ZM9.26798 32.684C8.88531 32.684 8.57264 32.628 8.32998 32.516C8.09664 32.3947 7.92864 32.2453 7.82598 32.068C7.72331 31.8813 7.67198 31.6853 7.67198 31.48C7.67198 31.34 7.69064 31.1953 7.72798 31.046C7.77464 30.8967 7.83064 30.7707 7.89598 30.668L8.94598 30.836C8.92731 30.8827 8.90398 30.948 8.87598 31.032C8.85731 31.116 8.84798 31.2 8.84798 31.284C8.84798 31.4053 8.88064 31.508 8.94598 31.592C9.01131 31.6667 9.13264 31.704 9.30998 31.704H11.312V32.684H9.26798ZM9.26798 36.604C8.88531 36.604 8.57264 36.548 8.32998 36.436C8.09664 36.3147 7.92864 36.1653 7.82598 35.988C7.72331 35.8013 7.67198 35.6053 7.67198 35.4C7.67198 35.26 7.69064 35.1153 7.72798 34.966C7.77464 34.8167 7.83064 34.6907 7.89598 34.588L8.94598 34.756C8.92731 34.8027 8.90398 34.868 8.87598 34.952C8.85731 35.036 8.84798 35.12 8.84798 35.204C8.84798 35.3253 8.88064 35.428 8.94598 35.512C9.01131 35.5867 9.13264 35.624 9.30998 35.624H11.312V36.604H9.26798ZM16.0704 37.64C14.9691 37.64 14.1804 37.388 13.7044 36.884C13.2284 36.38 12.9904 35.6613 12.9904 34.728V29.828H14.2364V34.742C14.2364 35.3673 14.3858 35.834 14.6844 36.142C14.9831 36.45 15.4451 36.604 16.0704 36.604C16.7051 36.604 17.1718 36.45 17.4704 36.142C17.7784 35.834 17.9324 35.3673 17.9324 34.742V29.828H19.1784V34.728C19.1784 35.6613 18.9358 36.38 18.4504 36.884C17.9744 37.388 17.1811 37.64 16.0704 37.64ZM24.5197 37.64C23.4183 37.64 22.6297 37.388 22.1537 36.884C21.6777 36.38 21.4397 35.6613 21.4397 34.728V29.828H22.6857V34.742C22.6857 35.3673 22.835 35.834 23.1337 36.142C23.4323 36.45 23.8943 36.604 24.5197 36.604C25.1543 36.604 25.621 36.45 25.9197 36.142C26.2277 35.834 26.3817 35.3673 26.3817 34.742V29.828H27.6277V34.728C27.6277 35.6613 27.385 36.38 26.8997 36.884C26.4237 37.388 25.6303 37.64 24.5197 37.64ZM30.8129 37.5V34.084H29.7489V33.104H32.0029V36.492H32.1849C32.6049 36.492 32.9549 36.3987 33.2349 36.212C33.5149 36.0253 33.7249 35.722 33.8649 35.302C34.0049 34.882 34.0749 34.3267 34.0749 33.636C34.0749 32.9453 33.9955 32.3853 33.8369 31.956C33.6875 31.5267 33.4402 31.214 33.0949 31.018C32.7589 30.822 32.3015 30.724 31.7229 30.724C31.2842 30.724 30.8595 30.7847 30.4489 30.906C30.0475 31.018 29.6602 31.1953 29.2869 31.438V30.276C29.5669 30.108 29.9355 29.968 30.3929 29.856C30.8502 29.744 31.3449 29.688 31.8769 29.688C32.7262 29.688 33.4029 29.8467 33.9069 30.164C34.4202 30.472 34.7889 30.92 35.0129 31.508C35.2369 32.096 35.3489 32.81 35.3489 33.65C35.3489 34.462 35.2369 35.1573 35.0129 35.736C34.7982 36.3053 34.4435 36.744 33.9489 37.052C33.4635 37.3507 32.8102 37.5 31.9889 37.5H30.8129ZM33.3051 28.61C32.9131 28.61 32.6004 28.554 32.3671 28.442C32.1338 28.33 31.9658 28.1853 31.8631 28.008C31.7511 27.8307 31.6951 27.644 31.6951 27.448C31.6951 27.308 31.7184 27.1587 31.7651 27C31.8024 26.832 31.8538 26.6967 31.9191 26.594L32.9691 26.776C32.9504 26.8133 32.9318 26.8787 32.9131 26.972C32.8944 27.056 32.8851 27.1353 32.8851 27.21C32.8851 27.3313 32.9224 27.4387 32.9971 27.532C33.0718 27.616 33.1978 27.658 33.3751 27.658H36.9171V28.61H33.3051ZM39.9581 37.64C39.2114 37.64 38.6234 37.4673 38.1941 37.122C37.7741 36.7673 37.4754 36.2913 37.2981 35.694C37.1301 35.0967 37.0461 34.4387 37.0461 33.72C37.0461 32.9267 37.1254 32.2733 37.2841 31.76C37.4521 31.2373 37.6854 30.8267 37.9841 30.528C38.2921 30.22 38.6561 30.0053 39.0761 29.884C39.5054 29.7533 39.9767 29.688 40.4901 29.688C41.2367 29.688 41.8434 29.8 42.3101 30.024C42.7861 30.2387 43.1361 30.5467 43.3601 30.948C43.5841 31.3493 43.6961 31.83 43.6961 32.39V37.5H42.4641V32.502C42.4641 31.9233 42.3194 31.4847 42.0301 31.186C41.7407 30.878 41.2414 30.724 40.5321 30.724C40.1027 30.724 39.7154 30.8033 39.3701 30.962C39.0341 31.1207 38.7681 31.4147 38.5721 31.844C38.3854 32.2733 38.2921 32.9033 38.2921 33.734C38.2921 34.2753 38.3434 34.7653 38.4461 35.204C38.5581 35.6333 38.7494 35.974 39.0201 36.226C39.2907 36.478 39.6687 36.604 40.1541 36.604C40.2941 36.604 40.4247 36.5947 40.5461 36.576C40.6674 36.5573 40.7841 36.5293 40.8961 36.492L41.0221 37.458C40.8727 37.5233 40.7001 37.57 40.5041 37.598C40.3174 37.626 40.1354 37.64 39.9581 37.64ZM45.897 37.5V34.84C45.897 34.252 46.0277 33.8273 46.289 33.566C46.5503 33.2953 46.8817 33.1087 47.283 33.006L47.297 32.964L45.757 32.376V31.914C45.757 31.5313 45.883 31.172 46.135 30.836C46.387 30.4907 46.7463 30.2153 47.213 30.01C47.689 29.7953 48.2537 29.688 48.907 29.688C49.4763 29.688 50.0037 29.7813 50.489 29.968C50.9743 30.1453 51.3617 30.43 51.651 30.822C51.9497 31.2047 52.099 31.7087 52.099 32.334V37.5H50.853V32.46C50.853 31.8347 50.6617 31.3913 50.279 31.13C49.9057 30.8593 49.4437 30.724 48.893 30.724C48.3237 30.724 47.871 30.8453 47.535 31.088C47.199 31.3213 47.031 31.62 47.031 31.984L48.543 32.74L48.431 33.412C48.0857 33.412 47.7823 33.5287 47.521 33.762C47.269 33.986 47.143 34.3453 47.143 34.84V37.5H45.897ZM56.5315 37.5V32.054C56.5315 31.5967 56.4242 31.2607 56.2095 31.046C56.0042 30.8313 55.6542 30.724 55.1595 30.724C54.8235 30.724 54.5062 30.7707 54.2075 30.864C53.9182 30.948 53.6382 31.0693 53.3675 31.228V30.108C53.5542 30.0147 53.8202 29.9213 54.1655 29.828C54.5109 29.7347 54.9215 29.688 55.3975 29.688C55.8829 29.688 56.3029 29.758 56.6575 29.898C57.0122 30.038 57.2875 30.2713 57.4835 30.598C57.6795 30.9153 57.7775 31.34 57.7775 31.872V37.5H56.5315ZM62.205 37.64C61.6544 37.64 61.141 37.5887 60.665 37.486C60.1984 37.374 59.8017 37.2433 59.475 37.094L59.839 36.086C60.035 36.1607 60.259 36.24 60.511 36.324C60.763 36.408 61.0337 36.478 61.323 36.534C61.6217 36.5807 61.925 36.604 62.233 36.604C62.7277 36.604 63.1384 36.5107 63.465 36.324C63.7917 36.1373 63.955 35.8667 63.955 35.512C63.955 35.2973 63.8944 35.1153 63.773 34.966C63.661 34.8073 63.4837 34.6627 63.241 34.532C62.9984 34.4013 62.6857 34.2753 62.303 34.154C61.715 33.9673 61.2157 33.7713 60.805 33.566C60.4037 33.3513 60.0957 33.0993 59.881 32.81C59.6757 32.5113 59.573 32.1427 59.573 31.704C59.573 31.312 59.6757 30.9667 59.881 30.668C60.0957 30.36 60.4224 30.122 60.861 29.954C61.309 29.7767 61.8784 29.688 62.569 29.688C63.017 29.688 63.437 29.73 63.829 29.814C64.2304 29.8887 64.543 29.996 64.767 30.136V31.186C64.6084 31.1113 64.4077 31.0367 64.165 30.962C63.9317 30.8873 63.675 30.8267 63.395 30.78C63.115 30.7333 62.8257 30.71 62.527 30.71C61.9017 30.71 61.4584 30.808 61.197 31.004C60.945 31.1907 60.819 31.4053 60.819 31.648C60.819 31.8533 60.875 32.026 60.987 32.166C61.1084 32.306 61.309 32.4413 61.589 32.572C61.8784 32.7027 62.2657 32.852 62.751 33.02C63.199 33.1693 63.6097 33.342 63.983 33.538C64.3564 33.734 64.6504 33.9813 64.865 34.28C65.089 34.5693 65.201 34.9427 65.201 35.4C65.201 35.792 65.103 36.1607 64.907 36.506C64.7204 36.842 64.4077 37.1173 63.969 37.332C63.5304 37.5373 62.9424 37.64 62.205 37.64ZM68.145 37.5L65.751 29.828H67.011L69.083 36.422H69.251C69.475 36.422 69.6943 36.3707 69.909 36.268C70.1236 36.156 70.3056 36.016 70.455 35.848C70.735 35.54 70.9403 35.1527 71.071 34.686C71.2016 34.21 71.267 33.7433 71.267 33.286C71.267 32.5113 71.0896 31.9047 70.735 31.466C70.3896 31.018 69.909 30.794 69.293 30.794C69.1716 30.794 69.0503 30.8033 68.929 30.822C68.817 30.8407 68.7236 30.864 68.649 30.892L68.341 29.898C68.537 29.842 68.719 29.8047 68.887 29.786C69.0643 29.7673 69.223 29.758 69.363 29.758C69.8296 29.758 70.245 29.828 70.609 29.968C70.9823 30.0987 71.2996 30.2947 71.561 30.556C71.8876 30.8733 72.1256 31.27 72.275 31.746C72.4336 32.222 72.513 32.7493 72.513 33.328C72.513 34.056 72.401 34.7047 72.177 35.274C71.953 35.834 71.673 36.282 71.337 36.618C71.0663 36.8887 70.735 37.1033 70.343 37.262C69.951 37.4207 69.4516 37.5 68.845 37.5H68.145ZM76.5745 37.5V32.054C76.5745 31.5967 76.4672 31.2607 76.2525 31.046C76.0472 30.8313 75.6972 30.724 75.2025 30.724C74.8665 30.724 74.5492 30.7707 74.2505 30.864C73.9612 30.948 73.6812 31.0693 73.4105 31.228V30.108C73.5972 30.0147 73.8632 29.9213 74.2085 29.828C74.5538 29.7347 74.9645 29.688 75.4405 29.688C75.9258 29.688 76.3458 29.758 76.7005 29.898C77.0552 30.038 77.3305 30.2713 77.5265 30.598C77.7225 30.9153 77.8205 31.34 77.8205 31.872V37.5H76.5745ZM82.738 37.64C82.1873 37.64 81.7113 37.5467 81.31 37.36C80.918 37.164 80.6147 36.87 80.4 36.478C80.1947 36.086 80.092 35.5773 80.092 34.952V29.828H81.338V34.882C81.338 35.442 81.478 35.8667 81.758 36.156C82.0473 36.4453 82.4627 36.59 83.004 36.59C83.6573 36.59 84.1613 36.38 84.516 35.96C84.88 35.54 85.062 34.9753 85.062 34.266V29.828H86.308V37.5H85.272L85.216 36.366H85.146C84.978 36.7393 84.684 37.0473 84.264 37.29C83.8533 37.5233 83.3447 37.64 82.738 37.64ZM88.7759 37.64C88.6079 37.64 88.4446 37.6213 88.2859 37.584C88.1273 37.556 87.9686 37.5047 87.8099 37.43L87.9499 36.562C88.0153 36.5807 88.0899 36.5993 88.1739 36.618C88.2579 36.6367 88.3373 36.646 88.4119 36.646C88.5613 36.646 88.6686 36.604 88.7339 36.52C88.7993 36.4267 88.8319 36.282 88.8319 36.086V34.784C88.8319 34.2053 88.9393 33.79 89.1539 33.538C89.3686 33.2767 89.6766 33.0993 90.0779 33.006L90.0919 32.964L88.4819 32.376V31.914C88.4819 31.5313 88.6033 31.172 88.8459 30.836C89.0979 30.4907 89.4619 30.2153 89.9379 30.01C90.4139 29.7953 90.9833 29.688 91.6459 29.688C92.2246 29.688 92.7566 29.7813 93.2419 29.968C93.7273 30.1453 94.1146 30.43 94.4039 30.822C94.7026 31.2047 94.8519 31.7087 94.8519 32.334V37.5H93.6059V32.46C93.6059 31.8347 93.4146 31.3913 93.0319 31.13C92.6493 30.8593 92.1826 30.724 91.6319 30.724C91.0533 30.724 90.5959 30.8453 90.2599 31.088C89.9239 31.3213 89.7559 31.62 89.7559 31.984L91.3519 32.74L91.2399 33.412C90.8946 33.412 90.6146 33.524 90.3999 33.748C90.1853 33.972 90.0779 34.3313 90.0779 34.826V36.184C90.0779 36.7533 89.9519 37.1407 89.6999 37.346C89.4479 37.542 89.1399 37.64 88.7759 37.64ZM99.2835 37.5V32.054C99.2835 31.5967 99.1762 31.2607 98.9615 31.046C98.7562 30.8313 98.4062 30.724 97.9115 30.724C97.5755 30.724 97.2582 30.7707 96.9595 30.864C96.6702 30.948 96.3902 31.0693 96.1195 31.228V30.108C96.3062 30.0147 96.5722 29.9213 96.9175 29.828C97.2628 29.7347 97.6735 29.688 98.1495 29.688C98.6348 29.688 99.0548 29.758 99.4095 29.898C99.7642 30.038 100.039 30.2713 100.235 30.598C100.431 30.9153 100.529 31.34 100.529 31.872V37.5H99.2835ZM105.993 37.64C105.228 37.64 104.607 37.5233 104.131 37.29C103.664 37.0567 103.324 36.7207 103.109 36.282C102.904 35.834 102.801 35.2927 102.801 34.658V29.828H104.047V34.672C104.047 35.3253 104.201 35.8107 104.509 36.128C104.817 36.4453 105.312 36.604 105.993 36.604C106.674 36.604 107.169 36.4453 107.477 36.128C107.785 35.8107 107.939 35.3253 107.939 34.672V29.828H109.185V34.658C109.185 35.2927 109.078 35.834 108.863 36.282C108.658 36.7207 108.322 37.0567 107.855 37.29C107.388 37.5233 106.768 37.64 105.993 37.64ZM106.847 34.336C106.455 34.336 106.142 34.28 105.909 34.168C105.685 34.0467 105.526 33.8927 105.433 33.706C105.34 33.5193 105.293 33.3233 105.293 33.118C105.293 32.978 105.312 32.8333 105.349 32.684C105.386 32.5347 105.438 32.4087 105.503 32.306L106.511 32.488C106.492 32.5253 106.474 32.586 106.455 32.67C106.436 32.7447 106.427 32.8193 106.427 32.894C106.427 33.0153 106.46 33.1273 106.525 33.23C106.6 33.3327 106.726 33.384 106.903 33.384H110.081V34.336H106.847ZM103.235 28.61V28.064L104.257 27.616H109.185V28.61H103.235ZM108.023 28.064V26.482H109.199V28.064H108.023ZM115.452 37.64C114.855 37.64 114.337 37.5233 113.898 37.29C113.469 37.0473 113.175 36.7113 113.016 36.282H112.96L112.89 37.5H111.868V29.828H113.114V34.266C113.114 34.7327 113.193 35.1433 113.352 35.498C113.52 35.8433 113.758 36.114 114.066 36.31C114.383 36.4967 114.761 36.59 115.2 36.59C115.751 36.59 116.161 36.4453 116.432 36.156C116.703 35.8667 116.838 35.442 116.838 34.882V29.828H118.084V34.966C118.084 35.582 117.977 36.086 117.762 36.478C117.557 36.87 117.258 37.164 116.866 37.36C116.474 37.5467 116.003 37.64 115.452 37.64ZM115.951 41.21C115.353 41.21 114.901 41.0887 114.593 40.846C114.275 40.6127 114.117 40.2767 114.117 39.838V39.6C114.117 39.4413 114.079 39.3433 114.005 39.306C113.921 39.278 113.809 39.2827 113.669 39.32L113.585 38.48C113.715 38.4427 113.846 38.4193 113.977 38.41C114.098 38.4007 114.191 38.396 114.257 38.396C114.593 38.396 114.835 38.4707 114.985 38.62C115.125 38.7693 115.195 38.9793 115.195 39.25V39.726C115.195 39.9033 115.251 40.0527 115.363 40.174C115.475 40.2953 115.666 40.356 115.937 40.356C116.217 40.356 116.413 40.2953 116.525 40.174C116.627 40.0527 116.679 39.9033 116.679 39.726V38.438H117.771V39.796C117.771 40.2533 117.617 40.6033 117.309 40.846C117.001 41.0887 116.548 41.21 115.951 41.21ZM124.85 37.5V32.39C124.85 31.7833 124.71 31.354 124.43 31.102C124.159 30.8407 123.702 30.71 123.058 30.71C122.591 30.71 122.143 30.7753 121.714 30.906C121.294 31.0273 120.892 31.2 120.51 31.424V30.262C120.78 30.122 121.144 29.9913 121.602 29.87C122.068 29.7487 122.591 29.688 123.17 29.688C123.664 29.688 124.094 29.744 124.458 29.856C124.822 29.9587 125.12 30.1173 125.354 30.332C125.596 30.5467 125.778 30.822 125.9 31.158C126.021 31.4847 126.082 31.872 126.082 32.32V37.5H124.85ZM122.442 37.64C121.62 37.64 120.99 37.4533 120.552 37.08C120.122 36.6973 119.908 36.1513 119.908 35.442C119.908 34.6673 120.188 34.07 120.748 33.65C121.317 33.23 122.236 32.9827 123.506 32.908L125.102 32.81V33.846L123.674 33.944C122.722 34.0093 122.064 34.1587 121.7 34.392C121.345 34.6253 121.168 34.966 121.168 35.414C121.168 35.834 121.298 36.142 121.56 36.338C121.83 36.534 122.204 36.632 122.68 36.632C122.838 36.632 122.983 36.6227 123.114 36.604C123.244 36.576 123.37 36.5433 123.492 36.506L123.688 37.444C123.51 37.5093 123.314 37.556 123.1 37.584C122.894 37.6213 122.675 37.64 122.442 37.64ZM128.354 37.5V32.6C128.354 31.6573 128.606 30.9387 129.11 30.444C129.614 29.94 130.416 29.688 131.518 29.688C132.628 29.688 133.431 29.94 133.926 30.444C134.43 30.9387 134.682 31.6573 134.682 32.6V37.5H133.436V32.6C133.436 31.9747 133.272 31.508 132.946 31.2C132.619 30.8827 132.138 30.724 131.504 30.724C130.878 30.724 130.402 30.8827 130.076 31.2C129.758 31.508 129.6 31.9747 129.6 32.6V34.154L129.642 34.168C129.847 33.804 130.099 33.566 130.398 33.454C130.696 33.3327 131.116 33.272 131.658 33.272H132.12V34.294H131.658C131.088 34.294 130.654 34.3733 130.356 34.532C130.066 34.6907 129.866 34.9007 129.754 35.162C129.651 35.414 129.6 35.6987 129.6 36.016V37.5H128.354ZM133.286 28.61V25.656H134.518V28.61H133.286ZM139.123 37.5V32.054C139.123 31.5967 139.016 31.2607 138.801 31.046C138.596 30.8313 138.246 30.724 137.751 30.724C137.415 30.724 137.098 30.7707 136.799 30.864C136.51 30.948 136.23 31.0693 135.959 31.228V30.108C136.146 30.0147 136.412 29.9213 136.757 29.828C137.103 29.7347 137.513 29.688 137.989 29.688C138.475 29.688 138.895 29.758 139.249 29.898C139.604 30.038 139.879 30.2713 140.075 30.598C140.271 30.9153 140.369 31.34 140.369 31.872V37.5H139.123ZM144.377 37.64C144.125 37.64 143.882 37.598 143.649 37.514C143.416 37.43 143.224 37.2807 143.075 37.066C142.926 36.8513 142.851 36.5527 142.851 36.17V29.828H144.097V36.016C144.097 36.2307 144.144 36.3847 144.237 36.478C144.33 36.5713 144.48 36.618 144.685 36.618C144.769 36.618 144.858 36.6087 144.951 36.59C145.044 36.5713 145.133 36.548 145.217 36.52L145.385 37.43C145.208 37.514 145.035 37.57 144.867 37.598C144.699 37.626 144.536 37.64 144.377 37.64ZM147.336 37.5L145.95 29.828H147.224L147.77 33.16C147.817 33.4307 147.863 33.7807 147.91 34.21C147.957 34.6393 148.013 35.148 148.078 35.736H148.12C148.204 35.3347 148.283 34.9753 148.358 34.658C148.442 34.3407 148.517 34.056 148.582 33.804C148.657 33.5427 148.722 33.314 148.778 33.118L149.716 29.828H150.738L151.69 33.118C151.746 33.314 151.807 33.5427 151.872 33.804C151.947 34.056 152.021 34.3407 152.096 34.658C152.18 34.9753 152.264 35.3347 152.348 35.736H152.404C152.46 35.148 152.511 34.6393 152.558 34.21C152.605 33.7807 152.651 33.4307 152.698 33.16L153.258 29.828H154.532L153.146 37.5H151.928L150.64 33.328C150.575 33.0947 150.509 32.852 150.444 32.6C150.388 32.348 150.332 32.0167 150.276 31.606H150.22C150.183 31.8767 150.141 32.1147 150.094 32.32C150.047 32.5253 150.001 32.7073 149.954 32.866C149.907 33.0247 149.861 33.1787 149.814 33.328L148.554 37.5H147.336ZM147.996 28.61V28.064L149.018 27.616H153.946V28.61H147.996ZM152.77 26.656V24.374H153.96V26.656H152.77ZM159.94 37.64C159.343 37.64 158.825 37.5233 158.386 37.29C157.957 37.0473 157.663 36.7113 157.504 36.282H157.448L157.378 37.5H156.356V29.828H157.602V34.266C157.602 34.7327 157.682 35.1433 157.84 35.498C158.008 35.8433 158.246 36.114 158.554 36.31C158.872 36.4967 159.25 36.59 159.688 36.59C160.239 36.59 160.65 36.4453 160.92 36.156C161.191 35.8667 161.326 35.442 161.326 34.882V29.828H162.572V34.966C162.572 35.582 162.465 36.086 162.25 36.478C162.045 36.87 161.746 37.164 161.354 37.36C160.962 37.5467 160.491 37.64 159.94 37.64Z" fill="#666666"/>
</svg>
