<svg width="141" height="15" viewBox="0 0 141 15" fill="none" xmlns="http://www.w3.org/2000/svg">
<path d="M13.7754 0.219999L8.91539 14.5H5.61539L0.775391 0.219999H3.83539L6.51539 8.72C6.56872 8.86667 6.64206 9.14 6.73539 9.54C6.84206 9.92667 6.94872 10.34 7.05539 10.78C7.16206 11.2067 7.23539 11.5667 7.27539 11.86C7.31539 11.5667 7.38206 11.2067 7.47539 10.78C7.58206 10.34 7.68872 9.92667 7.79539 9.54C7.90206 9.14 7.97539 8.86667 8.01539 8.72L10.7154 0.219999H13.7754ZM23.5224 14.5L22.4824 11.1H17.2824L16.2424 14.5H12.9824L18.0224 0.16H21.7224L26.7824 14.5H23.5224ZM20.7224 5.24C20.6558 5.01333 20.5691 4.72667 20.4624 4.38C20.3558 4.03333 20.2491 3.68 20.1424 3.32C20.0358 2.96 19.9491 2.64667 19.8824 2.38C19.8158 2.64667 19.7224 2.98 19.6024 3.38C19.4958 3.76667 19.3891 4.14 19.2824 4.5C19.1891 4.84667 19.1158 5.09333 19.0624 5.24L18.0424 8.56H21.7624L20.7224 5.24ZM32.6848 14.5H29.6648V2.74H25.7848V0.219999H36.5648V2.74H32.6848V14.5Z" fill="#666666"/>
<path d="M49.3021 14.5H42.8021V12.78L44.5421 11.98V2.74L42.8021 1.94V0.219999H49.3021V1.94L47.5621 2.74V11.98L49.3021 12.78V14.5ZM64.3955 14.5H60.5555L54.3355 3.7H54.2555C54.2689 4.03333 54.2822 4.37333 54.2955 4.72C54.3089 5.05333 54.3222 5.39333 54.3355 5.74C54.3622 6.07333 54.3822 6.41333 54.3955 6.76C54.4089 7.09333 54.4222 7.43333 54.4355 7.78V14.5H51.7355V0.219999H55.5555L61.7555 10.92H61.8155C61.8022 10.5867 61.7889 10.26 61.7755 9.94C61.7622 9.60667 61.7489 9.28 61.7355 8.96C61.7355 8.62667 61.7289 8.3 61.7155 7.98C61.7022 7.64667 61.6889 7.31333 61.6755 6.98V0.219999H64.3955V14.5ZM73.5051 14.5H70.4851V2.74H66.6051V0.219999H77.3851V2.74H73.5051V14.5ZM87.8071 14.5H79.5871V0.219999H87.8071V2.7H82.6071V5.84H87.4471V8.32H82.6071V12H87.8071V14.5ZM94.9385 0.219999C96.2318 0.219999 97.2985 0.379999 98.1385 0.699999C98.9785 1.00667 99.6052 1.48 100.019 2.12C100.432 2.74667 100.639 3.54 100.639 4.5C100.639 5.15333 100.512 5.72667 100.259 6.22C100.019 6.7 99.6918 7.11333 99.2785 7.46C98.8785 7.79333 98.4452 8.06667 97.9785 8.28L102.179 14.5H98.8185L95.4185 9.02H93.7985V14.5H90.7785V0.219999H94.9385ZM94.7185 2.7H93.7985V6.56H94.7785C95.4452 6.56 95.9852 6.48667 96.3985 6.34C96.8118 6.19333 97.1118 5.97333 97.2985 5.68C97.4852 5.37333 97.5785 5.00667 97.5785 4.58C97.5785 4.12667 97.4718 3.76667 97.2585 3.5C97.0585 3.22 96.7452 3.02 96.3185 2.9C95.9052 2.76667 95.3718 2.7 94.7185 2.7ZM116.642 14.5H112.802L106.582 3.7H106.502C106.515 4.03333 106.528 4.37333 106.542 4.72C106.555 5.05333 106.568 5.39333 106.582 5.74C106.608 6.07333 106.628 6.41333 106.642 6.76C106.655 7.09333 106.668 7.43333 106.682 7.78V14.5H103.982V0.219999H107.802L114.002 10.92H114.062C114.048 10.5867 114.035 10.26 114.022 9.94C114.008 9.60667 113.995 9.28 113.982 8.96C113.982 8.62667 113.975 8.3 113.962 7.98C113.948 7.64667 113.935 7.31333 113.922 6.98V0.219999H116.642V14.5ZM128.471 14.5H120.251V0.219999H128.471V2.7H123.271V5.84H128.111V8.32H123.271V12H128.471V14.5ZM136.943 14.5H133.923V2.74H130.043V0.219999H140.823V2.74H136.943V14.5Z" fill="#7DAEE8"/>
</svg>
