<?xml version="1.0" standalone="no"?>
<!DOCTYPE svg PUBLIC "-//W3C//DTD SVG 1.1//EN" "http://www.w3.org/Graphics/SVG/1.1/DTD/svg11.dtd" >
<svg xmlns="http://www.w3.org/2000/svg" xmlns:xlink="http://www.w3.org/1999/xlink" version="1.1">
<metadata>
Created by FontForge 20170731 at Fri Sep  7 16:57:26 2018
 By Aleksey,,,
Copyright 2018 The Sarabun Project Authors (https://github.com/cadsondemak/Sarabun)
</metadata>
<defs>
<font id="Sarabun-SemiBold" horiz-adv-x="0" >
  <font-face 
    font-family="Sarabun SemiBold"
    font-weight="600"
    font-stretch="normal"
    units-per-em="1000"
    panose-1="0 0 7 0 0 0 0 0 0 0"
    ascent="800"
    descent="-200"
    x-height="500"
    cap-height="700"
    bbox="-697 -551 1303 1276"
    underline-thickness="50"
    underline-position="-150"
    unicode-range="U+000D-FB02"
  />
<missing-glyph horiz-adv-x="700" 
d="M100 750h500v-750h-500v750zM556 41v668h-412v-668h412z" />
    <glyph glyph-name="fi" unicode="fi" horiz-adv-x="599" 
d="M92 422h-82v78h82v61q0 73 45 114.5t123 41.5q34 0 64 -10.5t50 -29.5l-40 -68q-12 10 -28 16t-33 6q-31 0 -49 -20.5t-18 -56.5v-54h141v-78h-141v-422h-114v422zM426.5 586.5q-20.5 18.5 -20.5 49.5q0 32 20.5 50.5t54.5 18.5t54.5 -18.5t20.5 -50.5q0 -31 -20.5 -49.5
t-54.5 -18.5t-54.5 18.5zM424 500h114v-500h-114v500z" />
    <glyph glyph-name="fl" unicode="fl" horiz-adv-x="641" 
d="M92 422h-82v78h82v61q0 73 45 114.5t123 41.5q34 0 64 -10.5t50 -29.5l-40 -68q-12 10 -28 16t-33 6q-31 0 -49 -20.5t-18 -56.5v-54h141v-78h-141v-422h-114v422zM441.5 23.5q-31.5 33.5 -31.5 98.5v620h114v-621q0 -27 11 -38.5t36 -11.5t55 13l17 -63
q-43 -31 -109 -31q-61 0 -92.5 33.5z" />
    <glyph glyph-name="uni0E240E45" unicode="&#xe24;&#xe45;" horiz-adv-x="898" 
d="M779 542q52 -44 52 -124v-668h-113v662q0 41 -24 63t-67 22q-46 0 -72.5 -30.5t-28.5 -85.5v-631h-113v620q0 57 -35.5 92t-93.5 35q-50 0 -89 -21.5t-53 -57.5q34 -6 66 -18t51 -27v-30q-36 -12 -56 -38t-20 -61v-45q4 1 13 1q47 0 77 -29t30 -75q0 -47 -32 -76.5
t-82 -29.5q-52 0 -85.5 31.5t-33.5 81.5v136q0 36 19 65.5t52 44.5q-44 12 -104 17q2 65 34.5 115t89.5 77.5t131 27.5q55 0 100.5 -17t76.5 -48q57 65 162 65q96 0 148 -44zM163.5 128.5q-12.5 -12.5 -12.5 -32.5t12.5 -33t32.5 -13t33 13t13 33t-13 32.5t-33 12.5
t-32.5 -12.5z" />
    <glyph glyph-name="uni0E260E45" unicode="&#xe26;&#xe45;" horiz-adv-x="924" 
d="M805 542q52 -44 52 -124v-668h-113v662q0 41 -24 63t-67 22q-46 0 -72.5 -30.5t-28.5 -85.5v-631h-113v620q0 59 -34 93t-90 34q-46 0 -83 -20.5t-52 -58.5q35 -6 68 -18.5t52 -26.5v-30q-32 -10 -49 -32t-17 -50q0 -10 6 -48q12 -58 12 -104q0 -54 -34 -86.5t-89 -32.5
q-50 0 -81 29t-31 76t28.5 77t74.5 30q15 0 24 -4q-9 34 -9 58q0 28 12 53.5t33 39.5q-39 13 -105 17q2 64 32.5 114t86 78t129.5 28q55 0 100 -16t75 -46q27 30 67.5 46t91.5 16q96 0 148 -44zM157 63.5q13 12.5 13 32.5t-13 33t-33 13t-32.5 -13t-12.5 -33q0 -19 13 -32
t32 -13q20 0 33 12.5z" />
    <glyph glyph-name=".notdef" horiz-adv-x="700" 
d="M100 750h500v-750h-500v750zM556 41v668h-412v-668h412z" />
    <glyph glyph-name=".null" 
 />
    <glyph glyph-name="nonmarkingreturn" unicode="&#xd;" horiz-adv-x="237" 
 />
    <glyph glyph-name="NULL" 
 />
    <glyph glyph-name="NULL" 
 />
    <glyph glyph-name="space" unicode=" " horiz-adv-x="237" 
 />
    <glyph glyph-name="exclam" unicode="!" horiz-adv-x="250" 
d="M57 700h136l-14 -490h-108zM64 12.5q-24 22.5 -24 57.5q0 36 23.5 58.5t61.5 22.5t61.5 -22.5t23.5 -58.5q0 -35 -24 -57.5t-61 -22.5t-61 22.5z" />
    <glyph glyph-name="quotedbl" unicode="&#x22;" horiz-adv-x="388" 
d="M40 710h121l-11 -257h-100zM228 710h120l-10 -257h-100z" />
    <glyph glyph-name="numbersign" unicode="#" horiz-adv-x="700" 
d="M567 420l-17 -140h85v-91h-97l-23 -189h-118l23 189h-172l-23 -189h-118l23 189h-83v91h95l17 140h-93v92h105l23 188h118l-23 -188h172l23 188h118l-23 -188h75v-92h-87zM449 420h-172l-17 -140h172z" />
    <glyph glyph-name="dollar" unicode="$" horiz-adv-x="537" 
d="M462 59q-50 -51 -136 -65v-74h-100v73q-61 8 -111.5 38t-83.5 78l75 72q32 -39 78.5 -64t89.5 -25q51 0 81.5 24t30.5 63q0 28 -10 46.5t-37 37t-83 46.5q-74 36 -117 68t-63 68t-20 83q0 70 45.5 117t124.5 61v63h100v-62q58 -8 103.5 -35.5t67.5 -69.5l-81 -60
q-24 31 -57.5 48.5t-71.5 17.5q-49 0 -76.5 -20.5t-27.5 -57.5q0 -23 12.5 -39.5t45 -36.5t99.5 -52q95 -45 133.5 -93.5t38.5 -121.5q0 -77 -50 -128z" />
    <glyph glyph-name="percent" unicode="%" horiz-adv-x="947" 
d="M91 359q-47 56 -47 147q0 92 47 148t124 56q50 0 89 -25.5t60.5 -72t21.5 -106.5t-21.5 -106t-60.5 -71.5t-89 -25.5q-77 0 -124 56zM621 700h129l-429 -713h-128zM263 422q18 32 18 84t-18 84t-48 32q-31 0 -49 -32t-18 -84t18 -84t49 -32q30 0 48 32zM643 16
q-39 26 -60.5 72.5t-21.5 106.5t21.5 106t60.5 71.5t89 25.5t89 -25.5t60.5 -71.5t21.5 -106t-21.5 -106.5t-60.5 -72.5t-89 -26t-89 26zM781 111q18 32 18 84t-18 84t-49 32t-49 -32t-18 -84t18 -84t49 -32t49 32z" />
    <glyph glyph-name="ampersand" unicode="&#x26;" horiz-adv-x="688" 
d="M588 -10q-15 12 -16 13q-55 42 -70 55q-90 -68 -210 -68q-77 0 -135 26.5t-89.5 74.5t-31.5 111q0 61 36 112t100 84q-52 83 -52 151q0 71 50.5 116t132.5 45q80 0 129.5 -43t49.5 -113q0 -115 -145 -194q58 -67 159 -154q31 54 40 126h110q-9 -110 -67 -195
q40 -34 79 -64zM253.5 599q-18.5 -19 -18.5 -51q0 -50 53 -125q39 31 59.5 64.5t20.5 64.5t-17 48.5t-46 17.5q-33 0 -51.5 -19zM423 126q-111 99 -180 179q-17 20 -16 19q-30 -23 -46.5 -53.5t-16.5 -63.5q0 -52 38 -83.5t101 -31.5q66 0 120 34z" />
    <glyph glyph-name="quotesingle" unicode="'" horiz-adv-x="201" 
d="M40 710h121l-11 -257h-100z" />
    <glyph glyph-name="parenleft" unicode="(" horiz-adv-x="342" 
d="M80.5 109.5q-40.5 103.5 -40.5 234.5t40.5 234.5t117.5 171.5h118q-71 -59 -111.5 -167t-40.5 -239q0 -130 40.5 -238.5t111.5 -167.5h-118q-77 68 -117.5 171.5z" />
    <glyph glyph-name="parenright" unicode=")" horiz-adv-x="342" 
d="M138 105.5q40 108.5 40 238.5t-40 238.5t-111 167.5h118q77 -67 117 -170.5t40 -235.5q0 -131 -40 -234.5t-117 -171.5h-118q71 59 111 167.5z" />
    <glyph glyph-name="asterisk" unicode="*" horiz-adv-x="448" 
d="M78 398l90 113l-141 -8v84l141 -9l-90 114l82 46l64 -129l65 129l81 -46l-90 -114l142 9v-84l-142 8l90 -113l-81 -47l-65 129l-64 -129z" />
    <glyph glyph-name="plus" unicode="+" horiz-adv-x="614" 
d="M253 219h-205v87h205v218h108v-218h205v-87h-205v-219h-108v219z" />
    <glyph glyph-name="comma" unicode="," horiz-adv-x="278" 
d="M202.5 118.5q23.5 -27.5 23.5 -73.5q0 -60 -33.5 -124.5t-88.5 -106.5l-50 57q25 22 44.5 54t29.5 67q-3 -1 -11 -1q-26 0 -44 20t-18 52q0 37 24 60t62 23t61.5 -27.5z" />
    <glyph glyph-name="hyphen" unicode="-" horiz-adv-x="340" 
d="M27 306h287v-79h-287v79z" />
    <glyph glyph-name="period" unicode="." horiz-adv-x="278" 
d="M83.5 12.5q-21.5 22.5 -21.5 57.5q0 34 21.5 56t55.5 22t55.5 -21.5t21.5 -56.5t-21.5 -57.5t-55.5 -22.5t-55.5 22.5z" />
    <glyph glyph-name="slash" unicode="/" horiz-adv-x="451" 
d="M358 725h115l-380 -768h-115z" />
    <glyph glyph-name="zero" unicode="0" horiz-adv-x="560" 
d="M94.5 82q-64.5 92 -64.5 268t64.5 268t185.5 92q122 0 186 -92t64 -268t-64 -268t-186 -92q-121 0 -185.5 92zM404 350q0 268 -124 268q-123 0 -123 -268q0 -267 123 -267q124 0 124 267z" />
    <glyph glyph-name="one" unicode="1" horiz-adv-x="560" 
d="M121 96h116v461l-133 -78v113l177 108h82v-604h115v-96h-357v96z" />
    <glyph glyph-name="two" unicode="2" horiz-adv-x="560" 
d="M59 96q68 49 138.5 117t119.5 146t49 148q0 47 -27 74.5t-73 27.5q-47 0 -89.5 -24.5t-68.5 -65.5l-68 72q34 56 94 87.5t133 31.5q106 0 166.5 -53t60.5 -146q0 -169 -267 -415h293v-96h-461v96z" />
    <glyph glyph-name="three" unicode="3" horiz-adv-x="560" 
d="M136.5 19q-60.5 29 -90.5 79l62 70q28 -34 72 -55t88 -21q55 0 89 31.5t34 81.5q0 55 -41 85t-113 30h-52v93h51q58 0 94.5 31t36.5 80q0 40 -26.5 62t-76.5 22q-46 0 -87 -19.5t-70 -55.5l-59 70q35 50 96.5 78.5t134.5 28.5q64 0 112.5 -21.5t75 -60.5t26.5 -91
q0 -55 -31 -98t-88 -67q71 -22 107.5 -66t36.5 -109q0 -61 -30.5 -108t-86 -73t-128.5 -26q-76 0 -136.5 29z" />
    <glyph glyph-name="four" unicode="4" horiz-adv-x="560" 
d="M336 113h-313v93l300 494h139v-486h76v-101h-76v-113h-126v113zM336 214v321l-195 -321h195z" />
    <glyph glyph-name="five" unicode="5" horiz-adv-x="560" 
d="M133.5 19q-61.5 29 -93.5 78l56 80q34 -41 76.5 -63t89.5 -22q61 0 96 39t35 107q0 64 -31.5 100.5t-85.5 36.5q-33 0 -63 -17.5t-46 -47.5h-105l34 390h402v-101h-289l-15 -170q16 18 49 29.5t66 11.5q63 0 111 -28.5t74.5 -80.5t26.5 -121q0 -75 -31.5 -131.5
t-89.5 -87.5t-134 -31q-71 0 -132.5 29z" />
    <glyph glyph-name="six" unicode="6" horiz-adv-x="560" 
d="M156.5 23.5q-55.5 33.5 -86 94.5t-30.5 141q0 112 56 212.5t152.5 165.5t212.5 77l12 -96q-85 -16 -154.5 -64.5t-104.5 -120.5q12 10 33.5 17.5t45.5 7.5q107 0 168 -64t61 -170q0 -69 -29 -122t-82.5 -82.5t-124.5 -29.5q-74 0 -129.5 33.5zM367 128q31 36 31 97
q0 60 -31 96t-83 36q-51 0 -82 -36t-31 -96q0 -61 31 -97t82 -36q52 0 83 36z" />
    <glyph glyph-name="seven" unicode="7" horiz-adv-x="560" 
d="M222 326.5q41 143.5 141 272.5h-315v101h466v-87q-103 -109 -157 -268t-54 -345h-127q5 183 46 326.5z" />
    <glyph glyph-name="eight" unicode="8" horiz-adv-x="560" 
d="M101 46q-66 56 -66 151q0 58 30.5 106t83.5 69q-40 17 -65.5 60.5t-25.5 91.5q0 55 27.5 97.5t78 65.5t116.5 23t116.5 -23t78 -65.5t27.5 -97.5q0 -48 -25.5 -91.5t-65.5 -60.5q53 -21 84 -69t31 -106q0 -95 -66.5 -151t-179.5 -56t-179 56zM350.5 442.5
q26.5 26.5 26.5 70.5q0 43 -26.5 69.5t-70.5 26.5q-43 0 -69.5 -26.5t-26.5 -69.5q0 -44 26.5 -70.5t69.5 -26.5q44 0 70.5 26.5zM367.5 124q32.5 32 32.5 86q0 55 -32 86.5t-88 31.5q-55 0 -87 -31.5t-32 -86.5q0 -54 32 -86t87 -32t87.5 32z" />
    <glyph glyph-name="nine" unicode="9" horiz-adv-x="560" 
d="M89 82q90 19 163.5 68.5t102.5 117.5q-16 -11 -39 -18.5t-47 -7.5q-69 0 -121 30t-80 83.5t-28 121.5t29 121t82.5 82.5t124.5 29.5q74 0 129.5 -33.5t86 -95.5t30.5 -143q0 -120 -52.5 -217.5t-146.5 -159t-215 -75.5zM359.5 375q31.5 38 31.5 101q0 60 -31.5 96
t-83.5 36q-51 0 -81.5 -36t-30.5 -96q0 -63 30.5 -101t81.5 -38q52 0 83.5 38z" />
    <glyph glyph-name="colon" unicode=":" horiz-adv-x="278" 
d="M83.5 354q-21.5 22 -21.5 57q0 34 21.5 56t55.5 22t55.5 -22t21.5 -56q0 -35 -21.5 -57t-55.5 -22t-55.5 22zM83.5 12q-21.5 22 -21.5 57t21.5 57t55.5 22t55.5 -22t21.5 -57t-21.5 -57t-55.5 -22t-55.5 22z" />
    <glyph glyph-name="semicolon" unicode=";" horiz-adv-x="278" 
d="M83.5 354q-21.5 22 -21.5 57q0 34 21.5 56t55.5 22t55.5 -22t21.5 -56q0 -35 -21.5 -57t-55.5 -22t-55.5 22zM203.5 118.5q23.5 -27.5 23.5 -73.5q0 -59 -33.5 -124t-88.5 -107l-50 57q25 22 45 54t29 67q-4 -1 -11 -1q-26 0 -44 20t-18 52q0 37 23.5 60t61.5 23
q39 0 62.5 -27.5z" />
    <glyph glyph-name="less" unicode="&#x3c;" horiz-adv-x="614" 
d="M57 263v50l500 264v-97l-363 -192l363 -191v-97z" />
    <glyph glyph-name="equal" unicode="=" horiz-adv-x="614" 
d="M60 410h494v-93h-494v93zM60 199h494v-93h-494v93z" />
    <glyph glyph-name="greater" unicode="&#x3e;" horiz-adv-x="614" 
d="M57 97l363 191l-363 192v97l500 -264v-50l-500 -263v97z" />
    <glyph glyph-name="question" unicode="?" horiz-adv-x="466" 
d="M172 216q0 42 19 78t56 85q34 44 51 76t17 66q0 47 -25 71.5t-72 24.5q-38 0 -72.5 -23t-57.5 -63l-61 71q29 51 83 79.5t122 28.5q98 0 152.5 -48t54.5 -132q0 -45 -20.5 -81t-61.5 -86q-38 -45 -57.5 -78.5t-19.5 -72.5q0 -20 3 -37h-106q-5 20 -5 41zM179 10
q-21 20 -21 52t21 52t55 20t55 -20t21 -52t-21 -52t-55 -20t-55 20z" />
    <glyph glyph-name="at" unicode="@" horiz-adv-x="802" 
d="M199.5 -104q-78.5 45 -122 125.5t-43.5 183.5q0 114 49 203t136.5 139t199.5 50q100 0 178.5 -41.5t122.5 -116.5t44 -170q0 -71 -24.5 -126.5t-69 -88t-101.5 -33.5l-33 -1l-24 62q-25 -30 -65 -48.5t-78 -18.5q-65 0 -105.5 38t-40.5 99q0 62 49 100.5t127 38.5h85v17
q0 34 -22.5 55.5t-58.5 21.5t-71.5 -17t-55.5 -43l-41 47q27 35 74.5 57t94.5 22q70 0 113.5 -43.5t43.5 -113.5v-133q0 -19 4.5 -39t12.5 -33q45 10 73.5 59.5t28.5 118.5q0 73 -33 130t-92.5 89t-135.5 32q-86 0 -153 -39.5t-104.5 -110.5t-37.5 -162q0 -81 33 -143.5
t92.5 -97.5t136.5 -35q46 0 92 12t73 31l32 -65q-32 -25 -89 -41t-116 -16q-100 0 -178.5 45zM428 91.5q25 12.5 40.5 31.5t15.5 35v74h-81q-45 0 -71.5 -21.5t-26.5 -57.5q0 -34 21 -54t52 -20q25 0 50 12.5z" />
    <glyph glyph-name="A" unicode="A" horiz-adv-x="626" 
d="M439 128h-251l-39 -128h-133l241 700h113l241 -700h-133zM408 229l-94 306l-95 -306h189z" />
    <glyph glyph-name="B" unicode="B" horiz-adv-x="601" 
d="M73 700h213q121 0 183.5 -43.5t62.5 -128.5q0 -53 -24 -89.5t-75 -61.5v-2q66 -22 96 -63t30 -108q0 -100 -59 -152t-172 -52h-255v700zM302 416q49 0 76 26t27 73q0 44 -30 65.5t-93 21.5h-83v-186h103zM322 99q54 0 83 29t29 83q0 58 -35.5 85t-112.5 27h-87v-224h123z
" />
    <glyph glyph-name="C" unicode="C" horiz-adv-x="608" 
d="M181.5 34q-71.5 44 -110.5 125.5t-39 190.5q0 110 39 191t111 125t169 44q81 0 142 -31t90 -87l-72 -65q-54 81 -159 81q-93 0 -143 -66.5t-50 -191.5q0 -124 49 -191t140 -67q111 0 163 82l72 -65q-29 -57 -90 -88t-144 -31q-96 0 -167.5 44z" />
    <glyph glyph-name="D" unicode="D" horiz-adv-x="636" 
d="M73 700h240q141 0 212.5 -84.5t71.5 -251.5q0 -130 -32 -210t-100 -117t-179 -37h-213v700zM301 102q91 0 130.5 61t39.5 201q0 123 -38.5 178.5t-122.5 55.5h-111v-496h102z" />
    <glyph glyph-name="E" unicode="E" horiz-adv-x="565" 
d="M73 700h449v-102h-323v-179h289v-102h-289v-215h323v-102h-449v700z" />
    <glyph glyph-name="F" unicode="F" horiz-adv-x="566" 
d="M73 700h454v-102h-328v-206h307v-102h-307v-290h-126v700z" />
    <glyph glyph-name="G" unicode="G" horiz-adv-x="648" 
d="M594 374v-374h-93l-14 41q-66 -51 -162 -51q-91 0 -157 43t-101 124t-35 193q0 109 39 190.5t110.5 125.5t167.5 44q83 0 145 -31t91 -87l-71 -65q-25 40 -67 60.5t-96 20.5q-92 0 -142 -67t-50 -191q0 -128 47 -196.5t134 -68.5q77 0 129 37v162h-156v90h281z" />
    <glyph glyph-name="H" unicode="H" horiz-adv-x="688" 
d="M72 700h127v-293h290v293h127v-700h-127v305h-290v-305h-127v700z" />
    <glyph glyph-name="I" unicode="I" horiz-adv-x="313" 
d="M93 700h127v-700h-127v700z" />
    <glyph glyph-name="J" unicode="J" horiz-adv-x="475" 
d="M85.5 7.5q-47.5 17.5 -79.5 47.5l50 87q25 -23 57.5 -36.5t65.5 -13.5q52 0 75 35t23 114v459h126v-476q0 -119 -53 -176.5t-165 -57.5q-52 0 -99.5 17.5z" />
    <glyph glyph-name="K" unicode="K" horiz-adv-x="639" 
d="M489 0l-198 325l-92 -112v-213h-127v700h127v-321l249 321h148l-222 -272l254 -428h-139z" />
    <glyph glyph-name="L" unicode="L" horiz-adv-x="559" 
d="M72 700h127v-598h332v-102h-459v700z" />
    <glyph glyph-name="M" unicode="M" horiz-adv-x="810" 
d="M738 700v-700h-125v450l-163 -450h-89l-164 453v-453h-124v700h136l196 -555l197 555h136z" />
    <glyph glyph-name="N" unicode="N" horiz-adv-x="693" 
d="M621 700v-700h-118l-305 491v-491h-126v700h125l298 -483v483h126z" />
    <glyph glyph-name="O" unicode="O" horiz-adv-x="681" 
d="M176 33.5q-70 43.5 -107 124.5t-37 192t37 192t107 124.5t165 43.5t164.5 -43.5t106.5 -124.5t37 -192t-37 -192t-106.5 -124.5t-164.5 -43.5t-165 43.5zM473.5 160q48.5 69 48.5 190t-48.5 190.5t-132.5 69.5q-85 0 -133.5 -69.5t-48.5 -190.5t48.5 -190t133.5 -69
q84 0 132.5 69z" />
    <glyph glyph-name="P" unicode="P" horiz-adv-x="585" 
d="M73 700h224q121 0 183.5 -55.5t62.5 -163.5q0 -115 -64.5 -174.5t-186.5 -59.5h-93v-247h-126v700zM303 349q57 0 87 32.5t30 94.5q0 60 -31.5 91t-92.5 31h-97v-249h104z" />
    <glyph glyph-name="Q" unicode="Q" horiz-adv-x="681" 
d="M590.5 118.5q-58.5 -91.5 -163.5 -118.5q85 -30 210 -37l-20 -87q-93 7 -190.5 41.5t-157.5 79.5q-112 23 -174.5 115t-62.5 238q0 111 37 192t107 124.5t165 43.5t164.5 -43.5t106.5 -124.5t37 -192q0 -140 -58.5 -231.5zM207.5 160q48.5 -69 133.5 -69q84 0 132.5 69
t48.5 190t-48.5 190.5t-132.5 69.5q-85 0 -133.5 -69.5t-48.5 -190.5t48.5 -190z" />
    <glyph glyph-name="R" unicode="R" horiz-adv-x="591" 
d="M73 700h236q117 0 175 -47.5t58 -144.5q0 -69 -31 -118t-88 -69v-2q19 -13 30.5 -27t19.5 -32l103 -260h-134l-83 218q-14 35 -35 47.5t-69 12.5h-56v-278h-126v700zM297 379q60 0 91.5 29t31.5 86q0 104 -125 104h-96v-219h98z" />
    <glyph glyph-name="S" unicode="S" horiz-adv-x="544" 
d="M132.5 21q-62.5 31 -101.5 88l75 72q32 -39 78.5 -64t89.5 -25q51 0 81.5 24t30.5 63q0 28 -10 46.5t-37 37t-83 46.5q-74 36 -117 68t-63 68t-20 83q0 54 28.5 95.5t79.5 64t118 22.5q73 0 130.5 -29t84.5 -79l-81 -60q-24 31 -57.5 48.5t-71.5 17.5q-49 0 -76.5 -20.5
t-27.5 -57.5q0 -23 12.5 -39.5t45 -36.5t99.5 -52q95 -45 133.5 -93.5t38.5 -121.5q0 -59 -30 -103.5t-85 -69t-127 -24.5q-75 0 -137.5 31z" />
    <glyph glyph-name="T" unicode="T" horiz-adv-x="580" 
d="M227 606h-211v94h548v-94h-211v-606h-126v606z" />
    <glyph glyph-name="U" unicode="U" horiz-adv-x="661" 
d="M133 61.5q-67 71.5 -67 211.5v427h127v-425q0 -183 138 -183q68 0 103 46t35 137v425h126v-427q0 -140 -67 -211.5t-197 -71.5q-131 0 -198 71.5z" />
    <glyph glyph-name="V" unicode="V" horiz-adv-x="632" 
d="M617 700l-242 -700h-117l-242 700h133l168 -537l167 537h133z" />
    <glyph glyph-name="W" unicode="W" horiz-adv-x="860" 
d="M834 700l-147 -700h-121l-136 539l-136 -539h-121l-147 700h135l83 -496l125 496h122l125 -494l83 494h135z" />
    <glyph glyph-name="X" unicode="X" horiz-adv-x="639" 
d="M246 359l-207 341h143l138 -242l137 242h144l-208 -341l217 -359h-141l-149 254l-149 -254h-142z" />
    <glyph glyph-name="Y" unicode="Y" horiz-adv-x="610" 
d="M242 279l-226 421h138l151 -305l151 305h138l-225 -421v-279h-127v279z" />
    <glyph glyph-name="Z" unicode="Z" horiz-adv-x="584" 
d="M29 64l355 534h-326v102h484v-65l-352 -533h365v-102h-526v64z" />
    <glyph glyph-name="bracketleft" unicode="[" horiz-adv-x="324" 
d="M50 700h241v-88h-117v-631h117v-88h-241v807z" />
    <glyph glyph-name="backslash" unicode="\" horiz-adv-x="384" 
d="M-22 725h115l380 -768h-115z" />
    <glyph glyph-name="bracketright" unicode="]" horiz-adv-x="324" 
d="M34 -19h116v631h-116v88h240v-807h-240v88z" />
    <glyph glyph-name="asciicircum" unicode="^" horiz-adv-x="595" 
d="M251 700h94l213 -476h-112l-148 350l-148 -350h-113z" />
    <glyph glyph-name="underscore" unicode="_" horiz-adv-x="347" 
d="M0 -223h347v-86h-347v86z" />
    <glyph glyph-name="grave" unicode="`" horiz-adv-x="400" 
d="M79 722h111l89 -167h-90z" />
    <glyph glyph-name="a" unicode="a" horiz-adv-x="524" 
d="M115.5 10.5q-38.5 20.5 -60 56.5t-21.5 81q0 76 59.5 117t168.5 41h87v23q0 45 -26 69t-73 24q-45 0 -84.5 -16.5t-65.5 -47.5l-52 67q38 41 92 63t114 22q98 0 153 -46.5t55 -130.5v-230q0 -21 4 -50.5t9 -52.5h-101q-9 21 -13 63h-2q-58 -73 -156 -73q-49 0 -87.5 20.5
zM314.5 103.5q34.5 27.5 34.5 67.5v58h-90q-55 0 -84.5 -21t-29.5 -60q0 -34 22 -53t62 -19q51 0 85.5 27.5z" />
    <glyph glyph-name="b" unicode="b" horiz-adv-x="553" 
d="M226.5 12.5q-41.5 22.5 -64.5 58.5h-2q0 -49 -2 -71h-106q3 30 3 131v611h114v-298h2q44 66 146 66q96 0 151 -67t55 -184q0 -125 -56 -197t-154 -72q-45 0 -86.5 22.5zM379 125q31 47 31 132q0 80 -30.5 124t-87.5 44q-53 0 -88 -35.5t-35 -90.5v-99q0 -56 33.5 -89
t89.5 -33t87 47z" />
    <glyph glyph-name="c" unicode="c" horiz-adv-x="486" 
d="M94.5 59q-64.5 69 -64.5 191t64.5 191t179.5 69q67 0 118 -25.5t79 -72.5l-68 -60q-20 33 -53 51.5t-71 18.5q-64 0 -100 -45.5t-36 -126.5q0 -80 36 -126t100 -46q38 0 71 19t53 52l68 -60q-28 -48 -78.5 -73.5t-118.5 -25.5q-115 0 -179.5 69z" />
    <glyph glyph-name="d" unicode="d" horiz-adv-x="553" 
d="M86 62q-56 72 -56 197q0 76 26 132.5t74 87.5t113 31q89 0 140 -66h2v298h113v-611q0 -101 3 -131h-106q-2 20 -2 71h-2q-23 -36 -64.5 -58.5t-86.5 -22.5q-98 0 -154 72zM350.5 111q33.5 33 33.5 89v99q0 55 -34.5 90.5t-88.5 35.5q-57 0 -87.5 -44t-30.5 -124
q0 -85 31 -132t87 -47t89.5 33z" />
    <glyph glyph-name="e" unicode="e" horiz-adv-x="534" 
d="M501 208h-352q17 -122 133 -122q44 0 78 16t63 50l62 -59q-29 -47 -85.5 -75t-123.5 -28q-115 0 -179 68.5t-64 190.5t64.5 191.5t176.5 69.5q107 0 167 -69t60 -191v-42zM392 293q0 59 -32 92t-89 33q-52 0 -83.5 -34.5t-39.5 -96.5h244v6z" />
    <glyph glyph-name="f" unicode="f" horiz-adv-x="362" 
d="M92 422h-82v78h82v61q0 73 45 114.5t123 41.5q34 0 64 -10.5t50 -29.5l-40 -68q-12 10 -28 16t-33 6q-31 0 -49 -20.5t-18 -56.5v-54h141v-78h-141v-422h-114v422z" />
    <glyph glyph-name="g" unicode="g" horiz-adv-x="550" 
d="M498 500v-481q0 -124 -62 -188t-182 -64q-56 0 -106 13t-89 38l37 78q36 -18 76 -28t77 -10q141 0 141 177v26q-20 -31 -57 -48t-86 -17q-103 0 -160 69t-57 192q0 120 55.5 186.5t154.5 66.5q51 0 90 -19.5t62 -56.5h2l9 66h95zM384 282q0 68 -30.5 105.5t-86.5 37.5
q-59 0 -91.5 -44t-32.5 -126t32 -126.5t91 -44.5q56 0 87 34t31 96v68z" />
    <glyph glyph-name="h" unicode="h" horiz-adv-x="564" 
d="M53 742h113v-307q23 35 66 55t93 20q86 0 136.5 -57t50.5 -157v-296h-114v290q0 64 -26.5 99.5t-74.5 35.5q-59 0 -95 -42t-36 -110v-273h-113v742z" />
    <glyph glyph-name="i" unicode="i" horiz-adv-x="264" 
d="M77.5 586.5q-20.5 18.5 -20.5 49.5q0 32 20.5 50.5t54.5 18.5t54.5 -18.5t20.5 -50.5q0 -31 -20.5 -49.5t-54.5 -18.5t-54.5 18.5zM75 500h114v-500h-114v500z" />
    <glyph glyph-name="j" unicode="j" horiz-adv-x="268" 
d="M90 587q-21 19 -21 49q0 31 21 50t55 19q33 0 54 -19t21 -50q0 -30 -21 -49t-54 -19q-34 0 -55 19zM-59 -190l5 81q20 -3 56 -3q47 0 68 23t21 72v517h113v-517q0 -183 -177 -183q-44 0 -86 10z" />
    <glyph glyph-name="k" unicode="k" horiz-adv-x="518" 
d="M385 0l-153 239l-65 -63v-176h-113v742h113v-430l191 188h139l-188 -184l205 -316h-129z" />
    <glyph glyph-name="l" unicode="l" horiz-adv-x="298" 
d="M92.5 23.5q-31.5 33.5 -31.5 98.5v620h114v-621q0 -27 11 -38.5t36 -11.5t55 13l17 -63q-43 -31 -109 -31q-61 0 -92.5 33.5z" />
    <glyph glyph-name="m" unicode="m" horiz-adv-x="844" 
d="M53 370q0 90 -5 130h100q5 -43 5 -88h2q17 46 59 72t98 26q54 0 92 -24.5t51 -67.5q20 43 61.5 67.5t93.5 24.5q83 0 130 -53t47 -148v-309h-112v297q0 58 -25 90t-70 32q-47 0 -75.5 -33.5t-28.5 -89.5v-296h-112v293q0 61 -23.5 93.5t-67.5 32.5q-46 0 -77 -36t-31 -90
v-293h-112v370z" />
    <glyph glyph-name="n" unicode="n" horiz-adv-x="559" 
d="M52 370q0 93 -4 130h106q5 -47 5 -88h2q19 45 65 71.5t102 26.5q87 0 131 -57.5t44 -170.5v-282h-114v283q0 70 -22.5 103t-71.5 33q-58 0 -94 -40.5t-36 -104.5v-274h-113v370z" />
    <glyph glyph-name="o" unicode="o" horiz-adv-x="572" 
d="M100.5 59.5q-67.5 69.5 -67.5 190.5t67.5 190.5t185.5 69.5t185.5 -69.5t67.5 -190.5t-67.5 -190.5t-185.5 -69.5t-185.5 69.5zM388 121.5q37 46.5 37 128.5t-37 128.5t-102 46.5t-102 -46.5t-37 -128.5t37 -128.5t102 -46.5t102 46.5z" />
    <glyph glyph-name="p" unicode="p" horiz-adv-x="558" 
d="M57 370q0 60 -5 130h107q3 -33 3 -70h2q23 38 64.5 59t90.5 21q96 0 151 -69.5t55 -190.5t-56 -190.5t-153 -69.5q-49 0 -87 17.5t-56 48.5h-3v-298h-113v612zM380.5 122q31.5 47 31.5 131q0 83 -30 126t-88 43q-55 0 -89.5 -34t-34.5 -87v-99q0 -55 35 -91t88 -36
q56 0 87.5 47z" />
    <glyph glyph-name="q" unicode="q" horiz-adv-x="558" 
d="M388 60h-3q-20 -32 -58.5 -51t-85.5 -19q-97 0 -152.5 70t-55.5 191q0 122 55.5 190.5t153.5 68.5q50 0 91 -20.5t62 -56.5h2q0 37 3 67h106q-4 -58 -4 -130v-612h-114v302zM353.5 111q34.5 36 34.5 91v99q0 53 -34.5 87t-89.5 34q-57 0 -87 -43.5t-30 -125.5
q0 -84 31.5 -131t87.5 -47q53 0 87.5 36z" />
    <glyph glyph-name="r" unicode="r" horiz-adv-x="382" 
d="M59 378q0 85 -3 122h107q4 -39 4 -88v-10h3q19 50 65 79t106 29q18 0 30 -3v-90q-10 2 -27 2q-47 0 -86.5 -25.5t-62.5 -69.5t-23 -95v-229h-113v378z" />
    <glyph glyph-name="s" unicode="s" horiz-adv-x="433" 
d="M97 15q-48 25 -68 67l72 49q17 -26 45.5 -41t60.5 -15q36 0 60 19.5t24 50.5q0 23 -17.5 38t-71.5 36q-89 34 -125.5 69t-36.5 87q0 61 49 98t130 37q55 0 98.5 -21t68.5 -60l-67 -50q-16 22 -41 34t-55 12q-32 0 -51 -12.5t-19 -34.5q0 -16 8 -26.5t29.5 -21.5t65.5 -28
q84 -33 116 -66t32 -86q0 -72 -54 -116t-143 -44q-62 0 -110 25z" />
    <glyph glyph-name="t" unicode="t" horiz-adv-x="406" 
d="M143.5 32.5q-41.5 42.5 -41.5 117.5v265h-90v85h90v130l110 33h4v-163h144v-85h-144v-250q0 -45 19.5 -66.5t60.5 -21.5q44 0 72 12l6 -80q-41 -19 -116 -19q-73 0 -114.5 42.5z" />
    <glyph glyph-name="u" unicode="u" horiz-adv-x="558" 
d="M97 47q-44 57 -44 169v284h113v-285q0 -68 23 -100.5t71 -32.5q57 0 93.5 43t36.5 107v268h113v-380q0 -55 9 -120h-107q-9 48 -9 88h-3q-20 -45 -64.5 -71.5t-101.5 -26.5q-86 0 -130 57z" />
    <glyph glyph-name="v" unicode="v" horiz-adv-x="512" 
d="M499 500l-193 -500h-100l-193 500h117l126 -362l126 362h117z" />
    <glyph glyph-name="w" unicode="w" horiz-adv-x="694" 
d="M682 500l-127 -500h-101l-107 379l-107 -379h-100l-127 500h118l69 -334l97 334h101l97 -336l69 336h118z" />
    <glyph glyph-name="x" unicode="x" horiz-adv-x="500" 
d="M191 254l-165 246h126l98 -160l99 160h125l-165 -246l179 -254h-127l-111 175l-110 -175h-127z" />
    <glyph glyph-name="y" unicode="y" horiz-adv-x="491" 
d="M478 500l-187 -519q-32 -88 -86.5 -132.5t-128.5 -44.5q-35 0 -73 10v89q22 -8 56 -8q46 0 79 32.5t61 106.5l-186 466h120l118 -342l106 342h121z" />
    <glyph glyph-name="z" unicode="z" horiz-adv-x="468" 
d="M23 62l275 352h-261v86h398v-58l-271 -356h281v-86h-422v62z" />
    <glyph glyph-name="braceleft" unicode="{" horiz-adv-x="340" 
d="M138 -75q-39 39 -39 116v162q0 26 -17 43t-48 20v66q31 1 48 17.5t17 44.5v162q0 77 39 115.5t121 38.5h52v-89h-51q-42 0 -42 -51v-176q0 -33 -14 -56.5t-54 -39.5q39 -15 54 -39t15 -56v-176q0 -52 41 -52h51v-89h-52q-82 0 -121 39z" />
    <glyph glyph-name="bar" unicode="|" horiz-adv-x="252" 
d="M70 700h112v-860h-112v860z" />
    <glyph glyph-name="braceright" unicode="}" horiz-adv-x="340" 
d="M30 -25h51q41 0 41 52v176q0 32 14.5 56t53.5 39q-39 16 -53.5 39.5t-14.5 56.5v176q0 51 -41 51h-51v89h52q82 0 121 -38.5t39 -115.5v-162q0 -28 17 -44.5t48 -17.5v-66q-31 -3 -48 -20t-17 -43v-162q0 -77 -39 -116t-121 -39h-52v89z" />
    <glyph glyph-name="asciitilde" unicode="~" horiz-adv-x="614" 
d="M58 212q0 63 39.5 102t102.5 39q28 0 58 -12t67 -33q30 -16 49 -24t34 -8q25 0 38.5 21t13.5 56h98v-26q0 -64 -38 -104t-100 -40q-29 0 -58 11.5t-71 33.5q-31 17 -49 24.5t-32 7.5q-24 0 -38.5 -20.5t-16.5 -56.5h-97v29z" />
    <glyph glyph-name="uni00A0" unicode="&#xa0;" horiz-adv-x="237" 
 />
    <glyph glyph-name="exclamdown" unicode="&#xa1;" horiz-adv-x="250" 
d="M63.5 371.5q-23.5 22.5 -23.5 58.5q0 35 24 57.5t61 22.5t61 -22.5t24 -57.5q0 -36 -23.5 -58.5t-61.5 -22.5t-61.5 22.5zM71 290h108l14 -491h-136z" />
    <glyph glyph-name="cent" unicode="&#xa2;" horiz-adv-x="484" 
d="M350 167q33 19 53 52l68 -60q-25 -43 -67.5 -68t-99.5 -30v-89h-73v91q-96 13 -148.5 80t-52.5 177t52.5 177t148.5 80v91h73v-89q57 -5 99.5 -30t67.5 -67l-68 -60q-20 33 -53 51.5t-71 18.5q-64 0 -100 -45.5t-36 -126.5q0 -80 36 -126t100 -46q38 0 71 19z" />
    <glyph glyph-name="sterling" unicode="&#xa3;" horiz-adv-x="546" 
d="M272 163.5q-17 -41.5 -54 -71.5h273v-92h-440v73q53 26 86 73.5t33 94.5q0 22 -6 59h-93v77h81q-16 102 -16 136q0 89 54.5 143t144.5 54q45 0 88 -16.5t70 -44.5l-40 -84q-21 20 -50 32.5t-55 12.5q-42 0 -67 -28.5t-25 -75.5q0 -33 16 -129h160v-77h-147q4 -40 4 -51
q0 -44 -17 -85.5z" />
    <glyph glyph-name="currency" unicode="&#xa4;" horiz-adv-x="626" 
d="M235 73.5q-38 11.5 -71 33.5l-59 -58l-74 72l55 56q-23 31 -36 73.5t-13 80.5t13 80.5t36 74.5l-55 56l74 72l59 -58q33 21 71.5 33t75.5 12t77 -12t72 -33l61 57l74 -78l-56 -49q22 -29 35 -71.5t13 -83.5t-13 -83t-35 -71l56 -56l-74 -72l-61 58q-32 -21 -71.5 -33
t-77.5 -12t-76 11.5zM397 183q38 22 59 61t21 88t-21 88t-59 61t-85 22t-84.5 -22t-58.5 -61t-21 -88t21 -88t58.5 -61t84.5 -22t85 22z" />
    <glyph glyph-name="yen" unicode="&#xa5;" horiz-adv-x="618" 
d="M428 381h120v-84h-164l-10 -18v-56h174v-82h-174v-141h-127v141h-176v82h176v56l-10 18h-166v83h122l-172 320h138l151 -305l151 305h138z" />
    <glyph glyph-name="brokenbar" unicode="&#xa6;" horiz-adv-x="252" 
d="M70 700h112v-389h-112v389zM70 230h112v-390h-112v390z" />
    <glyph glyph-name="section" unicode="&#xa7;" horiz-adv-x="541" 
d="M498 67q0 -81 -64 -127t-165 -46q-74 0 -132 26.5t-93 72.5l70 71q33 -37 73.5 -56.5t81.5 -19.5q46 0 74.5 20.5t28.5 54.5q0 23 -14.5 39.5t-38 29.5t-69.5 33l-37 17q-60 26 -91.5 44.5t-50.5 45.5t-19 69q0 61 47 102q-47 42 -47 101q0 50 28.5 88t78 58t111.5 20
q74 0 128 -27t81 -76l-66 -49q-22 28 -58 43t-78 15q-45 0 -72 -19t-27 -47q0 -22 13 -38t41 -31t87 -42t93.5 -47t60 -52t25.5 -76q0 -28 -9.5 -51.5t-30.5 -45.5q40 -37 40 -100zM188 307.5q25 -16.5 85 -44.5q20 -8 46 -21l58 -27q16 25 16 43q0 16 -11.5 29t-41.5 29.5
t-90 43.5l-69 31q-18 -19 -18 -46q0 -21 25 -37.5z" />
    <glyph glyph-name="dieresis" unicode="&#xa8;" horiz-adv-x="400" 
d="M52 572.5q-18 17.5 -18 43.5t18 43.5t44 17.5t44 -17.5t18 -43.5t-18 -43.5t-44 -17.5t-44 17.5zM260 572.5q-18 17.5 -18 43.5t18 43.5t44 17.5t44 -17.5t18 -43.5t-18 -43.5t-44 -17.5t-44 17.5z" />
    <glyph glyph-name="copyright" unicode="&#xa9;" horiz-adv-x="808" 
d="M216 36q-83 46 -129.5 128t-46.5 186t46.5 186t129.5 128t188 46q106 0 188.5 -46t129 -128t46.5 -186t-46.5 -186t-129 -128t-188.5 -46q-105 0 -188 46zM551 97q65 37 101.5 103t36.5 150t-36.5 150.5t-101.5 103.5t-147 37t-147 -37.5t-101.5 -103.5t-36.5 -150
q0 -83 36.5 -149.5t101.5 -103.5t147 -37t147 37zM278.5 200q-49.5 58 -49.5 153q0 98 51 155t134 57q47 0 84.5 -21.5t53.5 -54.5l-46 -48q-32 50 -92 50q-46 0 -73 -37.5t-27 -100.5q0 -62 26.5 -100t70.5 -38q31 0 53.5 13t41.5 39l46 -49q-17 -33 -55.5 -54.5
t-85.5 -21.5q-83 0 -132.5 58z" />
    <glyph glyph-name="ordfeminine" unicode="&#xaa;" horiz-adv-x="362" 
d="M63.5 390.5q-30.5 29.5 -30.5 75.5q0 49 34.5 75.5t98.5 26.5h67v14q0 61 -61 61q-53 0 -87 -42l-40 46q48 60 137 60q67 0 102.5 -31t35.5 -89v-149q0 -38 7 -70h-79q-2 8 -8 41q-12 -22 -39.5 -35t-59.5 -13q-47 0 -77.5 29.5zM215 439q18 19 18 46v30h-48
q-67 0 -67 -49q0 -22 13.5 -34t35.5 -12q30 0 48 19z" />
    <glyph glyph-name="guillemotleft" unicode="&#xab;" horiz-adv-x="562" 
d="M34 260l152 199h123l-150 -199l150 -198h-123zM253 260l153 199h122l-149 -199l149 -198h-122z" />
    <glyph glyph-name="logicalnot" unicode="&#xac;" horiz-adv-x="613" 
d="M461 326h-419v81h531v-283h-112v202z" />
    <glyph glyph-name="uni00AD" unicode="&#xad;" horiz-adv-x="340" 
d="M27 306h287v-79h-287v79z" />
    <glyph glyph-name="registered" unicode="&#xae;" horiz-adv-x="526" 
d="M376 683q49 -27 76.5 -75.5t27.5 -111.5t-27.5 -111.5t-76.5 -75.5t-113 -27t-113 27t-76 75.5t-27 111.5t27 111.5t76 75.5t113 27t113 -27zM383.5 374q46.5 45 46.5 120q0 76 -45.5 122.5t-119.5 46.5q-75 0 -121.5 -45t-46.5 -120q0 -76 45 -122.5t119 -46.5
q76 0 122.5 45zM303 468l49 -91h-54l-47 87h-26v-87h-50v241h96q84 0 84 -74q0 -61 -52 -76zM295 515q11 9 11 29q0 18 -10 25t-38 7h-33v-70h35q24 0 35 9z" />
    <glyph glyph-name="macron" unicode="&#xaf;" horiz-adv-x="400" 
d="M27 636h347v-62h-347v62z" />
    <glyph glyph-name="degree" unicode="&#xb0;" horiz-adv-x="320" 
d="M61.5 481q-37.5 37 -37.5 96t37.5 96t98.5 37t98.5 -37t37.5 -96t-37.5 -96t-98.5 -37t-98.5 37zM212.5 523.5q20.5 20.5 20.5 53.5t-20.5 53.5t-52.5 20.5t-52.5 -20.5t-20.5 -53.5t20.5 -53.5t52.5 -20.5t52.5 20.5z" />
    <glyph glyph-name="plusminus" unicode="&#xb1;" horiz-adv-x="614" 
d="M361 306v-173h-108v173h-205v81h205v173h108v-173h205v-81h-205zM57 81h501v-81h-501v81z" />
    <glyph glyph-name="uni00B2" unicode="&#xb2;" horiz-adv-x="420" 
d="M47 282q75 52 142.5 130.5t67.5 145.5q0 27 -17.5 42.5t-47.5 15.5q-59 0 -100 -61l-58 60q26 43 71 66.5t98 23.5q80 0 124 -38t44 -106q0 -57 -45 -124t-127 -146h187v-83h-339v74z" />
    <glyph glyph-name="uni00B3" unicode="&#xb3;" horiz-adv-x="420" 
d="M106.5 219q-44.5 21 -65.5 57l54 61q22 -23 50.5 -36t55.5 -13q31 0 50 18.5t19 48.5q0 32 -22.5 50t-62.5 18h-48v79h47q32 0 51 17.5t19 46.5q0 23 -16.5 36.5t-43.5 13.5q-28 0 -55.5 -13.5t-48.5 -35.5l-52 61q27 36 73 56.5t99 20.5q72 0 115 -34.5t43 -92.5
q0 -34 -19.5 -64t-52.5 -47q41 -16 64.5 -48t23.5 -72q0 -68 -48 -108.5t-130 -40.5q-55 0 -99.5 21z" />
    <glyph glyph-name="acute" unicode="&#xb4;" horiz-adv-x="400" 
d="M202 722h111l-110 -167h-91z" />
    <glyph glyph-name="uni00B5" unicode="&#xb5;" horiz-adv-x="558" 
d="M53 500h113v-285q0 -133 97 -133q56 0 91.5 43.5t35.5 108.5v266h113v-380q0 -53 9 -120h-106q-9 33 -10 75h-3q-20 -42 -52 -63.5t-80 -21.5q-58 0 -96 35v-233h-112v708z" />
    <glyph glyph-name="paragraph" unicode="&#xb6;" horiz-adv-x="541" 
d="M269 267h-6q-101 0 -162 55.5t-61 151.5q0 112 71.5 169t211.5 57h128v-793h-60v747h-67v-747h-55v360z" />
    <glyph glyph-name="periodcentered" unicode="&#xb7;" horiz-adv-x="278" 
d="M83.5 205q-21.5 22 -21.5 57t21.5 57t55.5 22t55.5 -22t21.5 -57t-21.5 -57t-55.5 -22t-55.5 22z" />
    <glyph glyph-name="cedilla" unicode="&#xb8;" horiz-adv-x="400" 
d="M139 -242q-25 5 -39 13l15 57q12 -6 29.5 -10t32.5 -4q19 0 31.5 9t12.5 26q0 16 -19 25.5t-51 8.5l-30 31l54 99h78l-43 -78q41 0 66 -22.5t25 -58.5q0 -43 -31.5 -72t-81.5 -29q-24 0 -49 5z" />
    <glyph glyph-name="uni00B9" unicode="&#xb9;" horiz-adv-x="420" 
d="M88 291h78v281l-89 -53v101l128 78h75v-407h77v-83h-269v83z" />
    <glyph glyph-name="ordmasculine" unicode="&#xba;" horiz-adv-x="390" 
d="M71.5 407.5q-44.5 46.5 -44.5 126.5q0 81 44.5 127t123.5 46t124 -46t45 -127t-45 -127t-124 -46t-123.5 46.5zM255 452.5q21 29.5 21 81.5q0 53 -21 82t-60 29t-59.5 -29t-20.5 -82q0 -52 20.5 -81.5t59.5 -29.5t60 29.5z" />
    <glyph glyph-name="guillemotright" unicode="&#xbb;" horiz-adv-x="562" 
d="M183 260l-149 199h122l153 -199l-153 -198h-122zM403 260l-150 199h123l152 -199l-152 -198h-123z" />
    <glyph glyph-name="onequarter" unicode="&#xbc;" horiz-adv-x="1004" 
d="M662 712h93l-392 -745h-94zM85 342h70v249l-80 -47v90l114 70h67v-362h68v-74h-239v74zM788 65h-189v70l183 300h108v-298h44v-72h-44v-65h-102v65zM788 137v181l-107 -181h107z" />
    <glyph glyph-name="onehalf" unicode="&#xbd;" horiz-adv-x="1004" 
d="M629 712h93l-392 -745h-94zM85 342h70v249l-80 -47v90l114 70h67v-362h68v-74h-239v74zM636 66q67 46 127 115.5t60 129.5q0 24 -15.5 37.5t-42.5 13.5q-26 0 -49 -14.5t-40 -39.5l-51 53q23 39 63 60t87 21q70 0 109.5 -34t39.5 -94q0 -51 -40 -111t-113 -129h167v-74
h-302v66z" />
    <glyph glyph-name="threequarters" unicode="&#xbe;" horiz-adv-x="1004" 
d="M647 712h94l-393 -745h-93zM108.5 279q-39.5 19 -58.5 51l48 54q20 -21 45 -32.5t49 -11.5q28 0 45 16.5t17 43.5q0 28 -20.5 44t-55.5 16h-43v70h42q28 0 45 15.5t17 41.5q0 21 -14.5 32.5t-38.5 11.5q-25 0 -49 -12t-43 -31l-47 54q24 32 65 50.5t88 18.5q64 0 102 -31
t38 -83q0 -30 -17 -56.5t-46 -41.5q37 -15 57.5 -43.5t20.5 -63.5q0 -60 -42.5 -96t-115.5 -36q-49 0 -88.5 19zM775 65h-189v70l182 300h109v-298h44v-72h-44v-65h-102v65zM775 137v181l-108 -181h108z" />
    <glyph glyph-name="questiondown" unicode="&#xbf;" horiz-adv-x="466" 
d="M177.5 386.5q-21.5 20.5 -21.5 51.5t21.5 51.5t54.5 20.5q34 0 55 -20t21 -52t-21 -52t-55 -20q-33 0 -54.5 20.5zM82 -162.5q-55 48.5 -55 131.5q0 46 21 82.5t62 85.5q39 48 57.5 80t18.5 71q0 21 -3 37h106q5 -20 5 -41q0 -41 -19 -76.5t-56 -86.5
q-35 -47 -51.5 -77.5t-16.5 -65.5q0 -47 25 -71.5t72 -24.5q37 0 72 23t58 63l61 -70q-29 -51 -83 -80t-122 -29q-97 0 -152 48.5z" />
    <glyph glyph-name="Agrave" unicode="&#xc0;" horiz-adv-x="626" 
d="M439 128h-251l-39 -128h-133l241 700h113l241 -700h-133zM408 229l-94 306l-95 -306h189zM163 912h112l83 -157h-91z" />
    <glyph glyph-name="Aacute" unicode="&#xc1;" horiz-adv-x="626" 
d="M439 128h-251l-39 -128h-133l241 700h113l241 -700h-133zM408 229l-94 306l-95 -306h189zM352 912h111l-103 -157h-91z" />
    <glyph glyph-name="Acircumflex" unicode="&#xc2;" horiz-adv-x="626" 
d="M439 128h-251l-39 -128h-133l241 700h113l241 -700h-133zM408 229l-94 306l-95 -306h189zM279 911h68l127 -156h-99l-62 81l-62 -81h-99z" />
    <glyph glyph-name="Atilde" unicode="&#xc3;" horiz-adv-x="626" 
d="M439 128h-251l-39 -128h-133l241 700h113l241 -700h-133zM408 229l-94 306l-95 -306h189zM178.5 841q27.5 31 69.5 31q19 0 36 -7t40 -21q12 -7 24 -13t21 -6q14 0 20.5 12.5t8.5 38.5h70q0 -58 -28.5 -89.5t-71.5 -31.5q-21 0 -40.5 8.5t-41.5 22.5q-27 16 -36 16
q-12 0 -20 -13t-9 -34h-70q0 55 27.5 86z" />
    <glyph glyph-name="Adieresis" unicode="&#xc4;" horiz-adv-x="626" 
d="M439 128h-251l-39 -128h-133l241 700h113l241 -700h-133zM408 229l-94 306l-95 -306h189zM165 772.5q-18 17.5 -18 43.5t18 43.5t44 17.5t44 -17.5t18 -43.5t-18 -43.5t-44 -17.5t-44 17.5zM373 772.5q-18 17.5 -18 43.5t18 43.5t44 17.5t44 -17.5t18 -43.5t-18 -43.5
t-44 -17.5t-44 17.5z" />
    <glyph glyph-name="Aring" unicode="&#xc5;" horiz-adv-x="626" 
d="M439 128h-251l-39 -128h-133l241 700h113l241 -700h-133zM408 229l-94 306l-95 -306h189zM239.5 746.5q-28.5 26.5 -28.5 69.5t28.5 70t73.5 27t73.5 -27t28.5 -70t-28.5 -69.5t-73.5 -26.5t-73.5 26.5zM349 779.5q14 14.5 14 36.5t-14 36.5t-36 14.5t-36 -14.5
t-14 -36.5t14 -36.5t36 -14.5t36 14.5z" />
    <glyph glyph-name="AE" unicode="&#xc6;" horiz-adv-x="818" 
d="M503 599v-183h240v-101h-240v-213h273v-102h-399v113h-175l-46 -113h-140l317 700h443v-101h-273zM377 209v336l-136 -336h136z" />
    <glyph glyph-name="Ccedilla" unicode="&#xc7;" horiz-adv-x="608" 
d="M511 174l72 -65q-25 -50 -76 -80t-120 -37l-31 -57q42 0 67.5 -20t25.5 -55q0 -43 -30.5 -69t-82.5 -26q-24 0 -48.5 5t-39.5 13l12 50q28 -11 63 -11q21 0 33.5 9.5t12.5 26.5q0 16 -18.5 25t-51.5 8l-26 29l41 72q-86 8 -150 54t-98 124t-34 180q0 110 39 191t111 125
t169 44q81 0 142 -31t90 -87l-72 -65q-54 81 -159 81q-93 0 -143 -66.5t-50 -191.5q0 -124 49 -191t140 -67q111 0 163 82z" />
    <glyph glyph-name="Egrave" unicode="&#xc8;" horiz-adv-x="565" 
d="M73 700h449v-102h-323v-179h289v-102h-289v-215h323v-102h-449v700zM151 912h112l83 -157h-91z" />
    <glyph glyph-name="Eacute" unicode="&#xc9;" horiz-adv-x="565" 
d="M73 700h449v-102h-323v-179h289v-102h-289v-215h323v-102h-449v700zM340 912h111l-103 -157h-91z" />
    <glyph glyph-name="Ecircumflex" unicode="&#xca;" horiz-adv-x="565" 
d="M73 700h449v-102h-323v-179h289v-102h-289v-215h323v-102h-449v700zM267 911h68l127 -156h-99l-62 81l-62 -81h-99z" />
    <glyph glyph-name="Edieresis" unicode="&#xcb;" horiz-adv-x="565" 
d="M73 700h449v-102h-323v-179h289v-102h-289v-215h323v-102h-449v700zM153 772.5q-18 17.5 -18 43.5t18 43.5t44 17.5t44 -17.5t18 -43.5t-18 -43.5t-44 -17.5t-44 17.5zM361 772.5q-18 17.5 -18 43.5t18 43.5t44 17.5t44 -17.5t18 -43.5t-18 -43.5t-44 -17.5t-44 17.5z
" />
    <glyph glyph-name="Igrave" unicode="&#xcc;" horiz-adv-x="313" 
d="M93 700h127v-700h-127v700zM7 912h112l83 -157h-91z" />
    <glyph glyph-name="Iacute" unicode="&#xcd;" horiz-adv-x="313" 
d="M93 700h127v-700h-127v700zM196 912h111l-103 -157h-91z" />
    <glyph glyph-name="Icircumflex" unicode="&#xce;" horiz-adv-x="313" 
d="M93 700h127v-700h-127v700zM123 911h68l127 -156h-99l-62 81l-62 -81h-99z" />
    <glyph glyph-name="Idieresis" unicode="&#xcf;" horiz-adv-x="313" 
d="M93 700h127v-700h-127v700zM9 772.5q-18 17.5 -18 43.5t18 43.5t44 17.5t44 -17.5t18 -43.5t-18 -43.5t-44 -17.5t-44 17.5zM217 772.5q-18 17.5 -18 43.5t18 43.5t44 17.5t44 -17.5t18 -43.5t-18 -43.5t-44 -17.5t-44 17.5z" />
    <glyph glyph-name="Eth" unicode="&#xd0;" horiz-adv-x="640" 
d="M530 615.5q71 -84.5 71 -251.5q0 -131 -31.5 -210.5t-99.5 -116.5t-180 -37h-213v291h-68v93h68v316h241q141 0 212 -84.5zM435.5 163q39.5 61 39.5 201q0 123 -38 178.5t-123 55.5h-110v-214h175v-93h-175v-189h102q90 0 129.5 61z" />
    <glyph glyph-name="Ntilde" unicode="&#xd1;" horiz-adv-x="693" 
d="M621 700v-700h-118l-305 491v-491h-126v700h125l298 -483v483h126zM212.5 841q27.5 31 69.5 31q19 0 36 -7t40 -21q12 -7 24 -13t21 -6q14 0 20.5 12.5t8.5 38.5h70q0 -58 -28.5 -89.5t-71.5 -31.5q-21 0 -40.5 8.5t-41.5 22.5q-27 16 -36 16q-12 0 -20 -13t-9 -34h-70
q0 55 27.5 86z" />
    <glyph glyph-name="Ograve" unicode="&#xd2;" horiz-adv-x="681" 
d="M176 33.5q-70 43.5 -107 124.5t-37 192t37 192t107 124.5t165 43.5t164.5 -43.5t106.5 -124.5t37 -192t-37 -192t-106.5 -124.5t-164.5 -43.5t-165 43.5zM473.5 160q48.5 69 48.5 190t-48.5 190.5t-132.5 69.5q-85 0 -133.5 -69.5t-48.5 -190.5t48.5 -190t133.5 -69
q84 0 132.5 69zM191 912h112l83 -157h-91z" />
    <glyph glyph-name="Oacute" unicode="&#xd3;" horiz-adv-x="681" 
d="M176 33.5q-70 43.5 -107 124.5t-37 192t37 192t107 124.5t165 43.5t164.5 -43.5t106.5 -124.5t37 -192t-37 -192t-106.5 -124.5t-164.5 -43.5t-165 43.5zM473.5 160q48.5 69 48.5 190t-48.5 190.5t-132.5 69.5q-85 0 -133.5 -69.5t-48.5 -190.5t48.5 -190t133.5 -69
q84 0 132.5 69zM380 912h111l-103 -157h-91z" />
    <glyph glyph-name="Ocircumflex" unicode="&#xd4;" horiz-adv-x="681" 
d="M176 33.5q-70 43.5 -107 124.5t-37 192t37 192t107 124.5t165 43.5t164.5 -43.5t106.5 -124.5t37 -192t-37 -192t-106.5 -124.5t-164.5 -43.5t-165 43.5zM473.5 160q48.5 69 48.5 190t-48.5 190.5t-132.5 69.5q-85 0 -133.5 -69.5t-48.5 -190.5t48.5 -190t133.5 -69
q84 0 132.5 69zM307 911h68l127 -156h-99l-62 81l-62 -81h-99z" />
    <glyph glyph-name="Otilde" unicode="&#xd5;" horiz-adv-x="681" 
d="M176 33.5q-70 43.5 -107 124.5t-37 192t37 192t107 124.5t165 43.5t164.5 -43.5t106.5 -124.5t37 -192t-37 -192t-106.5 -124.5t-164.5 -43.5t-165 43.5zM473.5 160q48.5 69 48.5 190t-48.5 190.5t-132.5 69.5q-85 0 -133.5 -69.5t-48.5 -190.5t48.5 -190t133.5 -69
q84 0 132.5 69zM206.5 841q27.5 31 69.5 31q19 0 36 -7t40 -21q12 -7 24 -13t21 -6q14 0 20.5 12.5t8.5 38.5h70q0 -58 -28.5 -89.5t-71.5 -31.5q-21 0 -40.5 8.5t-41.5 22.5q-27 16 -36 16q-12 0 -20 -13t-9 -34h-70q0 55 27.5 86z" />
    <glyph glyph-name="Odieresis" unicode="&#xd6;" horiz-adv-x="681" 
d="M176 33.5q-70 43.5 -107 124.5t-37 192t37 192t107 124.5t165 43.5t164.5 -43.5t106.5 -124.5t37 -192t-37 -192t-106.5 -124.5t-164.5 -43.5t-165 43.5zM473.5 160q48.5 69 48.5 190t-48.5 190.5t-132.5 69.5q-85 0 -133.5 -69.5t-48.5 -190.5t48.5 -190t133.5 -69
q84 0 132.5 69zM193 772.5q-18 17.5 -18 43.5t18 43.5t44 17.5t44 -17.5t18 -43.5t-18 -43.5t-44 -17.5t-44 17.5zM401 772.5q-18 17.5 -18 43.5t18 43.5t44 17.5t44 -17.5t18 -43.5t-18 -43.5t-44 -17.5t-44 17.5z" />
    <glyph glyph-name="multiply" unicode="&#xd7;" horiz-adv-x="614" 
d="M306 192l-178 -187l-71 65l180 192l-180 190l71 65l178 -186l179 186l72 -65l-181 -190l181 -192l-72 -65z" />
    <glyph glyph-name="Oslash" unicode="&#xd8;" horiz-adv-x="681" 
d="M620 524q29 -75 29 -174q0 -111 -37 -192t-106.5 -124.5t-164.5 -43.5q-77 0 -138 29l-33 -62h-98l59 112q-48 47 -73.5 118t-25.5 163q0 111 37 192t107 124.5t165 43.5q63 0 118 -20l18 35h102l-43 -80q55 -46 84 -121zM192 185l217 411q-31 14 -68 14
q-85 0 -133.5 -69.5t-48.5 -190.5q0 -97 33 -165zM473.5 160q48.5 69 48.5 190q0 116 -45 184l-223 -419q38 -24 87 -24q84 0 132.5 69z" />
    <glyph glyph-name="Ugrave" unicode="&#xd9;" horiz-adv-x="661" 
d="M133 61.5q-67 71.5 -67 211.5v427h127v-425q0 -183 138 -183q68 0 103 46t35 137v425h126v-427q0 -140 -67 -211.5t-197 -71.5q-131 0 -198 71.5zM181 912h112l83 -157h-91z" />
    <glyph glyph-name="Uacute" unicode="&#xda;" horiz-adv-x="661" 
d="M133 61.5q-67 71.5 -67 211.5v427h127v-425q0 -183 138 -183q68 0 103 46t35 137v425h126v-427q0 -140 -67 -211.5t-197 -71.5q-131 0 -198 71.5zM370 912h111l-103 -157h-91z" />
    <glyph glyph-name="Ucircumflex" unicode="&#xdb;" horiz-adv-x="661" 
d="M133 61.5q-67 71.5 -67 211.5v427h127v-425q0 -183 138 -183q68 0 103 46t35 137v425h126v-427q0 -140 -67 -211.5t-197 -71.5q-131 0 -198 71.5zM297 911h68l127 -156h-99l-62 81l-62 -81h-99z" />
    <glyph glyph-name="Udieresis" unicode="&#xdc;" horiz-adv-x="661" 
d="M133 61.5q-67 71.5 -67 211.5v427h127v-425q0 -183 138 -183q68 0 103 46t35 137v425h126v-427q0 -140 -67 -211.5t-197 -71.5q-131 0 -198 71.5zM183 772.5q-18 17.5 -18 43.5t18 43.5t44 17.5t44 -17.5t18 -43.5t-18 -43.5t-44 -17.5t-44 17.5zM391 772.5
q-18 17.5 -18 43.5t18 43.5t44 17.5t44 -17.5t18 -43.5t-18 -43.5t-44 -17.5t-44 17.5z" />
    <glyph glyph-name="Yacute" unicode="&#xdd;" horiz-adv-x="610" 
d="M242 279l-226 421h138l151 -305l151 305h138l-225 -421v-279h-127v279zM344 912h111l-103 -157h-91z" />
    <glyph glyph-name="Thorn" unicode="&#xde;" horiz-adv-x="572" 
d="M73 700h126v-93h86q120 0 182.5 -55t62.5 -160q0 -111 -64.5 -170t-185.5 -59h-81v-163h-126v700zM291 265q56 0 86.5 32t30.5 91q0 58 -32 88t-92 30h-85v-241h92z" />
    <glyph glyph-name="germandbls" unicode="&#xdf;" horiz-adv-x="572" 
d="M260 13.5q-44 23.5 -65 68.5l73 49q36 -56 90 -56q33 0 53 20.5t20 50.5q0 31 -19 48.5t-64 35.5q-54 21 -79 51.5t-25 73.5q0 35 16 57.5t48 51.5q28 25 41 43t13 43q0 35 -23.5 54.5t-65.5 19.5q-111 0 -111 -144v-480h-112v485q0 107 57.5 166t161.5 59
q97 0 150.5 -42t53.5 -118q0 -42 -20.5 -70t-56.5 -57q-23 -19 -33.5 -31.5t-10.5 -26.5q0 -21 21 -37t61 -35q51 -22 80 -56.5t29 -86.5q0 -72 -49.5 -116t-130.5 -44q-59 0 -103 23.5z" />
    <glyph glyph-name="agrave" unicode="&#xe0;" horiz-adv-x="524" 
d="M115.5 10.5q-38.5 20.5 -60 56.5t-21.5 81q0 76 59.5 117t168.5 41h87v23q0 45 -26 69t-73 24q-45 0 -84.5 -16.5t-65.5 -47.5l-52 67q38 41 92 63t114 22q98 0 153 -46.5t55 -130.5v-230q0 -21 4 -50.5t9 -52.5h-101q-9 21 -13 63h-2q-58 -73 -156 -73q-49 0 -87.5 20.5
zM314.5 103.5q34.5 27.5 34.5 67.5v58h-90q-55 0 -84.5 -21t-29.5 -60q0 -34 22 -53t62 -19q51 0 85.5 27.5zM109 712h112l83 -157h-91z" />
    <glyph glyph-name="aacute" unicode="&#xe1;" horiz-adv-x="524" 
d="M115.5 10.5q-38.5 20.5 -60 56.5t-21.5 81q0 76 59.5 117t168.5 41h87v23q0 45 -26 69t-73 24q-45 0 -84.5 -16.5t-65.5 -47.5l-52 67q38 41 92 63t114 22q98 0 153 -46.5t55 -130.5v-230q0 -21 4 -50.5t9 -52.5h-101q-9 21 -13 63h-2q-58 -73 -156 -73q-49 0 -87.5 20.5
zM314.5 103.5q34.5 27.5 34.5 67.5v58h-90q-55 0 -84.5 -21t-29.5 -60q0 -34 22 -53t62 -19q51 0 85.5 27.5zM298 712h111l-103 -157h-91z" />
    <glyph glyph-name="acircumflex" unicode="&#xe2;" horiz-adv-x="524" 
d="M115.5 10.5q-38.5 20.5 -60 56.5t-21.5 81q0 76 59.5 117t168.5 41h87v23q0 45 -26 69t-73 24q-45 0 -84.5 -16.5t-65.5 -47.5l-52 67q38 41 92 63t114 22q98 0 153 -46.5t55 -130.5v-230q0 -21 4 -50.5t9 -52.5h-101q-9 21 -13 63h-2q-58 -73 -156 -73q-49 0 -87.5 20.5
zM314.5 103.5q34.5 27.5 34.5 67.5v58h-90q-55 0 -84.5 -21t-29.5 -60q0 -34 22 -53t62 -19q51 0 85.5 27.5zM225 711h68l127 -156h-99l-62 81l-62 -81h-99z" />
    <glyph glyph-name="atilde" unicode="&#xe3;" horiz-adv-x="524" 
d="M115.5 10.5q-38.5 20.5 -60 56.5t-21.5 81q0 76 59.5 117t168.5 41h87v23q0 45 -26 69t-73 24q-45 0 -84.5 -16.5t-65.5 -47.5l-52 67q38 41 92 63t114 22q98 0 153 -46.5t55 -130.5v-230q0 -21 4 -50.5t9 -52.5h-101q-9 21 -13 63h-2q-58 -73 -156 -73q-49 0 -87.5 20.5
zM314.5 103.5q34.5 27.5 34.5 67.5v58h-90q-55 0 -84.5 -21t-29.5 -60q0 -34 22 -53t62 -19q51 0 85.5 27.5zM124.5 641q27.5 31 69.5 31q19 0 36 -7t40 -21q12 -7 24 -13t21 -6q14 0 20.5 12.5t8.5 38.5h70q0 -58 -28.5 -89.5t-71.5 -31.5q-21 0 -40.5 8.5t-41.5 22.5
q-27 16 -36 16q-12 0 -20 -13t-9 -34h-70q0 55 27.5 86z" />
    <glyph glyph-name="adieresis" unicode="&#xe4;" horiz-adv-x="524" 
d="M115.5 10.5q-38.5 20.5 -60 56.5t-21.5 81q0 76 59.5 117t168.5 41h87v23q0 45 -26 69t-73 24q-45 0 -84.5 -16.5t-65.5 -47.5l-52 67q38 41 92 63t114 22q98 0 153 -46.5t55 -130.5v-230q0 -21 4 -50.5t9 -52.5h-101q-9 21 -13 63h-2q-58 -73 -156 -73q-49 0 -87.5 20.5
zM314.5 103.5q34.5 27.5 34.5 67.5v58h-90q-55 0 -84.5 -21t-29.5 -60q0 -34 22 -53t62 -19q51 0 85.5 27.5zM111 572.5q-18 17.5 -18 43.5t18 43.5t44 17.5t44 -17.5t18 -43.5t-18 -43.5t-44 -17.5t-44 17.5zM319 572.5q-18 17.5 -18 43.5t18 43.5t44 17.5t44 -17.5
t18 -43.5t-18 -43.5t-44 -17.5t-44 17.5z" />
    <glyph glyph-name="aring" unicode="&#xe5;" horiz-adv-x="524" 
d="M115.5 10.5q-38.5 20.5 -60 56.5t-21.5 81q0 76 59.5 117t168.5 41h87v23q0 45 -26 69t-73 24q-45 0 -84.5 -16.5t-65.5 -47.5l-52 67q38 41 92 63t114 22q98 0 153 -46.5t55 -130.5v-230q0 -21 4 -50.5t9 -52.5h-101q-9 21 -13 63h-2q-58 -73 -156 -73q-49 0 -87.5 20.5
zM314.5 103.5q34.5 27.5 34.5 67.5v58h-90q-55 0 -84.5 -21t-29.5 -60q0 -34 22 -53t62 -19q51 0 85.5 27.5zM185.5 573.5q-28.5 26.5 -28.5 69.5t28.5 70t73.5 27t73.5 -27t28.5 -70t-28.5 -69.5t-73.5 -26.5t-73.5 26.5zM295 606.5q14 14.5 14 36.5t-14 36.5t-36 14.5
t-36 -14.5t-14 -36.5t14 -36.5t36 -14.5t36 14.5z" />
    <glyph glyph-name="ae" unicode="&#xe6;" horiz-adv-x="825" 
d="M792 221h-342q12 -135 128 -135q42 0 74.5 15.5t61.5 50.5l62 -59q-28 -47 -83 -75t-121 -28q-54 0 -98 18.5t-75 53.5q-33 -33 -80.5 -52.5t-98.5 -19.5q-84 0 -135 43t-51 113q0 75 53 113.5t156 38.5h94v31q0 46 -23.5 69.5t-69.5 23.5q-45 0 -82.5 -16.5t-63.5 -47.5
l-50 67q38 41 89 63t111 22q108 0 162 -62q62 62 161 62q106 0 163.5 -65t57.5 -184v-40zM681 303q0 55 -29.5 85t-83.5 30q-48 0 -78 -31t-38 -89h229v5zM337 221h-85q-53 0 -80.5 -19t-27.5 -56q0 -33 21 -51.5t59 -18.5q48 0 80.5 27.5t32.5 67.5v50z" />
    <glyph glyph-name="ccedilla" unicode="&#xe7;" horiz-adv-x="486" 
d="M350 97q33 19 53 52l68 -60q-23 -41 -63.5 -65.5t-93.5 -31.5l-32 -57q42 0 67.5 -20t25.5 -55q0 -43 -30.5 -69t-82.5 -26q-24 0 -48.5 5t-39.5 13l12 50q28 -11 63 -11q21 0 33.5 9.5t12.5 26.5q0 16 -18.5 25t-51.5 8l-26 29l41 72q-99 10 -154.5 78t-55.5 180
q0 122 64.5 191t179.5 69q67 0 118 -25.5t79 -72.5l-68 -60q-20 33 -53 51.5t-71 18.5q-64 0 -100 -45.5t-36 -126.5q0 -80 36 -126t100 -46q38 0 71 19z" />
    <glyph glyph-name="egrave" unicode="&#xe8;" horiz-adv-x="534" 
d="M501 208h-352q17 -122 133 -122q44 0 78 16t63 50l62 -59q-29 -47 -85.5 -75t-123.5 -28q-115 0 -179 68.5t-64 190.5t64.5 191.5t176.5 69.5q107 0 167 -69t60 -191v-42zM392 293q0 59 -32 92t-89 33q-52 0 -83.5 -34.5t-39.5 -96.5h244v6zM121 712h112l83 -157h-91z
" />
    <glyph glyph-name="eacute" unicode="&#xe9;" horiz-adv-x="534" 
d="M501 208h-352q17 -122 133 -122q44 0 78 16t63 50l62 -59q-29 -47 -85.5 -75t-123.5 -28q-115 0 -179 68.5t-64 190.5t64.5 191.5t176.5 69.5q107 0 167 -69t60 -191v-42zM392 293q0 59 -32 92t-89 33q-52 0 -83.5 -34.5t-39.5 -96.5h244v6zM310 712h111l-103 -157h-91z
" />
    <glyph glyph-name="ecircumflex" unicode="&#xea;" horiz-adv-x="534" 
d="M501 208h-352q17 -122 133 -122q44 0 78 16t63 50l62 -59q-29 -47 -85.5 -75t-123.5 -28q-115 0 -179 68.5t-64 190.5t64.5 191.5t176.5 69.5q107 0 167 -69t60 -191v-42zM392 293q0 59 -32 92t-89 33q-52 0 -83.5 -34.5t-39.5 -96.5h244v6zM237 711h68l127 -156h-99
l-62 81l-62 -81h-99z" />
    <glyph glyph-name="edieresis" unicode="&#xeb;" horiz-adv-x="534" 
d="M501 208h-352q17 -122 133 -122q44 0 78 16t63 50l62 -59q-29 -47 -85.5 -75t-123.5 -28q-115 0 -179 68.5t-64 190.5t64.5 191.5t176.5 69.5q107 0 167 -69t60 -191v-42zM392 293q0 59 -32 92t-89 33q-52 0 -83.5 -34.5t-39.5 -96.5h244v6zM123 572.5q-18 17.5 -18 43.5
t18 43.5t44 17.5t44 -17.5t18 -43.5t-18 -43.5t-44 -17.5t-44 17.5zM331 572.5q-18 17.5 -18 43.5t18 43.5t44 17.5t44 -17.5t18 -43.5t-18 -43.5t-44 -17.5t-44 17.5z" />
    <glyph glyph-name="igrave" unicode="&#xec;" horiz-adv-x="271" 
d="M79 500h113v-500h-113v500zM-15 712h112l83 -157h-91z" />
    <glyph glyph-name="iacute" unicode="&#xed;" horiz-adv-x="271" 
d="M79 500h113v-500h-113v500zM174 712h111l-103 -157h-91z" />
    <glyph glyph-name="icircumflex" unicode="&#xee;" horiz-adv-x="271" 
d="M79 500h113v-500h-113v500zM101 711h68l127 -156h-99l-62 81l-62 -81h-99z" />
    <glyph glyph-name="idieresis" unicode="&#xef;" horiz-adv-x="271" 
d="M79 500h113v-500h-113v500zM-13 572.5q-18 17.5 -18 43.5t18 43.5t44 17.5t44 -17.5t18 -43.5t-18 -43.5t-44 -17.5t-44 17.5zM195 572.5q-18 17.5 -18 43.5t18 43.5t44 17.5t44 -17.5t18 -43.5t-18 -43.5t-44 -17.5t-44 17.5z" />
    <glyph glyph-name="eth" unicode="&#xf0;" horiz-adv-x="508" 
d="M434.5 438.5q40.5 -87.5 40.5 -185.5q0 -79 -27.5 -138.5t-79 -92t-119.5 -32.5q-63 0 -112 28t-76.5 79t-27.5 117q0 67 27.5 119.5t76 82.5t109.5 30q23 0 45.5 -7.5t39.5 -21.5q-28 69 -87 122l-126 -81l-43 61l105 68q-55 32 -112 43l9 68q98 -12 179 -61l118 77
l42 -64l-94 -61q72 -63 112.5 -150.5zM335 117q30 37 30 101q0 65 -30 102.5t-82 37.5q-50 0 -79 -38t-29 -102t29 -101t79 -37q52 0 82 37z" />
    <glyph glyph-name="ntilde" unicode="&#xf1;" horiz-adv-x="559" 
d="M52 370q0 93 -4 130h106q5 -47 5 -88h2q19 45 65 71.5t102 26.5q87 0 131 -57.5t44 -170.5v-282h-114v283q0 70 -22.5 103t-71.5 33q-58 0 -94 -40.5t-36 -104.5v-274h-113v370zM143.5 641q27.5 31 69.5 31q19 0 36 -7t40 -21q12 -7 24 -13t21 -6q14 0 20.5 12.5
t8.5 38.5h70q0 -58 -28.5 -89.5t-71.5 -31.5q-21 0 -40.5 8.5t-41.5 22.5q-27 16 -36 16q-12 0 -20 -13t-9 -34h-70q0 55 27.5 86z" />
    <glyph glyph-name="ograve" unicode="&#xf2;" horiz-adv-x="572" 
d="M100.5 59.5q-67.5 69.5 -67.5 190.5t67.5 190.5t185.5 69.5t185.5 -69.5t67.5 -190.5t-67.5 -190.5t-185.5 -69.5t-185.5 69.5zM388 121.5q37 46.5 37 128.5t-37 128.5t-102 46.5t-102 -46.5t-37 -128.5t37 -128.5t102 -46.5t102 46.5zM136 712h112l83 -157h-91z" />
    <glyph glyph-name="oacute" unicode="&#xf3;" horiz-adv-x="572" 
d="M100.5 59.5q-67.5 69.5 -67.5 190.5t67.5 190.5t185.5 69.5t185.5 -69.5t67.5 -190.5t-67.5 -190.5t-185.5 -69.5t-185.5 69.5zM388 121.5q37 46.5 37 128.5t-37 128.5t-102 46.5t-102 -46.5t-37 -128.5t37 -128.5t102 -46.5t102 46.5zM325 712h111l-103 -157h-91z" />
    <glyph glyph-name="ocircumflex" unicode="&#xf4;" horiz-adv-x="572" 
d="M100.5 59.5q-67.5 69.5 -67.5 190.5t67.5 190.5t185.5 69.5t185.5 -69.5t67.5 -190.5t-67.5 -190.5t-185.5 -69.5t-185.5 69.5zM388 121.5q37 46.5 37 128.5t-37 128.5t-102 46.5t-102 -46.5t-37 -128.5t37 -128.5t102 -46.5t102 46.5zM252 711h68l127 -156h-99l-62 81
l-62 -81h-99z" />
    <glyph glyph-name="otilde" unicode="&#xf5;" horiz-adv-x="572" 
d="M100.5 59.5q-67.5 69.5 -67.5 190.5t67.5 190.5t185.5 69.5t185.5 -69.5t67.5 -190.5t-67.5 -190.5t-185.5 -69.5t-185.5 69.5zM388 121.5q37 46.5 37 128.5t-37 128.5t-102 46.5t-102 -46.5t-37 -128.5t37 -128.5t102 -46.5t102 46.5zM151.5 641q27.5 31 69.5 31
q19 0 36 -7t40 -21q12 -7 24 -13t21 -6q14 0 20.5 12.5t8.5 38.5h70q0 -58 -28.5 -89.5t-71.5 -31.5q-21 0 -40.5 8.5t-41.5 22.5q-27 16 -36 16q-12 0 -20 -13t-9 -34h-70q0 55 27.5 86z" />
    <glyph glyph-name="odieresis" unicode="&#xf6;" horiz-adv-x="572" 
d="M100.5 59.5q-67.5 69.5 -67.5 190.5t67.5 190.5t185.5 69.5t185.5 -69.5t67.5 -190.5t-67.5 -190.5t-185.5 -69.5t-185.5 69.5zM388 121.5q37 46.5 37 128.5t-37 128.5t-102 46.5t-102 -46.5t-37 -128.5t37 -128.5t102 -46.5t102 46.5zM138 572.5q-18 17.5 -18 43.5
t18 43.5t44 17.5t44 -17.5t18 -43.5t-18 -43.5t-44 -17.5t-44 17.5zM346 572.5q-18 17.5 -18 43.5t18 43.5t44 17.5t44 -17.5t18 -43.5t-18 -43.5t-44 -17.5t-44 17.5z" />
    <glyph glyph-name="divide" unicode="&#xf7;" horiz-adv-x="614" 
d="M256 395q-20 19 -20 49q0 29 20.5 48t51.5 19t51 -19t20 -48q0 -30 -20 -49t-51 -19q-32 0 -52 19zM48 306h518v-87h-518v87zM256 33q-20 19 -20 49q0 29 20 47.5t52 18.5q31 0 51 -18.5t20 -47.5q0 -30 -20 -49t-51 -19q-32 0 -52 19z" />
    <glyph glyph-name="oslash" unicode="&#xf8;" horiz-adv-x="572" 
d="M514 378.5q25 -55.5 25 -128.5q0 -121 -67.5 -190.5t-185.5 -69.5q-52 0 -91 13l-25 -46h-81l41 78q-47 33 -72 88t-25 127q0 121 67.5 190.5t185.5 69.5q47 0 88 -12l19 37h85l-37 -69q48 -32 73 -87.5zM179 128l153 290q-20 7 -46 7q-65 0 -102 -46.5t-37 -128.5
q0 -76 32 -122zM388 121.5q37 46.5 37 128.5q0 77 -33 123l-155 -290q24 -8 49 -8q65 0 102 46.5z" />
    <glyph glyph-name="ugrave" unicode="&#xf9;" horiz-adv-x="558" 
d="M97 47q-44 57 -44 169v284h113v-285q0 -68 23 -100.5t71 -32.5q57 0 93.5 43t36.5 107v268h113v-380q0 -55 9 -120h-107q-9 48 -9 88h-3q-20 -45 -64.5 -71.5t-101.5 -26.5q-86 0 -130 57zM135 712h112l83 -157h-91z" />
    <glyph glyph-name="uacute" unicode="&#xfa;" horiz-adv-x="558" 
d="M97 47q-44 57 -44 169v284h113v-285q0 -68 23 -100.5t71 -32.5q57 0 93.5 43t36.5 107v268h113v-380q0 -55 9 -120h-107q-9 48 -9 88h-3q-20 -45 -64.5 -71.5t-101.5 -26.5q-86 0 -130 57zM324 712h111l-103 -157h-91z" />
    <glyph glyph-name="ucircumflex" unicode="&#xfb;" horiz-adv-x="558" 
d="M97 47q-44 57 -44 169v284h113v-285q0 -68 23 -100.5t71 -32.5q57 0 93.5 43t36.5 107v268h113v-380q0 -55 9 -120h-107q-9 48 -9 88h-3q-20 -45 -64.5 -71.5t-101.5 -26.5q-86 0 -130 57zM251 711h68l127 -156h-99l-62 81l-62 -81h-99z" />
    <glyph glyph-name="udieresis" unicode="&#xfc;" horiz-adv-x="558" 
d="M97 47q-44 57 -44 169v284h113v-285q0 -68 23 -100.5t71 -32.5q57 0 93.5 43t36.5 107v268h113v-380q0 -55 9 -120h-107q-9 48 -9 88h-3q-20 -45 -64.5 -71.5t-101.5 -26.5q-86 0 -130 57zM137 572.5q-18 17.5 -18 43.5t18 43.5t44 17.5t44 -17.5t18 -43.5t-18 -43.5
t-44 -17.5t-44 17.5zM345 572.5q-18 17.5 -18 43.5t18 43.5t44 17.5t44 -17.5t18 -43.5t-18 -43.5t-44 -17.5t-44 17.5z" />
    <glyph glyph-name="yacute" unicode="&#xfd;" horiz-adv-x="491" 
d="M478 500l-187 -519q-32 -88 -86.5 -132.5t-128.5 -44.5q-35 0 -73 10v89q22 -8 56 -8q46 0 79 32.5t61 106.5l-186 466h120l118 -342l106 342h121zM288 712h111l-103 -157h-91z" />
    <glyph glyph-name="thorn" unicode="&#xfe;" horiz-adv-x="540" 
d="M52 742h112v-287q19 25 56 40t81 15q96 0 151 -67.5t55 -187.5q0 -80 -26.5 -140t-75.5 -92.5t-115 -32.5q-41 0 -75 13t-51 36v-265h-112v968zM363 123.5q32 48.5 32 131.5q0 80 -30.5 124.5t-85.5 44.5q-52 0 -83.5 -34.5t-31.5 -92.5v-79q0 -67 30 -105t82 -38
q55 0 87 48.5z" />
    <glyph glyph-name="ydieresis" unicode="&#xff;" horiz-adv-x="491" 
d="M478 500l-187 -519q-32 -88 -86.5 -132.5t-128.5 -44.5q-35 0 -73 10v89q22 -8 56 -8q46 0 79 32.5t61 106.5l-186 466h120l118 -342l106 342h121zM101 572.5q-18 17.5 -18 43.5t18 43.5t44 17.5t44 -17.5t18 -43.5t-18 -43.5t-44 -17.5t-44 17.5zM309 572.5
q-18 17.5 -18 43.5t18 43.5t44 17.5t44 -17.5t18 -43.5t-18 -43.5t-44 -17.5t-44 17.5z" />
    <glyph glyph-name="Amacron" unicode="&#x100;" horiz-adv-x="626" 
d="M439 128h-251l-39 -128h-133l241 700h113l241 -700h-133zM408 229l-94 306l-95 -306h189zM147 845h332v-76h-332v76z" />
    <glyph glyph-name="amacron" unicode="&#x101;" horiz-adv-x="524" 
d="M115.5 10.5q-38.5 20.5 -60 56.5t-21.5 81q0 76 59.5 117t168.5 41h87v23q0 45 -26 69t-73 24q-45 0 -84.5 -16.5t-65.5 -47.5l-52 67q38 41 92 63t114 22q98 0 153 -46.5t55 -130.5v-230q0 -21 4 -50.5t9 -52.5h-101q-9 21 -13 63h-2q-58 -73 -156 -73q-49 0 -87.5 20.5
zM314.5 103.5q34.5 27.5 34.5 67.5v58h-90q-55 0 -84.5 -21t-29.5 -60q0 -34 22 -53t62 -19q51 0 85.5 27.5zM93 645h332v-76h-332v76z" />
    <glyph glyph-name="Abreve" unicode="&#x102;" horiz-adv-x="626" 
d="M439 128h-251l-39 -128h-133l241 700h113l241 -700h-133zM408 229l-94 306l-95 -306h189zM198.5 792q-41.5 37 -42.5 109h75q2 -35 22.5 -54.5t59.5 -19.5q37 0 59 19t23 55h75q-1 -70 -41 -108t-116 -38q-73 0 -114.5 37z" />
    <glyph glyph-name="abreve" unicode="&#x103;" horiz-adv-x="524" 
d="M115.5 10.5q-38.5 20.5 -60 56.5t-21.5 81q0 76 59.5 117t168.5 41h87v23q0 45 -26 69t-73 24q-45 0 -84.5 -16.5t-65.5 -47.5l-52 67q38 41 92 63t114 22q98 0 153 -46.5t55 -130.5v-230q0 -21 4 -50.5t9 -52.5h-101q-9 21 -13 63h-2q-58 -73 -156 -73q-49 0 -87.5 20.5
zM314.5 103.5q34.5 27.5 34.5 67.5v58h-90q-55 0 -84.5 -21t-29.5 -60q0 -34 22 -53t62 -19q51 0 85.5 27.5zM144.5 592q-41.5 37 -42.5 109h75q2 -35 22.5 -54.5t59.5 -19.5q37 0 59 19t23 55h75q-1 -70 -41 -108t-116 -38q-73 0 -114.5 37z" />
    <glyph glyph-name="Aogonek" unicode="&#x104;" horiz-adv-x="626" 
d="M628 -190q-19 -17 -46 -27t-56 -10q-50 0 -79 25.5t-29 73.5q0 79 91 128h-31l-39 128h-251l-39 -128h-133l241 700h113l241 -700h-25q-86 -59 -86 -113q0 -17 13 -28.5t40 -11.5q21 0 59 15zM408 229l-94 306l-95 -306h189z" />
    <glyph glyph-name="aogonek" unicode="&#x105;" horiz-adv-x="524" 
d="M501 -190q-19 -17 -46 -27t-56 -10q-50 0 -79 25.5t-29 73.5q0 79 91 128h-8q-9 21 -13 63h-2q-58 -73 -156 -73q-49 0 -87.5 20.5t-60 56.5t-21.5 81q0 76 59.5 117t168.5 41h87v23q0 45 -26 69t-73 24q-45 0 -84.5 -16.5t-65.5 -47.5l-52 67q38 41 92 63t114 22
q98 0 153 -46.5t55 -130.5v-230q0 -21 4 -50.5t9 -52.5h-16q-86 -59 -86 -113q0 -17 13 -28.5t40 -11.5q21 0 59 15zM349 229h-90q-55 0 -84.5 -21t-29.5 -60q0 -34 22 -53t62 -19q51 0 85.5 27.5t34.5 67.5v58z" />
    <glyph glyph-name="Cacute" unicode="&#x106;" horiz-adv-x="608" 
d="M181.5 34q-71.5 44 -110.5 125.5t-39 190.5q0 110 39 191t111 125t169 44q81 0 142 -31t90 -87l-72 -65q-54 81 -159 81q-93 0 -143 -66.5t-50 -191.5q0 -124 49 -191t140 -67q111 0 163 82l72 -65q-29 -57 -90 -88t-144 -31q-96 0 -167.5 44zM388 912h111l-103 -157h-91
z" />
    <glyph glyph-name="cacute" unicode="&#x107;" horiz-adv-x="486" 
d="M94.5 59q-64.5 69 -64.5 191t64.5 191t179.5 69q67 0 118 -25.5t79 -72.5l-68 -60q-20 33 -53 51.5t-71 18.5q-64 0 -100 -45.5t-36 -126.5q0 -80 36 -126t100 -46q38 0 71 19t53 52l68 -60q-28 -48 -78.5 -73.5t-118.5 -25.5q-115 0 -179.5 69zM318 712h111l-103 -157
h-91z" />
    <glyph glyph-name="Ccircumflex" unicode="&#x108;" horiz-adv-x="608" 
d="M181.5 34q-71.5 44 -110.5 125.5t-39 190.5q0 110 39 191t111 125t169 44q81 0 142 -31t90 -87l-72 -65q-54 81 -159 81q-93 0 -143 -66.5t-50 -191.5q0 -124 49 -191t140 -67q111 0 163 82l72 -65q-29 -57 -90 -88t-144 -31q-96 0 -167.5 44zM315 911h68l127 -156h-99
l-62 81l-62 -81h-99z" />
    <glyph glyph-name="ccircumflex" unicode="&#x109;" horiz-adv-x="486" 
d="M94.5 59q-64.5 69 -64.5 191t64.5 191t179.5 69q67 0 118 -25.5t79 -72.5l-68 -60q-20 33 -53 51.5t-71 18.5q-64 0 -100 -45.5t-36 -126.5q0 -80 36 -126t100 -46q38 0 71 19t53 52l68 -60q-28 -48 -78.5 -73.5t-118.5 -25.5q-115 0 -179.5 69zM245 711h68l127 -156h-99
l-62 81l-62 -81h-99z" />
    <glyph glyph-name="Cdotaccent" unicode="&#x10a;" horiz-adv-x="608" 
d="M181.5 34q-71.5 44 -110.5 125.5t-39 190.5q0 110 39 191t111 125t169 44q81 0 142 -31t90 -87l-72 -65q-54 81 -159 81q-93 0 -143 -66.5t-50 -191.5q0 -124 49 -191t140 -67q111 0 163 82l72 -65q-29 -57 -90 -88t-144 -31q-96 0 -167.5 44zM304.5 772.5
q-17.5 17.5 -17.5 43.5t17.5 43.5t44.5 17.5t44.5 -17.5t17.5 -43.5t-17.5 -43.5t-44.5 -17.5t-44.5 17.5z" />
    <glyph glyph-name="cdotaccent" unicode="&#x10b;" horiz-adv-x="486" 
d="M94.5 59q-64.5 69 -64.5 191t64.5 191t179.5 69q67 0 118 -25.5t79 -72.5l-68 -60q-20 33 -53 51.5t-71 18.5q-64 0 -100 -45.5t-36 -126.5q0 -80 36 -126t100 -46q38 0 71 19t53 52l68 -60q-28 -48 -78.5 -73.5t-118.5 -25.5q-115 0 -179.5 69zM234.5 572.5
q-17.5 17.5 -17.5 43.5t17.5 43.5t44.5 17.5t44.5 -17.5t17.5 -43.5t-17.5 -43.5t-44.5 -17.5t-44.5 17.5z" />
    <glyph glyph-name="Ccaron" unicode="&#x10c;" horiz-adv-x="608" 
d="M181.5 34q-71.5 44 -110.5 125.5t-39 190.5q0 110 39 191t111 125t169 44q81 0 142 -31t90 -87l-72 -65q-54 81 -159 81q-93 0 -143 -66.5t-50 -191.5q0 -124 49 -191t140 -67q111 0 163 82l72 -65q-29 -57 -90 -88t-144 -31q-96 0 -167.5 44zM188 911h99l62 -82l62 82
h99l-127 -156h-68z" />
    <glyph glyph-name="ccaron" unicode="&#x10d;" horiz-adv-x="486" 
d="M94.5 59q-64.5 69 -64.5 191t64.5 191t179.5 69q67 0 118 -25.5t79 -72.5l-68 -60q-20 33 -53 51.5t-71 18.5q-64 0 -100 -45.5t-36 -126.5q0 -80 36 -126t100 -46q38 0 71 19t53 52l68 -60q-28 -48 -78.5 -73.5t-118.5 -25.5q-115 0 -179.5 69zM118 711h99l62 -82l62 82
h99l-127 -156h-68z" />
    <glyph glyph-name="Dcaron" unicode="&#x10e;" horiz-adv-x="636" 
d="M73 700h240q141 0 212.5 -84.5t71.5 -251.5q0 -130 -32 -210t-100 -117t-179 -37h-213v700zM301 102q91 0 130.5 61t39.5 201q0 123 -38.5 178.5t-122.5 55.5h-111v-496h102zM157 911h99l62 -82l62 82h99l-127 -156h-68z" />
    <glyph glyph-name="dcaron" unicode="&#x10f;" horiz-adv-x="716" 
d="M86 62q-56 72 -56 197q0 76 26 132.5t74 87.5t113 31q89 0 140 -66h2v298h113v-611q0 -101 3 -131h-106q-2 20 -2 71h-2q-23 -36 -64.5 -58.5t-86.5 -22.5q-98 0 -154 72zM350.5 111q33.5 33 33.5 89v99q0 55 -34.5 90.5t-88.5 35.5q-57 0 -87.5 -44t-30.5 -124
q0 -85 31 -132t87 -47t89.5 33zM686 744q20 -21 20 -55q0 -37 -20.5 -78.5t-53.5 -71.5l-45 35q30 38 41 63q-26 2 -43 19.5t-17 43.5q0 29 18 47t47 18q33 0 53 -21z" />
    <glyph glyph-name="Dcroat" unicode="&#x110;" horiz-adv-x="640" 
d="M530 615.5q71 -84.5 71 -251.5q0 -131 -31.5 -210.5t-99.5 -116.5t-180 -37h-213v291h-68v93h68v316h241q141 0 212 -84.5zM435.5 163q39.5 61 39.5 201q0 123 -38 178.5t-123 55.5h-110v-214h175v-93h-175v-189h102q90 0 129.5 61z" />
    <glyph glyph-name="dcroat" unicode="&#x111;" horiz-adv-x="577" 
d="M498 590v-459q0 -101 3 -131h-106q-2 20 -2 71h-2q-23 -36 -64.5 -58.5t-86.5 -22.5q-98 0 -154 72t-56 197q0 76 26 132.5t74 87.5t113 31q89 0 140 -66h2v146h-141v77h141v75h113v-75h59v-77h-59zM384 299q0 55 -34.5 90.5t-88.5 35.5q-57 0 -87.5 -44t-30.5 -124
q0 -85 31 -132t87 -47t89.5 33t33.5 89v99z" />
    <glyph glyph-name="Emacron" unicode="&#x112;" horiz-adv-x="565" 
d="M73 700h449v-102h-323v-179h289v-102h-289v-215h323v-102h-449v700zM135 845h332v-76h-332v76z" />
    <glyph glyph-name="emacron" unicode="&#x113;" horiz-adv-x="534" 
d="M501 208h-352q17 -122 133 -122q44 0 78 16t63 50l62 -59q-29 -47 -85.5 -75t-123.5 -28q-115 0 -179 68.5t-64 190.5t64.5 191.5t176.5 69.5q107 0 167 -69t60 -191v-42zM392 293q0 59 -32 92t-89 33q-52 0 -83.5 -34.5t-39.5 -96.5h244v6zM105 645h332v-76h-332v76z
" />
    <glyph glyph-name="Ebreve" unicode="&#x114;" horiz-adv-x="565" 
d="M73 700h449v-102h-323v-179h289v-102h-289v-215h323v-102h-449v700zM186.5 792q-41.5 37 -42.5 109h75q2 -35 22.5 -54.5t59.5 -19.5q37 0 59 19t23 55h75q-1 -70 -41 -108t-116 -38q-73 0 -114.5 37z" />
    <glyph glyph-name="ebreve" unicode="&#x115;" horiz-adv-x="534" 
d="M501 208h-352q17 -122 133 -122q44 0 78 16t63 50l62 -59q-29 -47 -85.5 -75t-123.5 -28q-115 0 -179 68.5t-64 190.5t64.5 191.5t176.5 69.5q107 0 167 -69t60 -191v-42zM392 293q0 59 -32 92t-89 33q-52 0 -83.5 -34.5t-39.5 -96.5h244v6zM156.5 592
q-41.5 37 -42.5 109h75q2 -35 22.5 -54.5t59.5 -19.5q37 0 59 19t23 55h75q-1 -70 -41 -108t-116 -38q-73 0 -114.5 37z" />
    <glyph glyph-name="Edotaccent" unicode="&#x116;" horiz-adv-x="565" 
d="M73 700h449v-102h-323v-179h289v-102h-289v-215h323v-102h-449v700zM256.5 772.5q-17.5 17.5 -17.5 43.5t17.5 43.5t44.5 17.5t44.5 -17.5t17.5 -43.5t-17.5 -43.5t-44.5 -17.5t-44.5 17.5z" />
    <glyph glyph-name="edotaccent" unicode="&#x117;" horiz-adv-x="534" 
d="M501 208h-352q17 -122 133 -122q44 0 78 16t63 50l62 -59q-29 -47 -85.5 -75t-123.5 -28q-115 0 -179 68.5t-64 190.5t64.5 191.5t176.5 69.5q107 0 167 -69t60 -191v-42zM392 293q0 59 -32 92t-89 33q-52 0 -83.5 -34.5t-39.5 -96.5h244v6zM226.5 572.5
q-17.5 17.5 -17.5 43.5t17.5 43.5t44.5 17.5t44.5 -17.5t17.5 -43.5t-17.5 -43.5t-44.5 -17.5t-44.5 17.5z" />
    <glyph glyph-name="Eogonek" unicode="&#x118;" horiz-adv-x="565" 
d="M564 -190q-19 -17 -46 -27t-56 -10q-50 0 -79 25.5t-29 73.5q0 79 91 128h-372v700h449v-102h-323v-179h289v-102h-289v-215h323v-102q-86 -59 -86 -113q0 -17 13 -28.5t40 -11.5q21 0 59 15z" />
    <glyph glyph-name="eogonek" unicode="&#x119;" horiz-adv-x="534" 
d="M501 208h-352q17 -122 133 -122q44 0 78 16t63 50l62 -59q-24 -39 -67 -65q-52 -44 -52 -87q0 -17 13 -28.5t40 -11.5q21 0 58 15l16 -52q-18 -17 -45 -27t-56 -10q-51 0 -79.5 25t-28.5 74q0 37 19 65q-9 -1 -27 -1q-115 0 -179 68.5t-64 190.5t64.5 191.5t176.5 69.5
q107 0 167 -69t60 -191v-42zM392 293q0 59 -32 92t-89 33q-52 0 -83.5 -34.5t-39.5 -96.5h244v6z" />
    <glyph glyph-name="Ecaron" unicode="&#x11a;" horiz-adv-x="565" 
d="M73 700h449v-102h-323v-179h289v-102h-289v-215h323v-102h-449v700zM140 911h99l62 -82l62 82h99l-127 -156h-68z" />
    <glyph glyph-name="ecaron" unicode="&#x11b;" horiz-adv-x="534" 
d="M501 208h-352q17 -122 133 -122q44 0 78 16t63 50l62 -59q-29 -47 -85.5 -75t-123.5 -28q-115 0 -179 68.5t-64 190.5t64.5 191.5t176.5 69.5q107 0 167 -69t60 -191v-42zM392 293q0 59 -32 92t-89 33q-52 0 -83.5 -34.5t-39.5 -96.5h244v6zM110 711h99l62 -82l62 82h99
l-127 -156h-68z" />
    <glyph glyph-name="Gcircumflex" unicode="&#x11c;" horiz-adv-x="648" 
d="M594 374v-374h-93l-14 41q-66 -51 -162 -51q-91 0 -157 43t-101 124t-35 193q0 109 39 190.5t110.5 125.5t167.5 44q83 0 145 -31t91 -87l-71 -65q-25 40 -67 60.5t-96 20.5q-92 0 -142 -67t-50 -191q0 -128 47 -196.5t134 -68.5q77 0 129 37v162h-156v90h281zM310 911
h68l127 -156h-99l-62 81l-62 -81h-99z" />
    <glyph glyph-name="gcircumflex" unicode="&#x11d;" horiz-adv-x="550" 
d="M498 500v-481q0 -124 -62 -188t-182 -64q-56 0 -106 13t-89 38l37 78q36 -18 76 -28t77 -10q141 0 141 177v26q-20 -31 -57 -48t-86 -17q-103 0 -160 69t-57 192q0 120 55.5 186.5t154.5 66.5q51 0 90 -19.5t62 -56.5h2l9 66h95zM384 282q0 68 -30.5 105.5t-86.5 37.5
q-59 0 -91.5 -44t-32.5 -126t32 -126.5t91 -44.5q56 0 87 34t31 96v68zM228 711h68l127 -156h-99l-62 81l-62 -81h-99z" />
    <glyph glyph-name="Gbreve" unicode="&#x11e;" horiz-adv-x="648" 
d="M594 374v-374h-93l-14 41q-66 -51 -162 -51q-91 0 -157 43t-101 124t-35 193q0 109 39 190.5t110.5 125.5t167.5 44q83 0 145 -31t91 -87l-71 -65q-25 40 -67 60.5t-96 20.5q-92 0 -142 -67t-50 -191q0 -128 47 -196.5t134 -68.5q77 0 129 37v162h-156v90h281zM229.5 792
q-41.5 37 -42.5 109h75q2 -35 22.5 -54.5t59.5 -19.5q37 0 59 19t23 55h75q-1 -70 -41 -108t-116 -38q-73 0 -114.5 37z" />
    <glyph glyph-name="gbreve" unicode="&#x11f;" horiz-adv-x="550" 
d="M498 500v-481q0 -124 -62 -188t-182 -64q-56 0 -106 13t-89 38l37 78q36 -18 76 -28t77 -10q141 0 141 177v26q-20 -31 -57 -48t-86 -17q-103 0 -160 69t-57 192q0 120 55.5 186.5t154.5 66.5q51 0 90 -19.5t62 -56.5h2l9 66h95zM384 282q0 68 -30.5 105.5t-86.5 37.5
q-59 0 -91.5 -44t-32.5 -126t32 -126.5t91 -44.5q56 0 87 34t31 96v68zM147.5 592q-41.5 37 -42.5 109h75q2 -35 22.5 -54.5t59.5 -19.5q37 0 59 19t23 55h75q-1 -70 -41 -108t-116 -38q-73 0 -114.5 37z" />
    <glyph glyph-name="Gdotaccent" unicode="&#x120;" horiz-adv-x="648" 
d="M594 374v-374h-93l-14 41q-66 -51 -162 -51q-91 0 -157 43t-101 124t-35 193q0 109 39 190.5t110.5 125.5t167.5 44q83 0 145 -31t91 -87l-71 -65q-25 40 -67 60.5t-96 20.5q-92 0 -142 -67t-50 -191q0 -128 47 -196.5t134 -68.5q77 0 129 37v162h-156v90h281z
M299.5 772.5q-17.5 17.5 -17.5 43.5t17.5 43.5t44.5 17.5t44.5 -17.5t17.5 -43.5t-17.5 -43.5t-44.5 -17.5t-44.5 17.5z" />
    <glyph glyph-name="gdotaccent" unicode="&#x121;" horiz-adv-x="550" 
d="M498 500v-481q0 -124 -62 -188t-182 -64q-56 0 -106 13t-89 38l37 78q36 -18 76 -28t77 -10q141 0 141 177v26q-20 -31 -57 -48t-86 -17q-103 0 -160 69t-57 192q0 120 55.5 186.5t154.5 66.5q51 0 90 -19.5t62 -56.5h2l9 66h95zM384 282q0 68 -30.5 105.5t-86.5 37.5
q-59 0 -91.5 -44t-32.5 -126t32 -126.5t91 -44.5q56 0 87 34t31 96v68zM217.5 572.5q-17.5 17.5 -17.5 43.5t17.5 43.5t44.5 17.5t44.5 -17.5t17.5 -43.5t-17.5 -43.5t-44.5 -17.5t-44.5 17.5z" />
    <glyph glyph-name="uni0122" unicode="&#x122;" horiz-adv-x="648" 
d="M594 374v-374h-93l-14 41q-66 -51 -162 -51q-91 0 -157 43t-101 124t-35 193q0 109 39 190.5t110.5 125.5t167.5 44q83 0 145 -31t91 -87l-71 -65q-25 40 -67 60.5t-96 20.5q-92 0 -142 -67t-50 -191q0 -128 47 -196.5t134 -68.5q77 0 129 37v162h-156v90h281zM394 -93
q20 -21 20 -55q0 -37 -20.5 -78.5t-53.5 -71.5l-46 35q29 38 42 63q-27 2 -44 19t-17 44q0 29 18 47t47 18q34 0 54 -21z" />
    <glyph glyph-name="uni0123" unicode="&#x123;" horiz-adv-x="550" 
d="M498 500v-481q0 -124 -62 -188t-182 -64q-56 0 -106 13t-89 38l37 78q36 -18 76 -28t77 -10q141 0 141 177v26q-20 -31 -57 -48t-86 -17q-103 0 -160 69t-57 192q0 120 55.5 186.5t154.5 66.5q51 0 90 -19.5t62 -56.5h2l9 66h95zM384 282q0 68 -30.5 105.5t-86.5 37.5
q-59 0 -91.5 -44t-32.5 -126t32 -126.5t91 -44.5q56 0 87 34t31 96v68zM316 663.5q17 -17.5 17 -43.5q0 -29 -18 -47t-47 -18q-33 0 -53 21t-20 55q0 37 20.5 78t53.5 71l45 -34q-3 -4 -17 -23t-24 -40q26 -2 43 -19.5z" />
    <glyph glyph-name="Hcircumflex" unicode="&#x124;" horiz-adv-x="688" 
d="M72 700h127v-293h290v293h127v-700h-127v305h-290v-305h-127v700zM310 911h68l127 -156h-99l-62 81l-62 -81h-99z" />
    <glyph glyph-name="hcircumflex" unicode="&#x125;" horiz-adv-x="564" 
d="M53 742h113v-307q23 35 66 55t93 20q86 0 136.5 -57t50.5 -157v-296h-114v290q0 64 -26.5 99.5t-74.5 35.5q-59 0 -95 -42t-36 -110v-273h-113v742zM181 953h68l127 -156h-99l-62 81l-62 -81h-99z" />
    <glyph glyph-name="Hbar" unicode="&#x126;" horiz-adv-x="706" 
d="M685 498h-60v-498h-127v305h-290v-305h-127v498h-60v80h60v122h127v-122h290v122h127v-122h60v-80zM498 498h-290v-91h290v91z" />
    <glyph glyph-name="hbar" unicode="&#x127;" horiz-adv-x="564" 
d="M461.5 453q50.5 -57 50.5 -157v-296h-114v290q0 64 -26.5 99.5t-74.5 35.5q-59 0 -95 -42t-36 -110v-273h-113v590h-59v77h59v75h113v-75h134v-77h-134v-155q23 35 66 55t93 20q86 0 136.5 -57z" />
    <glyph glyph-name="Itilde" unicode="&#x128;" horiz-adv-x="313" 
d="M93 700h127v-700h-127v700zM22.5 841q27.5 31 69.5 31q19 0 36 -7t40 -21q12 -7 24 -13t21 -6q14 0 20.5 12.5t8.5 38.5h70q0 -58 -28.5 -89.5t-71.5 -31.5q-21 0 -40.5 8.5t-41.5 22.5q-27 16 -36 16q-12 0 -20 -13t-9 -34h-70q0 55 27.5 86z" />
    <glyph glyph-name="itilde" unicode="&#x129;" horiz-adv-x="271" 
d="M79 500h113v-500h-113v500zM0.5 641q27.5 31 69.5 31q19 0 36 -7t40 -21q12 -7 24 -13t21 -6q14 0 20.5 12.5t8.5 38.5h70q0 -58 -28.5 -89.5t-71.5 -31.5q-21 0 -40.5 8.5t-41.5 22.5q-27 16 -36 16q-12 0 -20 -13t-9 -34h-70q0 55 27.5 86z" />
    <glyph glyph-name="Imacron" unicode="&#x12a;" horiz-adv-x="313" 
d="M93 700h127v-700h-127v700zM-9 845h332v-76h-332v76z" />
    <glyph glyph-name="imacron" unicode="&#x12b;" horiz-adv-x="271" 
d="M79 500h113v-500h-113v500zM-31 645h332v-76h-332v76z" />
    <glyph glyph-name="Ibreve" unicode="&#x12c;" horiz-adv-x="313" 
d="M93 700h127v-700h-127v700zM42.5 792q-41.5 37 -42.5 109h75q2 -35 22.5 -54.5t59.5 -19.5q37 0 59 19t23 55h75q-1 -70 -41 -108t-116 -38q-73 0 -114.5 37z" />
    <glyph glyph-name="ibreve" unicode="&#x12d;" horiz-adv-x="271" 
d="M79 500h113v-500h-113v500zM20.5 592q-41.5 37 -42.5 109h75q2 -35 22.5 -54.5t59.5 -19.5q37 0 59 19t23 55h75q-1 -70 -41 -108t-116 -38q-73 0 -114.5 37z" />
    <glyph glyph-name="Iogonek" unicode="&#x12e;" horiz-adv-x="313" 
d="M244 -190q-19 -17 -46 -27t-56 -10q-50 0 -79 25.5t-29 73.5q0 79 91 128h-32v700h127v-700h-18q-86 -59 -86 -113q0 -17 13 -28.5t40 -11.5q21 0 59 15z" />
    <glyph glyph-name="iogonek" unicode="&#x12f;" horiz-adv-x="264" 
d="M77.5 586.5q-20.5 18.5 -20.5 49.5q0 32 20.5 50.5t54.5 18.5t54.5 -18.5t20.5 -50.5q0 -31 -20.5 -49.5t-54.5 -18.5t-54.5 18.5zM216 -190q-19 -17 -46 -27t-56 -10q-50 0 -79 25.5t-29 73.5q0 79 91 128h-22v500h114v-500h-15q-86 -59 -86 -113q0 -17 13 -28.5
t40 -11.5q21 0 59 15z" />
    <glyph glyph-name="Idotaccent" unicode="&#x130;" horiz-adv-x="313" 
d="M93 700h127v-700h-127v700zM112.5 772.5q-17.5 17.5 -17.5 43.5t17.5 43.5t44.5 17.5t44.5 -17.5t17.5 -43.5t-17.5 -43.5t-44.5 -17.5t-44.5 17.5z" />
    <glyph glyph-name="dotlessi" unicode="&#x131;" horiz-adv-x="271" 
d="M79 500h113v-500h-113v500z" />
    <glyph glyph-name="IJ" unicode="&#x132;" horiz-adv-x="787" 
d="M93 700h127v-700h-127v700zM398.5 7.5q-47.5 17.5 -79.5 47.5l50 87q25 -23 57.5 -36.5t65.5 -13.5q52 0 75 35t23 114v459h126v-476q0 -119 -53 -176.5t-165 -57.5q-52 0 -99.5 17.5z" />
    <glyph glyph-name="ij" unicode="&#x133;" horiz-adv-x="532" 
d="M77.5 586.5q-20.5 18.5 -20.5 49.5q0 32 20.5 50.5t54.5 18.5t54.5 -18.5t20.5 -50.5q0 -31 -20.5 -49.5t-54.5 -18.5t-54.5 18.5zM75 500h114v-500h-114v500zM354 587q-21 19 -21 49q0 31 21 50t55 19q33 0 54 -19t21 -50q0 -30 -21 -49t-54 -19q-34 0 -55 19zM205 -190
l5 81q20 -3 56 -3q47 0 68 23t21 72v517h113v-517q0 -183 -177 -183q-44 0 -86 10z" />
    <glyph glyph-name="Jcircumflex" unicode="&#x134;" horiz-adv-x="475" 
d="M85.5 7.5q-47.5 17.5 -79.5 47.5l50 87q25 -23 57.5 -36.5t65.5 -13.5q52 0 75 35t23 114v459h126v-476q0 -119 -53 -176.5t-165 -57.5q-52 0 -99.5 17.5zM221 911h68l127 -156h-99l-62 81l-62 -81h-99z" />
    <glyph glyph-name="jcircumflex" unicode="&#x135;" horiz-adv-x="267" 
d="M-59 -190l5 81q23 -3 56 -3q41 0 60 23.5t19 71.5v517h112v-517q0 -89 -40 -136t-127 -47q-47 0 -85 10zM104 711h68l127 -156h-99l-62 81l-62 -81h-99z" />
    <glyph glyph-name="uni0136" unicode="&#x136;" horiz-adv-x="639" 
d="M489 0l-198 325l-92 -112v-213h-127v700h127v-321l249 321h148l-222 -272l254 -428h-139zM376 -93q20 -21 20 -55q0 -37 -20.5 -78.5t-53.5 -71.5l-46 35q29 38 42 63q-27 2 -44 19t-17 44q0 29 18 47t47 18q34 0 54 -21z" />
    <glyph glyph-name="uni0137" unicode="&#x137;" horiz-adv-x="518" 
d="M385 0l-153 239l-65 -63v-176h-113v742h113v-430l191 188h139l-188 -184l205 -316h-129zM312 -93q20 -21 20 -55q0 -37 -20.5 -78.5t-53.5 -71.5l-46 35q29 38 42 63q-27 2 -44 19t-17 44q0 29 18 47t47 18q34 0 54 -21z" />
    <glyph glyph-name="kgreenlandic" unicode="&#x138;" horiz-adv-x="518" 
d="M385 0l-142 226l-76 -82v-144h-113v500h113v-218l192 218h138l-179 -193l196 -307h-129z" />
    <glyph glyph-name="Lacute" unicode="&#x139;" horiz-adv-x="559" 
d="M72 700h127v-598h332v-102h-459v700zM175 912h111l-103 -157h-91z" />
    <glyph glyph-name="lacute" unicode="&#x13a;" horiz-adv-x="298" 
d="M92.5 23.5q-31.5 33.5 -31.5 98.5v620h114v-621q0 -27 11 -38.5t36 -11.5t55 13l17 -63q-43 -31 -109 -31q-61 0 -92.5 33.5zM157 954h111l-103 -157h-91z" />
    <glyph glyph-name="uni013B" unicode="&#x13b;" horiz-adv-x="559" 
d="M72 700h127v-598h332v-102h-459v700zM350 -93q20 -21 20 -55q0 -37 -20.5 -78.5t-53.5 -71.5l-46 35q29 38 42 63q-27 2 -44 19t-17 44q0 29 18 47t47 18q34 0 54 -21z" />
    <glyph glyph-name="uni013C" unicode="&#x13c;" horiz-adv-x="298" 
d="M92.5 23.5q-31.5 33.5 -31.5 98.5v620h114v-621q0 -27 11 -38.5t36 -11.5t55 13l17 -63q-43 -31 -109 -31q-61 0 -92.5 33.5zM235 -93q20 -21 20 -55q0 -37 -20.5 -78.5t-53.5 -71.5l-46 35q29 38 42 63q-27 2 -44 19t-17 44q0 29 18 47t47 18q34 0 54 -21z" />
    <glyph glyph-name="Lcaron" unicode="&#x13d;" horiz-adv-x="559" 
d="M72 700h127v-598h332v-102h-459v700zM483 689q20 -21 20 -55q0 -37 -20.5 -78.5t-53.5 -71.5l-45 35q30 38 41 63q-26 2 -43 19.5t-17 43.5q0 29 18 47t47 18q33 0 53 -21z" />
    <glyph glyph-name="lcaron" unicode="&#x13e;" horiz-adv-x="369" 
d="M92.5 23.5q-31.5 33.5 -31.5 98.5v620h114v-621q0 -27 11 -38.5t36 -11.5t55 13l17 -63q-43 -31 -109 -31q-61 0 -92.5 33.5zM361 723q20 -21 20 -55q0 -37 -20.5 -78.5t-53.5 -71.5l-45 35q30 38 41 63q-26 2 -43 19.5t-17 43.5q0 29 18 47t47 18q33 0 53 -21z" />
    <glyph glyph-name="Ldot" unicode="&#x13f;" horiz-adv-x="559" 
d="M72 700h127v-598h332v-102h-459v700zM300.5 290q-21.5 22 -21.5 57t21.5 57t55.5 22t55.5 -22t21.5 -57t-21.5 -57t-55.5 -22t-55.5 22z" />
    <glyph glyph-name="ldot" unicode="&#x140;" horiz-adv-x="386" 
d="M92.5 23.5q-31.5 33.5 -31.5 98.5v620h114v-621q0 -27 11 -38.5t36 -11.5t55 13l17 -63q-43 -31 -109 -31q-61 0 -92.5 33.5zM241.5 278q-21.5 22 -21.5 57t21.5 57t55.5 22t55.5 -22t21.5 -57t-21.5 -57t-55.5 -22t-55.5 22z" />
    <glyph glyph-name="Lslash" unicode="&#x141;" horiz-adv-x="559" 
d="M531 102v-102h-459v262l-64 -26v99l64 27v338h127v-284l162 69v-103l-162 -67v-213h332z" />
    <glyph glyph-name="lslash" unicode="&#x142;" horiz-adv-x="315" 
d="M300 21q-43 -31 -109 -31q-61 0 -92.5 33.5t-31.5 98.5v190l-48 -20v84l48 20v346h114v-298l96 41v-84l-96 -41v-239q0 -27 11 -38.5t36 -11.5t55 13z" />
    <glyph glyph-name="Nacute" unicode="&#x143;" horiz-adv-x="693" 
d="M621 700v-700h-118l-305 491v-491h-126v700h125l298 -483v483h126zM386 912h111l-103 -157h-91z" />
    <glyph glyph-name="nacute" unicode="&#x144;" horiz-adv-x="559" 
d="M52 370q0 93 -4 130h106q5 -47 5 -88h2q19 45 65 71.5t102 26.5q87 0 131 -57.5t44 -170.5v-282h-114v283q0 70 -22.5 103t-71.5 33q-58 0 -94 -40.5t-36 -104.5v-274h-113v370zM317 712h111l-103 -157h-91z" />
    <glyph glyph-name="uni0145" unicode="&#x145;" horiz-adv-x="693" 
d="M621 700v-700h-118l-305 491v-491h-126v700h125l298 -483v483h126zM400 -93q20 -21 20 -55q0 -37 -20.5 -78.5t-53.5 -71.5l-46 35q29 38 42 63q-27 2 -44 19t-17 44q0 29 18 47t47 18q34 0 54 -21z" />
    <glyph glyph-name="uni0146" unicode="&#x146;" horiz-adv-x="559" 
d="M52 370q0 93 -4 130h106q5 -47 5 -88h2q19 45 65 71.5t102 26.5q87 0 131 -57.5t44 -170.5v-282h-114v283q0 70 -22.5 103t-71.5 33q-58 0 -94 -40.5t-36 -104.5v-274h-113v370zM331 -93q20 -21 20 -55q0 -37 -20.5 -78.5t-53.5 -71.5l-46 35q29 38 42 63q-27 2 -44 19
t-17 44q0 29 18 47t47 18q34 0 54 -21z" />
    <glyph glyph-name="Ncaron" unicode="&#x147;" horiz-adv-x="693" 
d="M621 700v-700h-118l-305 491v-491h-126v700h125l298 -483v483h126zM186 911h99l62 -82l62 82h99l-127 -156h-68z" />
    <glyph glyph-name="ncaron" unicode="&#x148;" horiz-adv-x="559" 
d="M52 370q0 93 -4 130h106q5 -47 5 -88h2q19 45 65 71.5t102 26.5q87 0 131 -57.5t44 -170.5v-282h-114v283q0 70 -22.5 103t-71.5 33q-58 0 -94 -40.5t-36 -104.5v-274h-113v370zM117 711h99l62 -82l62 82h99l-127 -156h-68z" />
    <glyph glyph-name="napostrophe" unicode="&#x149;" horiz-adv-x="666" 
d="M129 689q20 -21 20 -55q0 -37 -20.5 -78.5t-53.5 -71.5l-45 35q30 38 41 63q-26 2 -43 19.5t-17 43.5q0 29 18 47t47 18q33 0 53 -21zM159 370q0 93 -4 130h106q5 -47 5 -88h2q19 45 65 71.5t102 26.5q87 0 131 -57.5t44 -170.5v-282h-114v283q0 70 -22.5 103t-71.5 33
q-58 0 -94 -40.5t-36 -104.5v-274h-113v370z" />
    <glyph glyph-name="Eng" unicode="&#x14a;" horiz-adv-x="693" 
d="M72 700h125l298 -484v484h126v-757q0 -105 -50.5 -158.5t-149.5 -53.5q-43 0 -81 12.5t-65 35.5l41 79q49 -35 97 -35q43 0 63.5 29.5t20.5 92.5v65l-299 482v-492h-126v700z" />
    <glyph glyph-name="eng" unicode="&#x14b;" horiz-adv-x="559" 
d="M250 -190l5 81q18 -3 55 -3q41 0 60 22.5t19 72.5v300q0 70 -22.5 103t-71.5 33q-58 0 -94 -40.5t-36 -104.5v-274h-113v370q0 93 -4 130h106q5 -47 5 -88h2q19 45 65 71.5t102 26.5q87 0 131 -57.5t44 -170.5v-299q0 -183 -168 -183q-48 0 -85 10z" />
    <glyph glyph-name="Omacron" unicode="&#x14c;" horiz-adv-x="681" 
d="M176 33.5q-70 43.5 -107 124.5t-37 192t37 192t107 124.5t165 43.5t164.5 -43.5t106.5 -124.5t37 -192t-37 -192t-106.5 -124.5t-164.5 -43.5t-165 43.5zM473.5 160q48.5 69 48.5 190t-48.5 190.5t-132.5 69.5q-85 0 -133.5 -69.5t-48.5 -190.5t48.5 -190t133.5 -69
q84 0 132.5 69zM175 845h332v-76h-332v76z" />
    <glyph glyph-name="omacron" unicode="&#x14d;" horiz-adv-x="572" 
d="M100.5 59.5q-67.5 69.5 -67.5 190.5t67.5 190.5t185.5 69.5t185.5 -69.5t67.5 -190.5t-67.5 -190.5t-185.5 -69.5t-185.5 69.5zM388 121.5q37 46.5 37 128.5t-37 128.5t-102 46.5t-102 -46.5t-37 -128.5t37 -128.5t102 -46.5t102 46.5zM120 645h332v-76h-332v76z" />
    <glyph glyph-name="Obreve" unicode="&#x14e;" horiz-adv-x="681" 
d="M176 33.5q-70 43.5 -107 124.5t-37 192t37 192t107 124.5t165 43.5t164.5 -43.5t106.5 -124.5t37 -192t-37 -192t-106.5 -124.5t-164.5 -43.5t-165 43.5zM473.5 160q48.5 69 48.5 190t-48.5 190.5t-132.5 69.5q-85 0 -133.5 -69.5t-48.5 -190.5t48.5 -190t133.5 -69
q84 0 132.5 69zM226.5 792q-41.5 37 -42.5 109h75q2 -35 22.5 -54.5t59.5 -19.5q37 0 59 19t23 55h75q-1 -70 -41 -108t-116 -38q-73 0 -114.5 37z" />
    <glyph glyph-name="obreve" unicode="&#x14f;" horiz-adv-x="572" 
d="M100.5 59.5q-67.5 69.5 -67.5 190.5t67.5 190.5t185.5 69.5t185.5 -69.5t67.5 -190.5t-67.5 -190.5t-185.5 -69.5t-185.5 69.5zM388 121.5q37 46.5 37 128.5t-37 128.5t-102 46.5t-102 -46.5t-37 -128.5t37 -128.5t102 -46.5t102 46.5zM171.5 592q-41.5 37 -42.5 109h75
q2 -35 22.5 -54.5t59.5 -19.5q37 0 59 19t23 55h75q-1 -70 -41 -108t-116 -38q-73 0 -114.5 37z" />
    <glyph glyph-name="Ohungarumlaut" unicode="&#x150;" horiz-adv-x="681" 
d="M176 33.5q-70 43.5 -107 124.5t-37 192t37 192t107 124.5t165 43.5t164.5 -43.5t106.5 -124.5t37 -192t-37 -192t-106.5 -124.5t-164.5 -43.5t-165 43.5zM473.5 160q48.5 69 48.5 190t-48.5 190.5t-132.5 69.5q-85 0 -133.5 -69.5t-48.5 -190.5t48.5 -190t133.5 -69
q84 0 132.5 69zM280 912h112l-104 -157h-91zM441 912h111l-103 -157h-91z" />
    <glyph glyph-name="ohungarumlaut" unicode="&#x151;" horiz-adv-x="572" 
d="M229 699h104l-97 -148h-85zM379 699h104l-96 -148h-86zM100.5 59.5q-67.5 69.5 -67.5 190.5t67.5 190.5t185.5 69.5t185.5 -69.5t67.5 -190.5t-67.5 -190.5t-185.5 -69.5t-185.5 69.5zM388 121.5q37 46.5 37 128.5t-37 128.5t-102 46.5t-102 -46.5t-37 -128.5t37 -128.5
t102 -46.5t102 46.5z" />
    <glyph glyph-name="OE" unicode="&#x152;" horiz-adv-x="887" 
d="M572 599v-184h240v-93h-240v-220h273v-102h-399v43q-65 -53 -151 -53q-127 0 -195 93t-68 267q0 175 67.5 267.5t195.5 92.5q87 0 151 -52v42h399v-101h-273zM409 157q37 66 37 193t-37 193.5t-107 66.5q-73 0 -108.5 -64.5t-35.5 -195.5t35.5 -195t108.5 -64
q70 0 107 66z" />
    <glyph glyph-name="oe" unicode="&#x153;" horiz-adv-x="864" 
d="M831 221h-342q12 -135 128 -135q42 0 74.5 15.5t61.5 50.5l62 -59q-28 -47 -83 -75t-121 -28q-56 0 -101 19.5t-76 56.5q-55 -76 -170 -76q-113 0 -172 66.5t-59 193.5t59 193.5t172 66.5q117 0 171 -77q31 37 75.5 57t99.5 20q106 0 163.5 -65t57.5 -184v-40z
M347.5 119.5q28.5 44.5 28.5 130.5q0 175 -112 175q-59 0 -89 -44.5t-30 -130.5t30.5 -130.5t88.5 -44.5q55 0 83.5 44.5zM720 303q0 55 -29.5 85t-83.5 30q-48 0 -78 -31t-38 -89h229v5z" />
    <glyph glyph-name="Racute" unicode="&#x154;" horiz-adv-x="591" 
d="M73 700h236q117 0 175 -47.5t58 -144.5q0 -69 -31 -118t-88 -69v-2q19 -13 30.5 -27t19.5 -32l103 -260h-134l-83 218q-14 35 -35 47.5t-69 12.5h-56v-278h-126v700zM297 379q60 0 91.5 29t31.5 86q0 104 -125 104h-96v-219h98zM335 912h111l-103 -157h-91z" />
    <glyph glyph-name="racute" unicode="&#x155;" horiz-adv-x="382" 
d="M59 378q0 85 -3 122h107q4 -39 4 -88v-10h3q19 50 65 79t106 29q18 0 30 -3v-90q-10 2 -27 2q-47 0 -86.5 -25.5t-62.5 -69.5t-23 -95v-229h-113v378zM235 712h111l-103 -157h-91z" />
    <glyph glyph-name="uni0156" unicode="&#x156;" horiz-adv-x="591" 
d="M73 700h236q117 0 175 -47.5t58 -144.5q0 -69 -31 -118t-88 -69v-2q19 -13 30.5 -27t19.5 -32l103 -260h-134l-83 218q-14 35 -35 47.5t-69 12.5h-56v-278h-126v700zM297 379q60 0 91.5 29t31.5 86q0 104 -125 104h-96v-219h98zM349 -93q20 -21 20 -55q0 -37 -20.5 -78.5
t-53.5 -71.5l-46 35q29 38 42 63q-27 2 -44 19t-17 44q0 29 18 47t47 18q34 0 54 -21z" />
    <glyph glyph-name="uni0157" unicode="&#x157;" horiz-adv-x="382" 
d="M59 378q0 85 -3 122h107q4 -39 4 -88v-10h3q19 50 65 79t106 29q18 0 30 -3v-90q-10 2 -27 2q-47 0 -86.5 -25.5t-62.5 -69.5t-23 -95v-229h-113v378zM171 -93q20 -21 20 -55q0 -37 -20.5 -78.5t-53.5 -71.5l-46 35q29 38 42 63q-27 2 -44 19t-17 44q0 29 18 47t47 18
q34 0 54 -21z" />
    <glyph glyph-name="Rcaron" unicode="&#x158;" horiz-adv-x="591" 
d="M73 700h236q117 0 175 -47.5t58 -144.5q0 -69 -31 -118t-88 -69v-2q19 -13 30.5 -27t19.5 -32l103 -260h-134l-83 218q-14 35 -35 47.5t-69 12.5h-56v-278h-126v700zM297 379q60 0 91.5 29t31.5 86q0 104 -125 104h-96v-219h98zM135 911h99l62 -82l62 82h99l-127 -156
h-68z" />
    <glyph glyph-name="rcaron" unicode="&#x159;" horiz-adv-x="382" 
d="M59 378q0 85 -3 122h107q4 -39 4 -88v-10h3q19 50 65 79t106 29q18 0 30 -3v-90q-10 2 -27 2q-47 0 -86.5 -25.5t-62.5 -69.5t-23 -95v-229h-113v378zM35 711h99l62 -82l62 82h99l-127 -156h-68z" />
    <glyph glyph-name="Sacute" unicode="&#x15a;" horiz-adv-x="544" 
d="M132.5 21q-62.5 31 -101.5 88l75 72q32 -39 78.5 -64t89.5 -25q51 0 81.5 24t30.5 63q0 28 -10 46.5t-37 37t-83 46.5q-74 36 -117 68t-63 68t-20 83q0 54 28.5 95.5t79.5 64t118 22.5q73 0 130.5 -29t84.5 -79l-81 -60q-24 31 -57.5 48.5t-71.5 17.5q-49 0 -76.5 -20.5
t-27.5 -57.5q0 -23 12.5 -39.5t45 -36.5t99.5 -52q95 -45 133.5 -93.5t38.5 -121.5q0 -59 -30 -103.5t-85 -69t-127 -24.5q-75 0 -137.5 31zM313 912h111l-103 -157h-91z" />
    <glyph glyph-name="sacute" unicode="&#x15b;" horiz-adv-x="433" 
d="M97 15q-48 25 -68 67l72 49q17 -26 45.5 -41t60.5 -15q36 0 60 19.5t24 50.5q0 23 -17.5 38t-71.5 36q-89 34 -125.5 69t-36.5 87q0 61 49 98t130 37q55 0 98.5 -21t68.5 -60l-67 -50q-16 22 -41 34t-55 12q-32 0 -51 -12.5t-19 -34.5q0 -16 8 -26.5t29.5 -21.5t65.5 -28
q84 -33 116 -66t32 -86q0 -72 -54 -116t-143 -44q-62 0 -110 25zM257 712h111l-103 -157h-91z" />
    <glyph glyph-name="Scircumflex" unicode="&#x15c;" horiz-adv-x="544" 
d="M132.5 21q-62.5 31 -101.5 88l75 72q32 -39 78.5 -64t89.5 -25q51 0 81.5 24t30.5 63q0 28 -10 46.5t-37 37t-83 46.5q-74 36 -117 68t-63 68t-20 83q0 54 28.5 95.5t79.5 64t118 22.5q73 0 130.5 -29t84.5 -79l-81 -60q-24 31 -57.5 48.5t-71.5 17.5q-49 0 -76.5 -20.5
t-27.5 -57.5q0 -23 12.5 -39.5t45 -36.5t99.5 -52q95 -45 133.5 -93.5t38.5 -121.5q0 -59 -30 -103.5t-85 -69t-127 -24.5q-75 0 -137.5 31zM240 911h68l127 -156h-99l-62 81l-62 -81h-99z" />
    <glyph glyph-name="scircumflex" unicode="&#x15d;" horiz-adv-x="433" 
d="M97 15q-48 25 -68 67l72 49q17 -26 45.5 -41t60.5 -15q36 0 60 19.5t24 50.5q0 23 -17.5 38t-71.5 36q-89 34 -125.5 69t-36.5 87q0 61 49 98t130 37q55 0 98.5 -21t68.5 -60l-67 -50q-16 22 -41 34t-55 12q-32 0 -51 -12.5t-19 -34.5q0 -16 8 -26.5t29.5 -21.5t65.5 -28
q84 -33 116 -66t32 -86q0 -72 -54 -116t-143 -44q-62 0 -110 25zM184 711h68l127 -156h-99l-62 81l-62 -81h-99z" />
    <glyph glyph-name="Scedilla" unicode="&#x15e;" horiz-adv-x="544" 
d="M457 53.5q-55 -52.5 -149 -61.5l-31 -57q42 0 67.5 -20t25.5 -55q0 -43 -30.5 -69t-82.5 -26q-24 0 -48.5 5t-39.5 13l12 50q28 -11 63 -11q21 0 33.5 9.5t12.5 26.5q0 16 -18.5 25t-51.5 8l-26 29l41 72q-64 7 -117 37t-87 80l75 72q32 -39 78.5 -64t89.5 -25
q51 0 81.5 24t30.5 63q0 28 -10 46.5t-37 37t-83 46.5q-74 36 -117 68t-63 68t-20 83q0 54 28.5 95.5t79.5 64t118 22.5q73 0 130.5 -29t84.5 -79l-81 -60q-24 31 -57.5 48.5t-71.5 17.5q-49 0 -76.5 -20.5t-27.5 -57.5q0 -23 12.5 -39.5t45 -36.5t99.5 -52
q95 -45 133.5 -93.5t38.5 -121.5q0 -81 -55 -133.5z" />
    <glyph glyph-name="scedilla" unicode="&#x15f;" horiz-adv-x="433" 
d="M363 46.5q-41 -41.5 -110 -52.5l-32 -59q42 0 67.5 -20t25.5 -55q0 -43 -30.5 -69t-82.5 -26q-24 0 -48.5 5t-39.5 13l12 50q28 -11 63 -11q21 0 33.5 9.5t12.5 26.5q0 16 -18.5 25t-51.5 8l-26 29l41 71q-53 6 -93 30t-57 61l72 49q17 -26 45.5 -41t60.5 -15
q36 0 60 19.5t24 50.5q0 23 -17.5 38t-71.5 36q-89 34 -125.5 69t-36.5 87q0 61 49 98t130 37q55 0 98.5 -21t68.5 -60l-67 -50q-16 22 -41 34t-55 12q-32 0 -51 -12.5t-19 -34.5q0 -16 8 -26.5t29.5 -21.5t65.5 -28q84 -33 116 -66t32 -86q0 -62 -41 -103.5z" />
    <glyph glyph-name="Scaron" unicode="&#x160;" horiz-adv-x="544" 
d="M132.5 21q-62.5 31 -101.5 88l75 72q32 -39 78.5 -64t89.5 -25q51 0 81.5 24t30.5 63q0 28 -10 46.5t-37 37t-83 46.5q-74 36 -117 68t-63 68t-20 83q0 54 28.5 95.5t79.5 64t118 22.5q73 0 130.5 -29t84.5 -79l-81 -60q-24 31 -57.5 48.5t-71.5 17.5q-49 0 -76.5 -20.5
t-27.5 -57.5q0 -23 12.5 -39.5t45 -36.5t99.5 -52q95 -45 133.5 -93.5t38.5 -121.5q0 -59 -30 -103.5t-85 -69t-127 -24.5q-75 0 -137.5 31zM113 911h99l62 -82l62 82h99l-127 -156h-68z" />
    <glyph glyph-name="scaron" unicode="&#x161;" horiz-adv-x="433" 
d="M97 15q-48 25 -68 67l72 49q17 -26 45.5 -41t60.5 -15q36 0 60 19.5t24 50.5q0 23 -17.5 38t-71.5 36q-89 34 -125.5 69t-36.5 87q0 61 49 98t130 37q55 0 98.5 -21t68.5 -60l-67 -50q-16 22 -41 34t-55 12q-32 0 -51 -12.5t-19 -34.5q0 -16 8 -26.5t29.5 -21.5t65.5 -28
q84 -33 116 -66t32 -86q0 -72 -54 -116t-143 -44q-62 0 -110 25zM57 711h99l62 -82l62 82h99l-127 -156h-68z" />
    <glyph glyph-name="uni0162" unicode="&#x162;" horiz-adv-x="580" 
d="M329 0l-36 -65q42 0 67.5 -20t25.5 -55q0 -43 -30.5 -69t-82.5 -26q-24 0 -48.5 5t-39.5 13l12 50q28 -11 63 -11q21 0 33.5 9.5t12.5 26.5q0 16 -18.5 25t-51.5 8l-26 29l46 80h-29v606h-211v94h548v-94h-211v-606h-24z" />
    <glyph glyph-name="uni0163" unicode="&#x163;" horiz-adv-x="406" 
d="M322.5 -85q25.5 -20 25.5 -55q0 -43 -30.5 -69t-82.5 -26q-24 0 -48.5 5t-39.5 13l12 50q28 -11 63 -11q21 0 33.5 9.5t12.5 26.5q0 16 -18.5 25t-51.5 8l-26 29l42 74q-53 12 -82.5 52.5t-29.5 103.5v265h-90v85h90v130l110 33h4v-163h144v-85h-144v-250
q0 -45 19.5 -66.5t60.5 -21.5q44 0 72 12l6 -80q-33 -15 -88 -18l-31 -56q42 0 67.5 -20z" />
    <glyph glyph-name="Tcaron" unicode="&#x164;" horiz-adv-x="580" 
d="M227 606h-211v94h548v-94h-211v-606h-126v606zM129 911h99l62 -82l62 82h99l-127 -156h-68z" />
    <glyph glyph-name="tcaron" unicode="&#x165;" horiz-adv-x="513" 
d="M143.5 32.5q-41.5 42.5 -41.5 117.5v265h-90v85h90v130l110 33h4v-163h144v-85h-144v-250q0 -45 19.5 -66.5t60.5 -21.5q44 0 72 12l6 -80q-41 -19 -116 -19q-73 0 -114.5 42.5zM483 723q20 -21 20 -55q0 -37 -20.5 -78.5t-53.5 -71.5l-45 35q30 38 41 63q-26 2 -43 19.5
t-17 43.5q0 29 18 47t47 18q33 0 53 -21z" />
    <glyph glyph-name="Tbar" unicode="&#x166;" horiz-adv-x="580" 
d="M353 606v-226h155v-85h-155v-295h-126v295h-155v85h155v226h-211v94h548v-94h-211z" />
    <glyph glyph-name="tbar" unicode="&#x167;" horiz-adv-x="406" 
d="M374 9q-41 -19 -116 -19q-73 0 -114.5 42.5t-41.5 117.5v82h-76v72h76v111h-90v85h90v130l110 33h4v-163h144v-85h-144v-111h106v-72h-106v-67q0 -45 19.5 -66.5t60.5 -21.5q44 0 72 12z" />
    <glyph glyph-name="Utilde" unicode="&#x168;" horiz-adv-x="661" 
d="M133 61.5q-67 71.5 -67 211.5v427h127v-425q0 -183 138 -183q68 0 103 46t35 137v425h126v-427q0 -140 -67 -211.5t-197 -71.5q-131 0 -198 71.5zM196.5 841q27.5 31 69.5 31q19 0 36 -7t40 -21q12 -7 24 -13t21 -6q14 0 20.5 12.5t8.5 38.5h70q0 -58 -28.5 -89.5
t-71.5 -31.5q-21 0 -40.5 8.5t-41.5 22.5q-27 16 -36 16q-12 0 -20 -13t-9 -34h-70q0 55 27.5 86z" />
    <glyph glyph-name="utilde" unicode="&#x169;" horiz-adv-x="558" 
d="M97 47q-44 57 -44 169v284h113v-285q0 -68 23 -100.5t71 -32.5q57 0 93.5 43t36.5 107v268h113v-380q0 -55 9 -120h-107q-9 48 -9 88h-3q-20 -45 -64.5 -71.5t-101.5 -26.5q-86 0 -130 57zM150.5 641q27.5 31 69.5 31q19 0 36 -7t40 -21q12 -7 24 -13t21 -6
q14 0 20.5 12.5t8.5 38.5h70q0 -58 -28.5 -89.5t-71.5 -31.5q-21 0 -40.5 8.5t-41.5 22.5q-27 16 -36 16q-12 0 -20 -13t-9 -34h-70q0 55 27.5 86z" />
    <glyph glyph-name="Umacron" unicode="&#x16a;" horiz-adv-x="661" 
d="M133 61.5q-67 71.5 -67 211.5v427h127v-425q0 -183 138 -183q68 0 103 46t35 137v425h126v-427q0 -140 -67 -211.5t-197 -71.5q-131 0 -198 71.5zM165 845h332v-76h-332v76z" />
    <glyph glyph-name="umacron" unicode="&#x16b;" horiz-adv-x="558" 
d="M97 47q-44 57 -44 169v284h113v-285q0 -68 23 -100.5t71 -32.5q57 0 93.5 43t36.5 107v268h113v-380q0 -55 9 -120h-107q-9 48 -9 88h-3q-20 -45 -64.5 -71.5t-101.5 -26.5q-86 0 -130 57zM119 645h332v-76h-332v76z" />
    <glyph glyph-name="Ubreve" unicode="&#x16c;" horiz-adv-x="661" 
d="M133 61.5q-67 71.5 -67 211.5v427h127v-425q0 -183 138 -183q68 0 103 46t35 137v425h126v-427q0 -140 -67 -211.5t-197 -71.5q-131 0 -198 71.5zM216.5 792q-41.5 37 -42.5 109h75q2 -35 22.5 -54.5t59.5 -19.5q37 0 59 19t23 55h75q-1 -70 -41 -108t-116 -38
q-73 0 -114.5 37z" />
    <glyph glyph-name="ubreve" unicode="&#x16d;" horiz-adv-x="558" 
d="M97 47q-44 57 -44 169v284h113v-285q0 -68 23 -100.5t71 -32.5q57 0 93.5 43t36.5 107v268h113v-380q0 -55 9 -120h-107q-9 48 -9 88h-3q-20 -45 -64.5 -71.5t-101.5 -26.5q-86 0 -130 57zM170.5 592q-41.5 37 -42.5 109h75q2 -35 22.5 -54.5t59.5 -19.5q37 0 59 19
t23 55h75q-1 -70 -41 -108t-116 -38q-73 0 -114.5 37z" />
    <glyph glyph-name="Uring" unicode="&#x16e;" horiz-adv-x="661" 
d="M133 61.5q-67 71.5 -67 211.5v427h127v-425q0 -183 138 -183q68 0 103 46t35 137v425h126v-427q0 -140 -67 -211.5t-197 -71.5q-131 0 -198 71.5zM257.5 773.5q-28.5 26.5 -28.5 69.5t28.5 70t73.5 27t73.5 -27t28.5 -70t-28.5 -69.5t-73.5 -26.5t-73.5 26.5zM367 806.5
q14 14.5 14 36.5t-14 36.5t-36 14.5t-36 -14.5t-14 -36.5t14 -36.5t36 -14.5t36 14.5z" />
    <glyph glyph-name="uring" unicode="&#x16f;" horiz-adv-x="558" 
d="M97 47q-44 57 -44 169v284h113v-285q0 -68 23 -100.5t71 -32.5q57 0 93.5 43t36.5 107v268h113v-380q0 -55 9 -120h-107q-9 48 -9 88h-3q-20 -45 -64.5 -71.5t-101.5 -26.5q-86 0 -130 57zM211.5 573.5q-28.5 26.5 -28.5 69.5t28.5 70t73.5 27t73.5 -27t28.5 -70
t-28.5 -69.5t-73.5 -26.5t-73.5 26.5zM321 606.5q14 14.5 14 36.5t-14 36.5t-36 14.5t-36 -14.5t-14 -36.5t14 -36.5t36 -14.5t36 14.5z" />
    <glyph glyph-name="Uhungarumlaut" unicode="&#x170;" horiz-adv-x="661" 
d="M133 61.5q-67 71.5 -67 211.5v427h127v-425q0 -183 138 -183q68 0 103 46t35 137v425h126v-427q0 -140 -67 -211.5t-197 -71.5q-131 0 -198 71.5zM270 912h112l-104 -157h-91zM431 912h111l-103 -157h-91z" />
    <glyph glyph-name="uhungarumlaut" unicode="&#x171;" horiz-adv-x="558" 
d="M97 47q-44 57 -44 169v284h113v-285q0 -68 23 -100.5t71 -32.5q57 0 93.5 43t36.5 107v268h113v-380q0 -55 9 -120h-107q-9 48 -9 88h-3q-20 -45 -64.5 -71.5t-101.5 -26.5q-86 0 -130 57zM224 712h112l-104 -157h-91zM385 712h111l-103 -157h-91z" />
    <glyph glyph-name="Uogonek" unicode="&#x172;" horiz-adv-x="661" 
d="M595 700v-427q0 -125 -53.5 -196t-158.5 -84q-76 -55 -76 -106q0 -17 13 -28.5t40 -11.5q21 0 58 15l16 -52q-18 -17 -45 -27t-56 -10q-51 0 -79.5 25t-28.5 74q0 72 75 119q-116 8 -175 79.5t-59 202.5v427h127v-425q0 -183 138 -183q68 0 103 46t35 137v425h126z" />
    <glyph glyph-name="uogonek" unicode="&#x173;" horiz-adv-x="558" 
d="M536 -190q-18 -17 -45 -27t-56 -10q-51 0 -79.5 25t-28.5 74q0 79 90 128h-12q-9 48 -9 88h-3q-20 -45 -64.5 -71.5t-101.5 -26.5q-86 0 -130 57t-44 169v284h113v-285q0 -68 23 -100.5t71 -32.5q57 0 93.5 43t36.5 107v268h113v-380q0 -55 9 -120h-17q-86 -59 -86 -113
q0 -17 13 -28.5t40 -11.5q21 0 58 15z" />
    <glyph glyph-name="Wcircumflex" unicode="&#x174;" horiz-adv-x="860" 
d="M834 700l-147 -700h-121l-136 539l-136 -539h-121l-147 700h135l83 -496l125 496h122l125 -494l83 494h135zM396 911h68l127 -156h-99l-62 81l-62 -81h-99z" />
    <glyph glyph-name="wcircumflex" unicode="&#x175;" horiz-adv-x="694" 
d="M682 500l-127 -500h-101l-107 379l-107 -379h-100l-127 500h118l69 -334l97 334h101l97 -336l69 336h118zM313 711h68l127 -156h-99l-62 81l-62 -81h-99z" />
    <glyph glyph-name="Ycircumflex" unicode="&#x176;" horiz-adv-x="610" 
d="M242 279l-226 421h138l151 -305l151 305h138l-225 -421v-279h-127v279zM271 911h68l127 -156h-99l-62 81l-62 -81h-99z" />
    <glyph glyph-name="ycircumflex" unicode="&#x177;" horiz-adv-x="491" 
d="M478 500l-187 -519q-32 -88 -86.5 -132.5t-128.5 -44.5q-35 0 -73 10v89q22 -8 56 -8q46 0 79 32.5t61 106.5l-186 466h120l118 -342l106 342h121zM215 711h68l127 -156h-99l-62 81l-62 -81h-99z" />
    <glyph glyph-name="Ydieresis" unicode="&#x178;" horiz-adv-x="610" 
d="M242 279l-226 421h138l151 -305l151 305h138l-225 -421v-279h-127v279zM157 772.5q-18 17.5 -18 43.5t18 43.5t44 17.5t44 -17.5t18 -43.5t-18 -43.5t-44 -17.5t-44 17.5zM365 772.5q-18 17.5 -18 43.5t18 43.5t44 17.5t44 -17.5t18 -43.5t-18 -43.5t-44 -17.5t-44 17.5z
" />
    <glyph glyph-name="Zacute" unicode="&#x179;" horiz-adv-x="584" 
d="M29 64l355 534h-326v102h484v-65l-352 -533h365v-102h-526v64zM331 912h111l-103 -157h-91z" />
    <glyph glyph-name="zacute" unicode="&#x17a;" horiz-adv-x="468" 
d="M23 62l275 352h-261v86h398v-58l-271 -356h281v-86h-422v62zM273 712h111l-103 -157h-91z" />
    <glyph glyph-name="Zdotaccent" unicode="&#x17b;" horiz-adv-x="584" 
d="M29 64l355 534h-326v102h484v-65l-352 -533h365v-102h-526v64zM247.5 772.5q-17.5 17.5 -17.5 43.5t17.5 43.5t44.5 17.5t44.5 -17.5t17.5 -43.5t-17.5 -43.5t-44.5 -17.5t-44.5 17.5z" />
    <glyph glyph-name="zdotaccent" unicode="&#x17c;" horiz-adv-x="468" 
d="M23 62l275 352h-261v86h398v-58l-271 -356h281v-86h-422v62zM189.5 572.5q-17.5 17.5 -17.5 43.5t17.5 43.5t44.5 17.5t44.5 -17.5t17.5 -43.5t-17.5 -43.5t-44.5 -17.5t-44.5 17.5z" />
    <glyph glyph-name="Zcaron" unicode="&#x17d;" horiz-adv-x="584" 
d="M29 64l355 534h-326v102h484v-65l-352 -533h365v-102h-526v64zM131 911h99l62 -82l62 82h99l-127 -156h-68z" />
    <glyph glyph-name="zcaron" unicode="&#x17e;" horiz-adv-x="468" 
d="M23 62l275 352h-261v86h398v-58l-271 -356h281v-86h-422v62zM73 711h99l62 -82l62 82h99l-127 -156h-68z" />
    <glyph glyph-name="uni018F" unicode="&#x18f;" horiz-adv-x="682" 
d="M500.5 666.5q72.5 -43.5 111 -125t38.5 -194.5q0 -110 -38 -190.5t-109 -123.5t-167 -43q-145 0 -224.5 92.5t-79.5 259.5v54h490q-10 102 -60 158t-133 56q-61 0 -110 -28.5t-84 -82.5l-73 75q38 64 108.5 100t157.5 36q100 0 172.5 -43.5zM466 146.5q48 55.5 56 157.5
l-362 -1v-9q0 -95 47 -149t130 -54q81 0 129 55.5z" />
    <glyph glyph-name="florin" unicode="&#x192;" horiz-adv-x="475" 
d="M304 602q-19 -17 -26 -52l-10 -50h139v-90h-157l-102 -500h-124l103 500h-91v90h109l16 76q13 64 54 99t126 35q35 0 69 -10.5t53 -26.5l-41 -76q-11 10 -29 16t-36 6q-34 0 -53 -17z" />
    <glyph glyph-name="Ohorn" unicode="&#x1a0;" horiz-adv-x="724" 
d="M762 700v-47q0 -64 -33.5 -116t-89.5 -79q10 -47 10 -108q0 -111 -37 -192t-106.5 -124.5t-164.5 -43.5t-165 43.5t-107 124.5t-37 192t37 192t107 124.5t165 43.5q99 0 170 -46.5t106 -133.5q26 24 37.5 52.5t11.5 70.5v47h96zM473.5 160q48.5 69 48.5 190t-48.5 190.5
t-132.5 69.5q-85 0 -133.5 -69.5t-48.5 -190.5t48.5 -190t133.5 -69q84 0 132.5 69z" />
    <glyph glyph-name="ohorn" unicode="&#x1a1;" horiz-adv-x="634" 
d="M662 505v-47q0 -64 -33.5 -116t-89.5 -79v-13q0 -121 -67.5 -190.5t-185.5 -69.5t-185.5 69.5t-67.5 190.5t67.5 190.5t185.5 69.5q93 0 155 -43.5t85 -122.5q21 21 30.5 48t9.5 66v47h96zM388 121.5q37 46.5 37 128.5t-37 128.5t-102 46.5t-102 -46.5t-37 -128.5
t37 -128.5t102 -46.5t102 46.5z" />
    <glyph glyph-name="Uhorn" unicode="&#x1af;" horiz-adv-x="727" 
d="M765 700v-47q0 -78 -47.5 -135.5t-122.5 -75.5v-169q0 -140 -67 -211.5t-197 -71.5q-131 0 -198 71.5t-67 211.5v427h127v-425q0 -183 138 -183q68 0 103 46t35 137v425h126v-189q41 28 57.5 59.5t16.5 82.5v47h96z" />
    <glyph glyph-name="uhorn" unicode="&#x1b0;" horiz-adv-x="633" 
d="M661 501v-47q0 -75 -44 -131.5t-114 -76.5v-126q0 -55 9 -120h-107q-9 48 -9 88h-3q-20 -45 -64.5 -71.5t-101.5 -26.5q-86 0 -130 57t-44 169v284h113v-285q0 -68 23 -100.5t71 -32.5q57 0 93.5 43t36.5 107v268h113v-181q34 26 48 57t14 78v47h96z" />
    <glyph glyph-name="uni01CD" unicode="&#x1cd;" horiz-adv-x="626" 
d="M439 128h-251l-39 -128h-133l241 700h113l241 -700h-133zM408 229l-94 306l-95 -306h189zM152 911h99l62 -82l62 82h99l-127 -156h-68z" />
    <glyph glyph-name="uni01CE" unicode="&#x1ce;" horiz-adv-x="524" 
d="M115.5 10.5q-38.5 20.5 -60 56.5t-21.5 81q0 76 59.5 117t168.5 41h87v23q0 45 -26 69t-73 24q-45 0 -84.5 -16.5t-65.5 -47.5l-52 67q38 41 92 63t114 22q98 0 153 -46.5t55 -130.5v-230q0 -21 4 -50.5t9 -52.5h-101q-9 21 -13 63h-2q-58 -73 -156 -73q-49 0 -87.5 20.5
zM314.5 103.5q34.5 27.5 34.5 67.5v58h-90q-55 0 -84.5 -21t-29.5 -60q0 -34 22 -53t62 -19q51 0 85.5 27.5zM98 711h99l62 -82l62 82h99l-127 -156h-68z" />
    <glyph glyph-name="uni01CF" unicode="&#x1cf;" horiz-adv-x="313" 
d="M93 700h127v-700h-127v700zM-4 911h99l62 -82l62 82h99l-127 -156h-68z" />
    <glyph glyph-name="uni01D0" unicode="&#x1d0;" horiz-adv-x="271" 
d="M79 500h113v-500h-113v500zM-26 711h99l62 -82l62 82h99l-127 -156h-68z" />
    <glyph glyph-name="uni01D1" unicode="&#x1d1;" horiz-adv-x="681" 
d="M176 33.5q-70 43.5 -107 124.5t-37 192t37 192t107 124.5t165 43.5t164.5 -43.5t106.5 -124.5t37 -192t-37 -192t-106.5 -124.5t-164.5 -43.5t-165 43.5zM473.5 160q48.5 69 48.5 190t-48.5 190.5t-132.5 69.5q-85 0 -133.5 -69.5t-48.5 -190.5t48.5 -190t133.5 -69
q84 0 132.5 69zM180 911h99l62 -82l62 82h99l-127 -156h-68z" />
    <glyph glyph-name="uni01D2" unicode="&#x1d2;" horiz-adv-x="572" 
d="M100.5 59.5q-67.5 69.5 -67.5 190.5t67.5 190.5t185.5 69.5t185.5 -69.5t67.5 -190.5t-67.5 -190.5t-185.5 -69.5t-185.5 69.5zM388 121.5q37 46.5 37 128.5t-37 128.5t-102 46.5t-102 -46.5t-37 -128.5t37 -128.5t102 -46.5t102 46.5zM125 711h99l62 -82l62 82h99
l-127 -156h-68z" />
    <glyph glyph-name="uni01D3" unicode="&#x1d3;" horiz-adv-x="661" 
d="M133 61.5q-67 71.5 -67 211.5v427h127v-425q0 -183 138 -183q68 0 103 46t35 137v425h126v-427q0 -140 -67 -211.5t-197 -71.5q-131 0 -198 71.5zM170 911h99l62 -82l62 82h99l-127 -156h-68z" />
    <glyph glyph-name="uni01D4" unicode="&#x1d4;" horiz-adv-x="558" 
d="M97 47q-44 57 -44 169v284h113v-285q0 -68 23 -100.5t71 -32.5q57 0 93.5 43t36.5 107v268h113v-380q0 -55 9 -120h-107q-9 48 -9 88h-3q-20 -45 -64.5 -71.5t-101.5 -26.5q-86 0 -130 57zM124 711h99l62 -82l62 82h99l-127 -156h-68z" />
    <glyph glyph-name="uni01D5" unicode="&#x1d5;" horiz-adv-x="661" 
d="M133 61.5q-67 71.5 -67 211.5v427h127v-425q0 -183 138 -183q68 0 103 46t35 137v425h126v-427q0 -140 -67 -211.5t-197 -71.5q-131 0 -198 71.5zM185 989h292v-62h-292v62zM183 772.5q-18 17.5 -18 43.5t18 43.5t44 17.5t44 -17.5t18 -43.5t-18 -43.5t-44 -17.5
t-44 17.5zM391 772.5q-18 17.5 -18 43.5t18 43.5t44 17.5t44 -17.5t18 -43.5t-18 -43.5t-44 -17.5t-44 17.5z" />
    <glyph glyph-name="uni01D6" unicode="&#x1d6;" horiz-adv-x="558" 
d="M97 47q-44 57 -44 169v284h113v-285q0 -68 23 -100.5t71 -32.5q57 0 93.5 43t36.5 107v268h113v-380q0 -55 9 -120h-107q-9 48 -9 88h-3q-20 -45 -64.5 -71.5t-101.5 -26.5q-86 0 -130 57zM139 789h292v-62h-292v62zM137 572.5q-18 17.5 -18 43.5t18 43.5t44 17.5
t44 -17.5t18 -43.5t-18 -43.5t-44 -17.5t-44 17.5zM345 572.5q-18 17.5 -18 43.5t18 43.5t44 17.5t44 -17.5t18 -43.5t-18 -43.5t-44 -17.5t-44 17.5z" />
    <glyph glyph-name="uni01D7" unicode="&#x1d7;" horiz-adv-x="661" 
d="M133 61.5q-67 71.5 -67 211.5v427h127v-425q0 -183 138 -183q68 0 103 46t35 137v425h126v-427q0 -140 -67 -211.5t-197 -71.5q-131 0 -198 71.5zM337 1019h90l-63 -106h-74zM183 772.5q-18 17.5 -18 43.5t18 43.5t44 17.5t44 -17.5t18 -43.5t-18 -43.5t-44 -17.5
t-44 17.5zM391 772.5q-18 17.5 -18 43.5t18 43.5t44 17.5t44 -17.5t18 -43.5t-18 -43.5t-44 -17.5t-44 17.5z" />
    <glyph glyph-name="uni01D8" unicode="&#x1d8;" horiz-adv-x="558" 
d="M97 47q-44 57 -44 169v284h113v-285q0 -68 23 -100.5t71 -32.5q57 0 93.5 43t36.5 107v268h113v-380q0 -55 9 -120h-107q-9 48 -9 88h-3q-20 -45 -64.5 -71.5t-101.5 -26.5q-86 0 -130 57zM291 819h90l-63 -106h-74zM137 572.5q-18 17.5 -18 43.5t18 43.5t44 17.5
t44 -17.5t18 -43.5t-18 -43.5t-44 -17.5t-44 17.5zM345 572.5q-18 17.5 -18 43.5t18 43.5t44 17.5t44 -17.5t18 -43.5t-18 -43.5t-44 -17.5t-44 17.5z" />
    <glyph glyph-name="uni01D9" unicode="&#x1d9;" horiz-adv-x="661" 
d="M133 61.5q-67 71.5 -67 211.5v427h127v-425q0 -183 138 -183q68 0 103 46t35 137v425h126v-427q0 -140 -67 -211.5t-197 -71.5q-131 0 -198 71.5zM180 1023h90l61 -72l61 72h90l-118 -127h-66zM183 772.5q-18 17.5 -18 43.5t18 43.5t44 17.5t44 -17.5t18 -43.5t-18 -43.5
t-44 -17.5t-44 17.5zM391 772.5q-18 17.5 -18 43.5t18 43.5t44 17.5t44 -17.5t18 -43.5t-18 -43.5t-44 -17.5t-44 17.5z" />
    <glyph glyph-name="uni01DA" unicode="&#x1da;" horiz-adv-x="558" 
d="M97 47q-44 57 -44 169v284h113v-285q0 -68 23 -100.5t71 -32.5q57 0 93.5 43t36.5 107v268h113v-380q0 -55 9 -120h-107q-9 48 -9 88h-3q-20 -45 -64.5 -71.5t-101.5 -26.5q-86 0 -130 57zM134 823h90l61 -72l61 72h90l-118 -127h-66zM137 572.5q-18 17.5 -18 43.5
t18 43.5t44 17.5t44 -17.5t18 -43.5t-18 -43.5t-44 -17.5t-44 17.5zM345 572.5q-18 17.5 -18 43.5t18 43.5t44 17.5t44 -17.5t18 -43.5t-18 -43.5t-44 -17.5t-44 17.5z" />
    <glyph glyph-name="uni01DB" unicode="&#x1db;" horiz-adv-x="661" 
d="M133 61.5q-67 71.5 -67 211.5v427h127v-425q0 -183 138 -183q68 0 103 46t35 137v425h126v-427q0 -140 -67 -211.5t-197 -71.5q-131 0 -198 71.5zM232 1019h90l47 -106h-74zM183 772.5q-18 17.5 -18 43.5t18 43.5t44 17.5t44 -17.5t18 -43.5t-18 -43.5t-44 -17.5
t-44 17.5zM391 772.5q-18 17.5 -18 43.5t18 43.5t44 17.5t44 -17.5t18 -43.5t-18 -43.5t-44 -17.5t-44 17.5z" />
    <glyph glyph-name="uni01DC" unicode="&#x1dc;" horiz-adv-x="558" 
d="M97 47q-44 57 -44 169v284h113v-285q0 -68 23 -100.5t71 -32.5q57 0 93.5 43t36.5 107v268h113v-380q0 -55 9 -120h-107q-9 48 -9 88h-3q-20 -45 -64.5 -71.5t-101.5 -26.5q-86 0 -130 57zM186 819h90l47 -106h-74zM137 572.5q-18 17.5 -18 43.5t18 43.5t44 17.5
t44 -17.5t18 -43.5t-18 -43.5t-44 -17.5t-44 17.5zM345 572.5q-18 17.5 -18 43.5t18 43.5t44 17.5t44 -17.5t18 -43.5t-18 -43.5t-44 -17.5t-44 17.5z" />
    <glyph glyph-name="Gcaron" unicode="&#x1e6;" horiz-adv-x="648" 
d="M594 374v-374h-93l-14 41q-66 -51 -162 -51q-91 0 -157 43t-101 124t-35 193q0 109 39 190.5t110.5 125.5t167.5 44q83 0 145 -31t91 -87l-71 -65q-25 40 -67 60.5t-96 20.5q-92 0 -142 -67t-50 -191q0 -128 47 -196.5t134 -68.5q77 0 129 37v162h-156v90h281zM183 911
h99l62 -82l62 82h99l-127 -156h-68z" />
    <glyph glyph-name="gcaron" unicode="&#x1e7;" horiz-adv-x="550" 
d="M498 500v-481q0 -124 -62 -188t-182 -64q-56 0 -106 13t-89 38l37 78q36 -18 76 -28t77 -10q141 0 141 177v26q-20 -31 -57 -48t-86 -17q-103 0 -160 69t-57 192q0 120 55.5 186.5t154.5 66.5q51 0 90 -19.5t62 -56.5h2l9 66h95zM384 282q0 68 -30.5 105.5t-86.5 37.5
q-59 0 -91.5 -44t-32.5 -126t32 -126.5t91 -44.5q56 0 87 34t31 96v68zM101 711h99l62 -82l62 82h99l-127 -156h-68z" />
    <glyph glyph-name="Aringacute" unicode="&#x1fa;" horiz-adv-x="626" 
d="M364 938h-82l54 106h98zM240 746q-29 27 -29 70q0 42 28.5 69t73.5 27t73.5 -26.5t28.5 -69.5t-28.5 -70t-73.5 -27q-44 0 -73 27zM277.5 853q-13.5 -14 -13.5 -37t13.5 -37t35.5 -14t36 14.5t14 36.5t-14 36.5t-36 14.5t-35.5 -14zM439 128h-251l-39 -128h-133l241 700
h113l241 -700h-133zM408 229l-94 306l-95 -306h189z" />
    <glyph glyph-name="aringacute" unicode="&#x1fb;" horiz-adv-x="524" 
d="M275 879h98l-69 -107h-83zM185.5 573.5q-28.5 26.5 -28.5 69.5t28.5 70t73.5 27q44 0 73 -27t29 -70q0 -42 -28.5 -69t-73.5 -27t-73.5 26.5zM294.5 606.5q13.5 14.5 13.5 36.5q0 23 -13.5 37t-35.5 14t-36 -14.5t-14 -36.5t14 -36.5t36 -14.5t35.5 14.5zM115.5 10.5
q-38.5 20.5 -60 56.5t-21.5 81q0 76 59.5 117t168.5 41h87v23q0 45 -26 69t-73 24q-45 0 -84.5 -16.5t-65.5 -47.5l-52 67q38 41 92 63t114 22q98 0 153 -46.5t55 -130.5v-230q0 -21 4 -50.5t9 -52.5h-101q-9 21 -13 63h-2q-58 -73 -156 -73q-49 0 -87.5 20.5zM314.5 103.5
q34.5 27.5 34.5 67.5v58h-90q-55 0 -84.5 -21t-29.5 -60q0 -34 22 -53t62 -19q51 0 85.5 27.5z" />
    <glyph glyph-name="AEacute" unicode="&#x1fc;" horiz-adv-x="818" 
d="M503 599v-183h240v-101h-240v-213h273v-102h-399v113h-175l-46 -113h-140l317 700h443v-101h-273zM377 209v336l-136 -336h136zM510 912h111l-103 -157h-91z" />
    <glyph glyph-name="aeacute" unicode="&#x1fd;" horiz-adv-x="825" 
d="M792 221h-342q12 -135 128 -135q42 0 74.5 15.5t61.5 50.5l62 -59q-28 -47 -83 -75t-121 -28q-54 0 -98 18.5t-75 53.5q-33 -33 -80.5 -52.5t-98.5 -19.5q-84 0 -135 43t-51 113q0 75 53 113.5t156 38.5h94v31q0 46 -23.5 69.5t-69.5 23.5q-45 0 -82.5 -16.5t-63.5 -47.5
l-50 67q38 41 89 63t111 22q108 0 162 -62q62 62 161 62q106 0 163.5 -65t57.5 -184v-40zM681 303q0 55 -29.5 85t-83.5 30q-48 0 -78 -31t-38 -89h229v5zM337 221h-85q-53 0 -80.5 -19t-27.5 -56q0 -33 21 -51.5t59 -18.5q48 0 80.5 27.5t32.5 67.5v50zM453 712h111
l-103 -157h-91z" />
    <glyph glyph-name="Oslashacute" unicode="&#x1fe;" horiz-adv-x="681" 
d="M620 524q29 -75 29 -174q0 -111 -37 -192t-106.5 -124.5t-164.5 -43.5q-77 0 -138 29l-33 -62h-98l59 112q-48 47 -73.5 118t-25.5 163q0 111 37 192t107 124.5t165 43.5q63 0 118 -20l18 35h102l-43 -80q55 -46 84 -121zM192 185l217 411q-31 14 -68 14
q-85 0 -133.5 -69.5t-48.5 -190.5q0 -97 33 -165zM473.5 160q48.5 69 48.5 190q0 116 -45 184l-223 -419q38 -24 87 -24q84 0 132.5 69zM380 912h111l-103 -157h-91z" />
    <glyph glyph-name="oslashacute" unicode="&#x1ff;" horiz-adv-x="572" 
d="M514 378.5q25 -55.5 25 -128.5q0 -121 -67.5 -190.5t-185.5 -69.5q-52 0 -91 13l-25 -46h-81l41 78q-47 33 -72 88t-25 127q0 121 67.5 190.5t185.5 69.5q47 0 88 -12l19 37h85l-37 -69q48 -32 73 -87.5zM179 128l153 290q-20 7 -46 7q-65 0 -102 -46.5t-37 -128.5
q0 -76 32 -122zM388 121.5q37 46.5 37 128.5q0 77 -33 123l-155 -290q24 -8 49 -8q65 0 102 46.5zM325 712h111l-103 -157h-91z" />
    <glyph glyph-name="uni0218" unicode="&#x218;" horiz-adv-x="544" 
d="M132.5 21q-62.5 31 -101.5 88l75 72q32 -39 78.5 -64t89.5 -25q51 0 81.5 24t30.5 63q0 28 -10 46.5t-37 37t-83 46.5q-74 36 -117 68t-63 68t-20 83q0 54 28.5 95.5t79.5 64t118 22.5q73 0 130.5 -29t84.5 -79l-81 -60q-24 31 -57.5 48.5t-71.5 17.5q-49 0 -76.5 -20.5
t-27.5 -57.5q0 -23 12.5 -39.5t45 -36.5t99.5 -52q95 -45 133.5 -93.5t38.5 -121.5q0 -59 -30 -103.5t-85 -69t-127 -24.5q-75 0 -137.5 31zM327 -93q20 -21 20 -55q0 -37 -20.5 -78.5t-53.5 -71.5l-46 35q29 38 42 63q-27 2 -44 19t-17 44q0 29 18 47t47 18q34 0 54 -21z
" />
    <glyph glyph-name="uni0219" unicode="&#x219;" horiz-adv-x="433" 
d="M97 15q-48 25 -68 67l72 49q17 -26 45.5 -41t60.5 -15q36 0 60 19.5t24 50.5q0 23 -17.5 38t-71.5 36q-89 34 -125.5 69t-36.5 87q0 61 49 98t130 37q55 0 98.5 -21t68.5 -60l-67 -50q-16 22 -41 34t-55 12q-32 0 -51 -12.5t-19 -34.5q0 -16 8 -26.5t29.5 -21.5t65.5 -28
q84 -33 116 -66t32 -86q0 -72 -54 -116t-143 -44q-62 0 -110 25zM271 -93q20 -21 20 -55q0 -37 -20.5 -78.5t-53.5 -71.5l-46 35q29 38 42 63q-27 2 -44 19t-17 44q0 29 18 47t47 18q34 0 54 -21z" />
    <glyph glyph-name="uni021A" unicode="&#x21a;" horiz-adv-x="580" 
d="M227 606h-211v94h548v-94h-211v-606h-126v606zM343 -93q20 -21 20 -55q0 -37 -20.5 -78.5t-53.5 -71.5l-46 35q29 38 42 63q-27 2 -44 19t-17 44q0 29 18 47t47 18q34 0 54 -21z" />
    <glyph glyph-name="uni021B" unicode="&#x21b;" horiz-adv-x="406" 
d="M143.5 32.5q-41.5 42.5 -41.5 117.5v265h-90v85h90v130l110 33h4v-163h144v-85h-144v-250q0 -45 19.5 -66.5t60.5 -21.5q44 0 72 12l6 -80q-41 -19 -116 -19q-73 0 -114.5 42.5zM305 -93q20 -21 20 -55q0 -37 -20.5 -78.5t-53.5 -71.5l-46 35q29 38 42 63q-27 2 -44 19
t-17 44q0 29 18 47t47 18q34 0 54 -21z" />
    <glyph glyph-name="uni0237" unicode="&#x237;" horiz-adv-x="267" 
d="M-59 -190l5 81q23 -3 56 -3q41 0 60 23.5t19 71.5v517h112v-517q0 -89 -40 -136t-127 -47q-47 0 -85 10z" />
    <glyph glyph-name="uni0251" unicode="&#x251;" horiz-adv-x="540" 
d="M84 62q-54 72 -54 197q0 77 25.5 133.5t72 87t108.5 30.5q87 0 135 -66h2v56h112v-369q0 -98 3 -131h-106q-2 52 -1 71h-2q-22 -37 -61 -59t-84 -22q-96 0 -150 72zM340 111q33 33 33 89v99q0 55 -33.5 90.5t-85.5 35.5q-54 0 -83 -44t-29 -124q0 -85 29 -132t83 -47
q53 0 86 33z" />
    <glyph glyph-name="uni0259" unicode="&#x259;" horiz-adv-x="534" 
d="M437.5 442q63.5 -68 63.5 -190t-64.5 -192t-176.5 -70q-107 0 -167 69t-60 192v42h352q-17 122 -132 122q-44 0 -78 -16t-63 -51l-62 59q29 47 85.5 75t123.5 28q115 0 178.5 -68zM347 117q32 34 39 97h-244v-7q0 -58 32.5 -91t88.5 -33q52 0 84 34z" />
    <glyph glyph-name="uni02BB" unicode="&#x2bb;" horiz-adv-x="200" 
d="M154 663.5q17 -17.5 17 -43.5q0 -29 -18 -47t-47 -18q-33 0 -53 21t-20 55q0 37 20.5 78t53.5 71l45 -34q-3 -4 -17 -23t-24 -40q26 -2 43 -19.5z" />
    <glyph glyph-name="uni02BC" unicode="&#x2bc;" horiz-adv-x="200" 
d="M153 726q20 -21 20 -55q0 -37 -20.5 -78.5t-53.5 -71.5l-45 35q30 38 41 63q-26 2 -43 19.5t-17 43.5q0 29 18 47t47 18q33 0 53 -21z" />
    <glyph glyph-name="uni02BE" unicode="&#x2be;" 
d="M0 592q22 0 36 14.5t14 36.5t-14 36.5t-36 14.5v46q45 0 73.5 -27t28.5 -70t-28.5 -69.5t-73.5 -26.5v45z" />
    <glyph glyph-name="uni02BF" unicode="&#x2bf;" 
d="M-73.5 573.5q-28.5 26.5 -28.5 69.5t28.5 70t73.5 27v-46q-22 0 -36 -14.5t-14 -36.5t14 -36.5t36 -14.5v-45q-45 0 -73.5 26.5z" />
    <glyph glyph-name="circumflex" unicode="&#x2c6;" horiz-adv-x="400" 
d="M166 711h68l127 -156h-99l-62 81l-62 -81h-99z" />
    <glyph glyph-name="caron" unicode="&#x2c7;" horiz-adv-x="400" 
d="M39 711h99l62 -82l62 82h99l-127 -156h-68z" />
    <glyph glyph-name="uni02C8" unicode="&#x2c8;" 
d="M-53 754h106v-174h-106v174z" />
    <glyph glyph-name="uni02C9" unicode="&#x2c9;" horiz-adv-x="519" 
d="M61 685h397v-77h-397v77z" />
    <glyph glyph-name="uni02CA" unicode="&#x2ca;" 
d="M-115 614l115 108q30 28 63 28q25 0 40 -13.5t15 -36.5q0 -35 -47 -62l-145 -81z" />
    <glyph glyph-name="uni02CB" unicode="&#x2cb;" 
d="M-67 638q-47 26 -47 62q0 23 15 36.5t39 13.5q34 0 64 -28l115 -108l-41 -57z" />
    <glyph glyph-name="uni02CC" unicode="&#x2cc;" 
d="M-53 -40h106v-174h-106v174z" />
    <glyph glyph-name="breve" unicode="&#x2d8;" horiz-adv-x="400" 
d="M86.5 592q-41.5 37 -42.5 109h75q1 -34 22 -54t59 -20q37 0 59 19t23 55h75q-1 -70 -41 -108t-116 -38q-72 0 -113.5 37z" />
    <glyph glyph-name="dotaccent" unicode="&#x2d9;" horiz-adv-x="400" 
d="M156 572.5q-18 17.5 -18 43.5t18 43.5t44 17.5q27 0 44.5 -17.5t17.5 -43.5t-17.5 -43.5t-44.5 -17.5q-26 0 -44 17.5z" />
    <glyph glyph-name="ring" unicode="&#x2da;" horiz-adv-x="400" 
d="M126.5 574q-28.5 27 -28.5 69q0 43 29 70t73 27q45 0 73.5 -27t28.5 -70t-28.5 -69.5t-73.5 -26.5t-73.5 27zM236 606.5q14 14.5 14 36.5t-14 36.5t-36 14.5t-35.5 -14t-13.5 -37q0 -22 13.5 -36.5t35.5 -14.5t36 14.5z" />
    <glyph glyph-name="ogonek" unicode="&#x2db;" horiz-adv-x="400" 
d="M122.5 -202q-28.5 25 -28.5 74q0 82 102 132h78q-98 -63 -98 -117q0 -17 13 -28.5t40 -11.5q21 0 59 15l16 -52q-19 -17 -46 -27t-56 -10q-51 0 -79.5 25z" />
    <glyph glyph-name="tilde" unicode="&#x2dc;" horiz-adv-x="400" 
d="M71 641q26 31 68 31q19 0 36 -7t40 -21q12 -7 24 -13t21 -6q26 0 28 51h67q0 -59 -27.5 -90t-68.5 -31q-21 0 -40.5 8.5t-41.5 22.5q-27 16 -36 16q-12 0 -20 -13t-9 -34h-67q0 55 26 86z" />
    <glyph glyph-name="hungarumlaut" unicode="&#x2dd;" horiz-adv-x="400" 
d="M116 722h111l-116 -167h-91zM282 722h112l-116 -167h-91z" />
    <glyph glyph-name="gravecomb" unicode="&#x300;" 
d="M-150 712h112l83 -157h-91z" />
    <glyph glyph-name="acutecomb" unicode="&#x301;" 
d="M39 712h111l-103 -157h-91z" />
    <glyph glyph-name="uni0302" unicode="&#x302;" 
d="M-34 711h68l127 -156h-99l-62 81l-62 -81h-99z" />
    <glyph glyph-name="tildecomb" unicode="&#x303;" 
d="M-134.5 641q27.5 31 69.5 31q19 0 36 -7t40 -21q12 -7 24 -13t21 -6q14 0 20.5 12.5t8.5 38.5h70q0 -58 -28.5 -89.5t-71.5 -31.5q-21 0 -40.5 8.5t-41.5 22.5q-27 16 -36 16q-12 0 -20 -13t-9 -34h-70q0 55 27.5 86z" />
    <glyph glyph-name="uni0304" unicode="&#x304;" 
d="M-166 645h332v-76h-332v76z" />
    <glyph glyph-name="uni0306" unicode="&#x306;" 
d="M-114.5 592q-41.5 37 -42.5 109h75q2 -35 22.5 -54.5t59.5 -19.5q37 0 59 19t23 55h75q-1 -70 -41 -108t-116 -38q-73 0 -114.5 37z" />
    <glyph glyph-name="uni0307" unicode="&#x307;" 
d="M-44.5 572.5q-17.5 17.5 -17.5 43.5t17.5 43.5t44.5 17.5t44.5 -17.5t17.5 -43.5t-17.5 -43.5t-44.5 -17.5t-44.5 17.5z" />
    <glyph glyph-name="uni0308" unicode="&#x308;" 
d="M-148 572.5q-18 17.5 -18 43.5t18 43.5t44 17.5t44 -17.5t18 -43.5t-18 -43.5t-44 -17.5t-44 17.5zM60 572.5q-18 17.5 -18 43.5t18 43.5t44 17.5t44 -17.5t18 -43.5t-18 -43.5t-44 -17.5t-44 17.5z" />
    <glyph glyph-name="hookabovecomb" unicode="&#x309;" 
d="M-32 599q11 17 31 35q16 15 23.5 26t7.5 26q0 28 -36 28q-39 0 -64 -48l-48 44q18 32 49.5 50.5t71.5 18.5q51 0 80 -23t29 -65q0 -24 -10 -40.5t-30 -37.5q-17 -19 -24.5 -30.5t-7.5 -27.5h-83q0 27 11 44z" />
    <glyph glyph-name="uni030A" unicode="&#x30a;" 
d="M-73.5 573.5q-28.5 26.5 -28.5 69.5t28.5 70t73.5 27t73.5 -27t28.5 -70t-28.5 -69.5t-73.5 -26.5t-73.5 26.5zM36 606.5q14 14.5 14 36.5t-14 36.5t-36 14.5t-36 -14.5t-14 -36.5t14 -36.5t36 -14.5t36 14.5z" />
    <glyph glyph-name="uni030B" unicode="&#x30b;" 
d="M-61 712h112l-104 -157h-91zM100 712h111l-103 -157h-91z" />
    <glyph glyph-name="uni030C" unicode="&#x30c;" 
d="M-161 711h99l62 -82l62 82h99l-127 -156h-68z" />
    <glyph glyph-name="uni031B" unicode="&#x31b;" 
d="M-100 369q51 31 71.5 65t20.5 90v47h96v-47q0 -55 -24.5 -101t-67 -76t-96.5 -38v60z" />
    <glyph glyph-name="dotbelowcomb" unicode="&#x323;" 
d="M-44.5 -177q-17.5 17 -17.5 44q0 26 17.5 43.5t44.5 17.5t44.5 -17.5t17.5 -43.5q0 -27 -17.5 -44t-44.5 -17t-44.5 17z" />
    <glyph glyph-name="uni0324" unicode="&#x324;" 
d="M-151.5 -177q-17.5 17 -17.5 44q0 26 17.5 43.5t44.5 17.5q26 0 44 -17.5t18 -43.5q0 -27 -17.5 -44t-44.5 -17t-44.5 17zM62.5 -177q-17.5 17 -17.5 44q0 26 18 43.5t44 17.5q27 0 44.5 -17.5t17.5 -43.5q0 -27 -17.5 -44t-44.5 -17t-44.5 17z" />
    <glyph glyph-name="uni0326" unicode="&#x326;" 
d="M53 -93q20 -21 20 -55q0 -37 -20.5 -78.5t-53.5 -71.5l-46 35q29 38 42 63q-27 2 -44 19t-17 44q0 29 18 47t47 18q34 0 54 -21z" />
    <glyph glyph-name="uni0327" unicode="&#x327;" 
d="M-65.5 -230q-24.5 5 -39.5 13l12 50q28 -11 63 -11q21 0 34 9.5t13 26.5q0 16 -19 25t-52 8l-26 29l53 93h74l-43 -78q42 0 67.5 -20t25.5 -55q0 -43 -31 -69t-83 -26q-24 0 -48.5 5z" />
    <glyph glyph-name="uni0328" unicode="&#x328;" 
d="M-97.5 -202q-28.5 25 -28.5 74q0 84 102 134h66v-6q-86 -59 -86 -113q0 -17 13 -28.5t40 -11.5q21 0 59 15l16 -52q-19 -17 -46 -27t-56 -10q-51 0 -79.5 25z" />
    <glyph glyph-name="uni032E" unicode="&#x32e;" 
d="M-114 -181q-41 37 -42 109h75q1 -35 21.5 -54.5t59.5 -19.5q37 0 59 19t23 55h75q-1 -70 -41 -108t-116 -38q-73 0 -114 37z" />
    <glyph glyph-name="uni0331" unicode="&#x331;" 
d="M-166 -69h332v-76h-332v76z" />
    <glyph glyph-name="uni0394" unicode="&#x394;" horiz-adv-x="653" 
d="M8 54l289 646h59l290 -646v-54h-638v54zM511 91l-184 432l-184 -432h368z" />
    <glyph glyph-name="uni03A9" unicode="&#x3a9;" horiz-adv-x="775" 
d="M37 95h156q-64 49 -101 129t-37 170q0 97 40.5 168.5t115.5 109.5t177 38t177 -38t115 -109.5t40 -168.5q0 -90 -36.5 -169.5t-99.5 -129.5h155v-95h-302v104q73 22 115 96.5t42 183.5q0 104 -55 164t-151 60t-151 -60t-55 -164q0 -110 42.5 -185t115.5 -94v-105h-303v95
z" />
    <glyph glyph-name="uni03BC" unicode="&#x3bc;" horiz-adv-x="558" 
d="M53 500h113v-285q0 -133 97 -133q56 0 91.5 43.5t35.5 108.5v266h113v-380q0 -53 9 -120h-106q-9 33 -10 75h-3q-20 -42 -52 -63.5t-80 -21.5q-58 0 -96 35v-233h-112v708z" />
    <glyph glyph-name="pi" unicode="&#x3c0;" horiz-adv-x="663" 
d="M455.5 15.5q-28.5 25.5 -28.5 77.5v321h-201v-415h-113v415h-92v86h612v-86h-92v-290q0 -40 38 -40q20 0 47 9v-81q-44 -22 -92 -22q-50 0 -78.5 25.5z" />
    <glyph glyph-name="uni0E01" unicode="&#xe01;" horiz-adv-x="590" 
d="M70 239q0 36 19 65.5t52 44.5q-44 12 -104 17q2 65 34 115t89 77.5t130 27.5q69 0 122 -25.5t82 -72t29 -107.5v-381h-113v370q0 57 -35 92t-93 35q-49 0 -87.5 -21.5t-52.5 -57.5q34 -6 66 -18t51 -27v-30q-36 -12 -56 -38t-20 -61v-244h-113v239z" />
    <glyph glyph-name="uni0E02" unicode="&#xe02;" horiz-adv-x="619" 
d="M552 576v-437q0 -71 -46 -110t-132 -39t-132 39t-46 110v82q0 29 10 50.5t30 53.5q21 30 32 54.5t11 56.5q0 37 -22.5 56t-60.5 19t-63 -14h4q39 0 66.5 -25.5t27.5 -71.5q0 -42 -28 -72t-78 -30q-52 0 -81.5 33t-29.5 92q0 72 49.5 117.5t137.5 45.5q82 0 131.5 -37
t49.5 -104q0 -38 -10 -65t-30 -63q-16 -26 -24 -46.5t-8 -44.5v-89q0 -28 16.5 -42.5t48.5 -14.5q31 0 47.5 14.5t16.5 42.5v439h113zM157.5 431q-12.5 12 -32.5 12q-19 0 -31.5 -12t-12.5 -32t12 -32.5t32 -12.5t32.5 12.5t12.5 32.5t-12.5 32z" />
    <glyph glyph-name="uni0E03" unicode="&#xe03;" horiz-adv-x="639" 
d="M572 576v-437q0 -71 -46 -110t-132 -39t-131.5 39t-45.5 110v65q0 31 10.5 55.5t32.5 57.5q22 35 33 60.5t11 58.5q0 24 -8 42.5t-24 27.5l-57 -47l-63 46q-26 -18 -35 -50q4 1 13 1q44 0 71.5 -27.5t27.5 -71.5q0 -45 -28.5 -72t-74.5 -27q-50 0 -81 37.5t-31 97.5
q0 71 38 124.5t101 68.5l62 -52l62 52q56 -10 93 -46t37 -92q0 -42 -11 -72t-33 -68q-17 -31 -25 -51.5t-8 -45.5v-74q0 -28 16.5 -42.5t48.5 -14.5q31 0 47.5 14.5t16.5 42.5v439h113zM158.5 389.5q-12.5 12.5 -32.5 12.5t-32 -12.5t-12 -32.5q0 -19 12.5 -31.5t31.5 -12.5
q20 0 32.5 12.5t12.5 31.5q0 20 -12.5 32.5z" />
    <glyph glyph-name="uni0E04" unicode="&#xe04;" horiz-adv-x="617" 
d="M482 534.5q68 -51.5 68 -142.5v-392h-113v381q0 53 -37.5 84.5t-102.5 31.5q-71 0 -112 -34t-41 -92q0 -24 10 -88l3 -22q17 65 52.5 101.5t86.5 36.5q47 0 74.5 -25t27.5 -68t-25.5 -68t-69.5 -25q-24 0 -44 8.5t-30 25.5q-18 -25 -29 -62.5t-11 -73.5v-111h-111v148
q0 23 -19 93q-12 45 -18.5 75t-6.5 55q0 65 31.5 113.5t91 75t140.5 26.5q117 0 185 -51.5zM271 336q-11 -11 -11 -30q0 -18 11 -29.5t30 -11.5q18 0 29.5 11.5t11.5 29.5q0 19 -11.5 30t-29.5 11q-19 0 -30 -11z" />
    <glyph glyph-name="uni0E05" unicode="&#xe05;" horiz-adv-x="621" 
d="M513.5 522q40.5 -54 40.5 -134v-388h-113v387q0 41 -10 66t-33 41l-97 -64l-104 68q-28 -18 -40.5 -47.5t-12.5 -76.5q0 -27 12 -109l3 -23q18 62 53 97.5t86 35.5q47 0 74 -24.5t27 -67.5t-26 -68.5t-69 -25.5q-22 0 -42.5 10t-31.5 27q-18 -26 -29.5 -60t-11.5 -68v-98
h-111v148q0 15 -6 40t-13 52q-12 46 -18.5 76.5t-6.5 55.5q0 81 42.5 139t125.5 75l100 -71l102 71q69 -10 109.5 -64zM272.5 312.5q-11.5 -11.5 -11.5 -29.5q0 -19 11.5 -30.5t29.5 -11.5q19 0 30 11.5t11 30.5q0 18 -11 29.5t-30 11.5q-18 0 -29.5 -11.5z" />
    <glyph glyph-name="uni0E06" unicode="&#xe06;" horiz-adv-x="665" 
d="M598 577v-577h-104q-19 40 -55 71t-80 48q2 -8 2 -14q0 -50 -35 -82.5t-90 -32.5q-54 0 -88 32t-34 82q0 47 31 77.5t75 32.5q0 27 9.5 50t29.5 55q21 34 32 60t11 57q0 24 -8.5 42.5t-24.5 27.5l-56 -47l-61 46q-26 -18 -35 -50q4 1 13 1q44 0 71.5 -27.5t27.5 -71.5
q0 -45 -28.5 -72t-74.5 -27q-50 0 -81 37.5t-31 97.5q0 71 38 124.5t101 68.5l60 -52l61 52q55 -10 91.5 -46t36.5 -92q0 -39 -11 -69t-31 -65q-15 -28 -22.5 -46.5t-7.5 -39.5v-17q103 -18 155 -78v444h113zM158.5 389.5q-12.5 12.5 -32.5 12.5t-32 -12.5t-12 -32.5
q0 -19 12.5 -31.5t31.5 -12.5q20 0 32.5 12.5t12.5 31.5q0 20 -12.5 32.5zM267 69q13 13 13 33t-13 33t-33 13t-33 -13t-13 -33t13 -33t33 -13t33 13z" />
    <glyph glyph-name="uni0E07" unicode="&#xe07;" horiz-adv-x="473" 
d="M373 554.5q33 -31.5 33 -81.5v-473h-113l-277 297l62 65l214 -232v246q-4 -1 -13 -1q-47 0 -76.5 29.5t-29.5 76.5q0 46 32 75.5t82 29.5q53 0 86 -31.5zM312 447.5q13 12.5 13 32.5t-13 33t-33 13t-32.5 -13t-12.5 -33q0 -19 13 -32t32 -13q20 0 33 12.5z" />
    <glyph glyph-name="uni0E08" unicode="&#xe08;" horiz-adv-x="566" 
d="M257.5 14q-35.5 24 -42.5 69l-16 93q-12 -4 -24 -4q-47 0 -77 27.5t-30 70.5q0 45 31.5 72t76.5 27q38 0 66.5 -21.5t35.5 -56.5l33 -184q2 -13 12.5 -21t25.5 -8q18 0 27.5 9t9.5 26v298q0 39 -32.5 62.5t-85.5 23.5t-89 -23.5t-44 -61.5h-112q6 80 72 127t175 47
q104 0 166.5 -44.5t62.5 -118.5v-311q0 -59 -37.5 -90.5t-110.5 -31.5q-58 0 -93.5 24zM200.5 241q11.5 12 11.5 31t-11.5 30.5t-30.5 11.5t-30.5 -11.5t-11.5 -30.5t11.5 -31t30.5 -12t30.5 12z" />
    <glyph glyph-name="uni0E09" unicode="&#xe09;" horiz-adv-x="586" 
d="M516.5 146q14.5 -24 14.5 -52q0 -46 -30.5 -75.5t-77.5 -29.5q-49 0 -81 26.5t-36 69.5q-60 -34 -90 -85h-110v122q0 29 13 50q-37 4 -61.5 30.5t-24.5 66.5q0 43 29 70t75 27q48 0 75.5 -25.5t27.5 -67.5q0 -26 -16 -68q-13 -33 -13 -50v-49q21 27 59 49.5t79 37.5
q22 8 37 29.5t15 52.5v136q0 39 -33.5 62.5t-89.5 23.5q-55 0 -94 -23.5t-46 -62.5h-112q4 52 37 92t89 61.5t127 21.5q69 0 122.5 -21t83 -59.5t29.5 -88.5v-139q0 -60 -38 -95q26 -13 40.5 -37zM166 238.5q12 11.5 12 30.5t-12 30.5t-31 11.5q-18 0 -30 -11.5t-12 -30.5
t12 -30.5t30 -11.5q19 0 31 11.5zM450.5 61.5q12.5 12.5 12.5 32.5t-12.5 32.5t-32.5 12.5q-19 0 -31.5 -12.5t-12.5 -32.5t12 -32.5t32 -12.5t32.5 12.5z" />
    <glyph glyph-name="uni0E0A" unicode="&#xe0a;" horiz-adv-x="635" 
d="M551.5 420.5q16.5 -25.5 16.5 -62.5v-219q0 -70 -49 -109.5t-137 -39.5t-137 39t-49 110v82q0 29 10 50.5t30 53.5q21 30 32 54.5t11 56.5q0 37 -22.5 56t-60.5 19t-63 -14h4q39 0 66.5 -25.5t27.5 -71.5q0 -42 -28 -72t-78 -30q-52 0 -81.5 33t-29.5 92q0 72 49.5 117.5
t137.5 45.5q81 0 127.5 -36.5t46.5 -104.5q0 -38 -9 -65t-27 -63q-15 -27 -22 -47t-7 -44v-89q0 -27 19 -42t54 -15q34 0 53 15t19 42v216q0 31 -12.5 47.5t-41.5 25.5v57q39 17 58 47t21 81h116q-4 -52 -31.5 -94t-58.5 -59q29 -12 45.5 -37.5zM157.5 431
q-12.5 12 -32.5 12t-32 -12t-12 -32t12 -32.5t32 -12.5t32.5 12.5t12.5 32.5t-12.5 32z" />
    <glyph glyph-name="uni0E0B" unicode="&#xe0b;" horiz-adv-x="650" 
d="M566.5 420.5q16.5 -25.5 16.5 -62.5v-219q0 -72 -47 -110.5t-137 -38.5q-87 0 -134.5 39t-47.5 110v65q0 31 10.5 54.5t31.5 58.5q22 36 32.5 61.5t10.5 57.5q0 51 -33 70l-56 -47l-61 46q-26 -18 -35 -50q4 1 13 1q44 0 71.5 -27.5t27.5 -71.5q0 -45 -28.5 -72
t-74.5 -27q-50 0 -81 37.5t-31 97.5q0 71 38 124.5t101 68.5l60 -52l61 52q58 -10 93 -45t35 -93q0 -42 -10.5 -72.5t-30.5 -67.5q-16 -31 -23.5 -51.5t-7.5 -45.5v-74q0 -27 19 -42t51 -15q70 0 70 57v216q0 32 -10 48t-38 25v57q38 16 54.5 45.5t18.5 82.5h116
q-4 -52 -31.5 -94t-58.5 -59q29 -12 45.5 -37.5zM158.5 389.5q-12.5 12.5 -32.5 12.5t-32 -12.5t-12 -32.5q0 -19 12.5 -31.5t31.5 -12.5q20 0 32.5 12.5t12.5 31.5q0 20 -12.5 32.5z" />
    <glyph glyph-name="uni0E0C" unicode="&#xe0c;" horiz-adv-x="824" 
d="M757 577v-577h-101q-17 32 -49.5 60t-72.5 48v-6q0 -48 -31 -80t-80 -32q-50 0 -82.5 31.5t-32.5 79.5q0 36 23 64.5t59 38.5v168q0 58 -29.5 91.5t-85.5 33.5q-48 0 -83 -20.5t-50 -57.5q79 -16 117 -46v-29q-36 -12 -56 -37.5t-20 -62.5v-42q42 -1 67.5 -32t25.5 -74
q0 -46 -30.5 -76t-80.5 -30t-81 30t-31 76q0 32 17 58v85q0 37 18.5 66t52.5 44q-40 12 -104 17q2 66 32.5 115.5t85.5 77t127 27.5q102 0 161.5 -55t59.5 -148v-179q34 -10 72 -28.5t68 -43.5v445h114zM451.5 69q12.5 13 12.5 33t-12.5 32.5t-32.5 12.5t-33 -12.5
t-13 -32.5t13 -33t33 -13t32.5 13zM132.5 129q-12.5 -13 -12.5 -33t12.5 -32.5t32.5 -12.5t32.5 12.5t12.5 32.5t-12.5 33t-32.5 13t-32.5 -13z" />
    <glyph glyph-name="uni0E0D" unicode="&#xe0d;" horiz-adv-x="843" 
d="M776 576v-446q0 -65 -53.5 -102.5t-141.5 -37.5q-89 0 -142 37.5t-53 102.5v240q0 59 -31 93t-86 34q-46 0 -79 -21t-48 -58q35 -6 66.5 -18t50.5 -27v-30q-36 -12 -56 -37.5t-20 -61.5v-45q4 1 13 1q47 0 77 -29t30 -75q0 -47 -32 -76.5t-82 -29.5q-52 0 -85.5 31.5
t-33.5 81.5v136q0 36 19 65.5t52 44.5q-41 13 -104 17q3 103 66 161.5t173 58.5q105 0 164 -54.5t59 -150.5v-244q0 -27 22.5 -42t59.5 -15t59.5 15t22.5 42v439h113zM163.5 128.5q-12.5 -12.5 -12.5 -32.5t12.5 -33t32.5 -13t33 13t13 33t-13 32.5t-33 12.5t-32.5 -12.5z
M648.5 -170q32.5 42 32.5 110h95q-1 -101 -58 -159.5t-160 -58.5q-53 0 -94 16.5t-64 46t-23 65.5q0 42 26.5 67t68.5 25q44 0 69.5 -23t25.5 -63q0 -19 -9 -36.5t-24 -27.5q18 -4 29 -4q53 0 85.5 42zM444 -174.5q10 -10.5 27 -10.5t27.5 10.5t10.5 27.5t-10.5 27.5
t-27.5 10.5q-16 0 -26.5 -10.5t-10.5 -27.5t10 -27.5z" />
    <glyph glyph-name="uni0E0E" unicode="&#xe0e;" horiz-adv-x="619" 
d="M490 531q62 -55 62 -150v-697h-110q-17 31 -49 59.5t-71 48.5q-12 -50 -47.5 -81t-91.5 -31q-53 0 -88.5 25t-35.5 72q0 52 39.5 81t109.5 29q30 0 63 -9q12 38 40 58l60 -24q-26 -20 -36 -59q64 -31 104 -71v588q0 59 -34 93t-90 34q-46 0 -83 -20.5t-52 -58.5
q35 -6 68 -18.5t52 -26.5v-30q-32 -10 -49 -32t-17 -50q0 -10 6 -48q12 -58 12 -104q0 -54 -34 -86.5t-89 -32.5q-50 0 -81 29t-31 76t28.5 77t74.5 30q15 0 24 -4q-9 34 -9 58q0 28 12 53.5t33 39.5q-39 13 -105 17q2 64 32.5 114t86 78t129.5 28q105 0 167 -55zM157 63.5
q13 12.5 13 32.5t-13 33t-33 13t-32.5 -13t-12.5 -33q0 -19 13 -32t32 -13q20 0 33 12.5zM230 -238q18 21 27 56q-30 8 -56 8q-30 0 -48 -11.5t-18 -33.5q0 -19 12.5 -29.5t36.5 -10.5q28 0 46 21z" />
    <glyph glyph-name="uni0E0F" unicode="&#xe0f;" horiz-adv-x="619" 
d="M490 531q62 -55 62 -150v-697h-105l-75 92l-55 -92q-33 46 -63 77q-11 -39 -41.5 -61.5t-70.5 -22.5q-53 0 -83.5 27t-30.5 72q0 48 32 75t85 27q29 0 56 -9q13 46 61 73l53 -30q-47 -29 -54 -76q26 -20 53 -56l51 81l74 -82v591q0 59 -34 93t-90 34q-46 0 -83 -20.5
t-52 -58.5q35 -6 68 -18.5t52 -26.5v-30q-32 -10 -49 -32t-17 -50q0 -10 6 -48q12 -58 12 -104q0 -54 -34 -86.5t-89 -32.5q-50 0 -81 29t-31 76t28.5 77t74.5 30q15 0 24 -4q-9 34 -9 58q0 28 12 53.5t33 39.5q-39 13 -105 17q2 64 32.5 114t86 78t129.5 28q105 0 167 -55z
M157 63.5q13 12.5 13 32.5t-13 33t-33 13t-32.5 -13t-12.5 -33q0 -19 13 -32t32 -13q20 0 33 12.5zM196 -194q-24 11 -46 11q-25 0 -39 -10.5t-14 -30.5q0 -19 11.5 -29.5t32.5 -10.5q52 0 55 70z" />
    <glyph glyph-name="uni0E10" unicode="&#xe10;" horiz-adv-x="562" 
d="M363.5 318q-8.5 11 -27.5 19q-40 17 -130.5 34.5t-170.5 24.5q1 85 46 137.5t120 52.5q37 0 133 -20q11 -2 31.5 -6t27.5 -4q37 0 42 35l79 -18q-6 -49 -35 -77t-78 -28q-21 0 -99 20q-76 20 -97 20q-20 0 -34 -11.5t-18 -29.5q57 -7 130.5 -22.5t107.5 -27.5
q46 -17 70 -43t24 -58v-199q0 -58 -45.5 -92.5t-120.5 -34.5t-119.5 34.5t-44.5 92.5v34h-7q-45 0 -72.5 27.5t-27.5 72.5q0 44 30 71.5t79 27.5q50 0 77.5 -28.5t27.5 -77.5v-116q0 -22 14.5 -35t39.5 -13q26 0 41 13t15 35v164q0 15 -8.5 26zM119 221.5q12 -11.5 31 -11.5
t30.5 11.5t11.5 30.5t-11.5 30.5t-30.5 11.5t-31 -11.5t-12 -30.5t12 -30.5zM461.5 -91.5q25.5 -19.5 25.5 -49.5v-169h-92l-55 37l-69 -40q-33 48 -61 73q-15 -36 -40 -56t-71 -20q-43 0 -69 23.5t-26 58.5q0 39 32 60.5t84 21.5q23 0 49 -7q6 34 16 56.5t32 34.5l59 -32
q-19 -11 -29.5 -32t-20.5 -56q29 -22 59 -60l59 31l56 -37v46q-3 -1 -13 -1q-32 0 -52.5 19.5t-20.5 49.5t22.5 49t62.5 19q37 0 62.5 -19.5zM402 -160.5q8 8.5 8 21.5t-8 21t-19 8q-12 0 -20 -8t-8 -21t8 -21.5t20 -8.5q11 0 19 8.5zM142 -245q11 12 18 36q-20 6 -39 6
q-21 0 -33 -7t-12 -21q0 -11 9 -18.5t24 -7.5q22 0 33 12z" />
    <glyph glyph-name="uni0E11" unicode="&#xe11;" horiz-adv-x="743" 
d="M647.5 555.5q28.5 -30.5 28.5 -94.5v-461h-113v465q0 16 -4.5 23.5t-15.5 7.5q-17 0 -26 -24l-179 -472h-121v204q0 33 10.5 64.5t31.5 75.5q17 37 25 59t8 43q0 42 -33 60l-49 -47l-58 46q-26 -18 -35 -50q4 1 13 1q44 0 71.5 -27.5t27.5 -71.5q0 -45 -28.5 -72
t-74.5 -27q-50 0 -81 37.5t-31 97.5q0 71 38 124.5t101 68.5l62 -52l62 52q56 -10 86.5 -44.5t30.5 -93.5q0 -27 -8 -52t-24 -61q-16 -35 -24 -59t-8 -51q0 -43 -7 -114l34 141l80 237q15 48 45.5 72.5t78.5 24.5q58 0 86.5 -30.5zM158.5 389.5q-12.5 12.5 -32.5 12.5
t-32 -12.5t-12 -32.5q0 -19 12.5 -31.5t31.5 -12.5q20 0 32.5 12.5t12.5 31.5q0 20 -12.5 32.5z" />
    <glyph glyph-name="uni0E12" unicode="&#xe12;" horiz-adv-x="861" 
d="M794 577v-577h-102q-15 32 -46 61.5t-70 47.5v-8q0 -48 -31 -79.5t-81 -31.5q-51 0 -82.5 31t-31.5 79q0 35 22.5 64t59.5 40v183q0 40 -10.5 65.5t-33.5 41.5l-91 -64l-100 68q-53 -35 -53 -124q0 -38 21 -111q11 -45 16 -69t5 -49q18 20 46 42q26 22 37 33
q-31 4 -50 27.5t-19 56.5q0 40 26.5 65t69.5 25q42 0 68.5 -26t26.5 -67q0 -37 -23 -67t-71 -73q-51 -45 -78 -80t-29 -81h-110v140q0 13 -6 39t-13 54q-13 48 -20 81t-7 58q0 76 43.5 137t124.5 77l96 -72l96 72q68 -10 109 -64.5t41 -133.5v-185q35 -8 71 -26.5t66 -44.5
v445h113zM265.5 274q11.5 -11 29.5 -11q19 0 30.5 11t11.5 30t-11.5 30t-30.5 11q-18 0 -29.5 -11t-11.5 -30t11.5 -30zM493.5 69q12.5 13 12.5 33t-12.5 32.5t-32.5 12.5t-33 -12.5t-13 -32.5t13 -33t33 -13t32.5 13z" />
    <glyph glyph-name="uni0E13" unicode="&#xe13;" horiz-adv-x="867" 
d="M804.5 159.5q17.5 -24.5 17.5 -55.5q0 -52 -31 -83t-82 -31q-49 0 -79 29.5t-32 78.5q-56 -30 -95 -98h-109v372q0 58 -29.5 91.5t-86.5 33.5q-49 0 -85.5 -21.5t-50.5 -57.5q78 -14 117 -45v-30q-36 -12 -56 -37t-20 -62v-45q4 1 13 1q47 0 77 -29t30 -75
q0 -47 -32 -76.5t-82 -29.5q-52 0 -85.5 31.5t-33.5 81.5v136q0 37 18.5 65.5t52.5 44.5q-40 12 -104 17q2 65 33.5 115t87 77.5t127.5 27.5q103 0 162 -54.5t59 -148.5v-265q16 21 39.5 39t47.5 30q45 22 67 42.5t22 56.5v291h113v-291q0 -29 -10.5 -52.5t-29.5 -36.5
q32 -13 49.5 -37.5zM742 63.5q13 12.5 13 32.5t-13 33t-33 13t-32.5 -13t-12.5 -33q0 -19 13 -32t32 -13q20 0 33 12.5zM163.5 128.5q-12.5 -12.5 -12.5 -32.5t12.5 -33t32.5 -13t33 13t13 33t-13 32.5t-33 12.5t-32.5 -12.5z" />
    <glyph glyph-name="uni0E14" unicode="&#xe14;" horiz-adv-x="607" 
d="M472.5 529q67.5 -57 67.5 -156v-373h-114v375q0 57 -37 89.5t-99 32.5q-66 0 -104.5 -35t-38.5 -87q0 -19 5.5 -47t12.5 -55q10 -38 15 -64t5 -49v-10q21 27 84 81q-32 4 -52.5 28t-20.5 59q0 39 26 64.5t68 25.5t69.5 -26t27.5 -67q0 -38 -22.5 -69t-68.5 -75
q-50 -49 -76.5 -86t-29.5 -85h-111v145q0 17 -8 49t-10 42q-13 48 -20 83t-7 63q0 57 31.5 103.5t89.5 73.5t134 27q116 0 183.5 -57zM260.5 288.5q11.5 -11.5 30.5 -11.5q18 0 29.5 11.5t11.5 29.5q0 19 -11.5 30t-29.5 11q-19 0 -30.5 -11t-11.5 -30q0 -18 11.5 -29.5z
" />
    <glyph glyph-name="uni0E15" unicode="&#xe15;" horiz-adv-x="621" 
d="M513.5 522q40.5 -54 40.5 -134v-388h-113v387q0 41 -10 66t-33 41l-97 -64l-104 68q-28 -18 -40.5 -47.5t-12.5 -76.5q0 -22 5 -44.5t16 -65.5q10 -38 15 -60.5t5 -43.5v-17q12 16 51 49l32 28q-29 4 -47.5 26.5t-18.5 55.5q0 39 27 64.5t69 25.5q41 0 68 -26.5t27 -66.5
q0 -37 -23 -66.5t-70 -69.5q-52 -44 -79.5 -79.5t-30.5 -83.5h-111v145q0 13 -6 38.5t-13 52.5q-13 50 -19.5 80.5t-6.5 55.5q0 81 42.5 139t125.5 75l100 -71l102 71q69 -10 109.5 -64zM266.5 271.5q11.5 -11.5 30.5 -11.5q18 0 29.5 11.5t11.5 30.5q0 18 -11.5 29.5
t-29.5 11.5q-19 0 -30.5 -11.5t-11.5 -29.5q0 -19 11.5 -30.5z" />
    <glyph glyph-name="uni0E16" unicode="&#xe16;" horiz-adv-x="593" 
d="M414.5 560.5q53.5 -25.5 82.5 -72t29 -107.5v-381h-113v370q0 57 -35.5 92t-93.5 35q-50 0 -89 -21.5t-53 -57.5q34 -6 66 -18t51 -27v-30q-36 -12 -56 -38t-20 -61v-45q4 1 13 1q47 0 77 -29t30 -75q0 -47 -32 -76.5t-82 -29.5q-52 0 -85.5 31.5t-33.5 81.5v136
q0 36 19 65.5t52 44.5q-44 12 -104 17q2 65 34.5 115t89.5 77.5t131 27.5q69 0 122.5 -25.5zM163.5 128.5q-12.5 -12.5 -12.5 -32.5t12.5 -33t32.5 -13t33 13t13 33t-13 32.5t-33 12.5t-32.5 -12.5z" />
    <glyph glyph-name="uni0E17" unicode="&#xe17;" horiz-adv-x="671" 
d="M573.5 553.5q30.5 -32.5 30.5 -95.5v-458h-113v456q0 39 -25 39q-21 0 -30 -23l-181 -472h-119v376q-4 -1 -13 -1q-47 0 -76.5 29.5t-29.5 76.5q0 46 32 75.5t82 29.5q53 0 86 -31.5t33 -81.5v-240q0 -43 -8 -113l32 133l81 236q16 48 49 72.5t80 24.5q59 0 89.5 -32.5z
M156 447.5q13 12.5 13 32.5t-13 33t-33 13t-32.5 -13t-12.5 -33q0 -19 13 -32t32 -13q20 0 33 12.5z" />
    <glyph glyph-name="uni0E18" unicode="&#xe18;" horiz-adv-x="570" 
d="M125 26.5q-57 36.5 -57 98.5v185h113v-175q0 -26 25.5 -40.5t71.5 -14.5t71.5 14.5t25.5 40.5v145q0 22 -12.5 34t-55.5 22q-43 11 -122.5 23.5t-140.5 15.5q1 99 48.5 155t128.5 56q28 0 51 -5t59 -15q46 -13 64 -13q37 0 46 35l80 -20q-26 -104 -110 -104
q-17 0 -39.5 5t-44.5 11q-59 17 -88 17t-49 -13.5t-21 -35.5q66 -7 133.5 -20t104.5 -25q45 -15 63.5 -38.5t18.5 -58.5v-181q0 -62 -57.5 -98.5t-153.5 -36.5t-153 36.5z" />
    <glyph glyph-name="uni0E19" unicode="&#xe19;" horiz-adv-x="646" 
d="M583 159q18 -24 18 -55q0 -51 -31 -82.5t-82 -31.5q-50 0 -80.5 30.5t-31.5 79.5q-39 -16 -73.5 -43t-55.5 -57h-111v376q-4 -1 -13 -1q-47 0 -76.5 29.5t-29.5 76.5q0 46 32 75.5t82 29.5q53 0 86 -31.5t33 -81.5v-359q22 28 107 68q58 27 80.5 49t22.5 55v291h114v-291
q0 -29 -11 -52.5t-30 -36.5q32 -14 50 -38zM156 447.5q13 12.5 13 32.5t-13 33t-33 13t-32.5 -13t-12.5 -33q0 -19 13 -32t32 -13q20 0 33 12.5zM520.5 63.5q12.5 12.5 12.5 32.5t-12.5 33t-32.5 13t-32.5 -13t-12.5 -33t12.5 -32.5t32.5 -12.5t32.5 12.5z" />
    <glyph glyph-name="uni0E1A" unicode="&#xe1a;" horiz-adv-x="649" 
d="M582 577v-448q0 -65 -59.5 -102t-162.5 -37q-104 0 -164 37t-60 102v247q-4 -1 -13 -1q-47 0 -76.5 29.5t-29.5 76.5q0 46 32 75.5t82 29.5q53 0 86 -31.5t33 -81.5v-329q0 -29 29.5 -46.5t80.5 -17.5q50 0 79.5 17.5t29.5 46.5v433h113zM156 447.5q13 12.5 13 32.5
t-13 33t-33 13t-32.5 -13t-12.5 -33q0 -19 13 -32t32 -13q20 0 33 12.5z" />
    <glyph glyph-name="uni0E1B" unicode="&#xe1b;" horiz-adv-x="664" 
d="M597 817v-688q0 -65 -61 -102t-169 -37q-107 0 -169 37.5t-62 101.5v247q-4 -1 -13 -1q-47 0 -76.5 29.5t-29.5 76.5q0 46 32 75.5t82 29.5q53 0 86 -31.5t33 -81.5v-328q0 -30 32 -47.5t85 -17.5q55 0 86 17.5t31 47.5v672h113zM156 447.5q13 12.5 13 32.5t-13 33
t-33 13t-32.5 -13t-12.5 -33q0 -19 13 -32t32 -13q20 0 33 12.5z" />
    <glyph glyph-name="uni0E1C" unicode="&#xe1c;" horiz-adv-x="640" 
d="M573 576v-576h-115l-139 217l-139 -217h-115v473q0 50 33 81.5t86 31.5q50 0 82 -29.5t32 -75.5q0 -47 -30 -76.5t-77 -29.5q-8 0 -12 1v-218l101 149h78l102 -149v418h113zM158.5 513q-12.5 -13 -12.5 -33t12.5 -32.5t32.5 -12.5t33 12.5t13 32.5t-13 33t-33 13
t-32.5 -13z" />
    <glyph glyph-name="uni0E1D" unicode="&#xe1d;" horiz-adv-x="640" 
d="M573 817v-817h-115l-139 217l-139 -217h-115v473q0 50 33 81.5t86 31.5q50 0 82 -29.5t32 -75.5q0 -47 -30 -76.5t-77 -29.5q-8 0 -12 1v-218l101 149h78l102 -149v659h113zM158.5 513q-12.5 -13 -12.5 -33t12.5 -32.5t32.5 -12.5t33 12.5t13 32.5t-13 33t-33 13
t-32.5 -13z" />
    <glyph glyph-name="uni0E1E" unicode="&#xe1e;" horiz-adv-x="733" 
d="M666 576v-576h-125l-139 442l-140 -442h-124v376q-5 -1 -15 -1q-47 0 -76.5 29.5t-29.5 76.5q0 46 32 75.5t82 29.5q53 0 86 -31.5t33 -81.5v-229q0 -25 -5 -82l21 86l93 324h86l93 -324l21 -86q-5 57 -5 82v332h112zM156 447.5q13 12.5 13 32.5t-13 33t-33 13t-32.5 -13
t-12.5 -33q0 -19 13 -32t32 -13q20 0 33 12.5z" />
    <glyph glyph-name="uni0E1F" unicode="&#xe1f;" horiz-adv-x="733" 
d="M666 817v-817h-125l-139 442l-140 -442h-124v376q-5 -1 -15 -1q-47 0 -76.5 29.5t-29.5 76.5q0 46 32 75.5t82 29.5q53 0 86 -31.5t33 -81.5v-229q0 -25 -5 -82l21 86l93 324h86l93 -324l21 -86q-5 57 -5 82v573h112zM156 447.5q13 12.5 13 32.5t-13 33t-33 13t-32.5 -13
t-12.5 -33q0 -19 13 -32t32 -13q20 0 33 12.5z" />
    <glyph glyph-name="uni0E20" unicode="&#xe20;" horiz-adv-x="626" 
d="M496 531q63 -55 63 -150v-381h-114v370q0 59 -34.5 93t-92.5 34q-47 0 -85 -20.5t-53 -58.5q35 -6 68 -18.5t52 -26.5v-30q-32 -10 -49 -32t-17 -50q0 -10 6 -48q12 -58 12 -104q0 -54 -33.5 -86.5t-89.5 -32.5q-50 0 -81 29t-31 76t28.5 77t74.5 30q15 0 24 -4
q-9 34 -9 58q0 28 12 53.5t33 39.5q-39 13 -105 17q2 64 33.5 114t87.5 78t130 28q107 0 170 -55zM157 63.5q13 12.5 13 32.5t-13 33t-33 13t-32.5 -13t-12.5 -33q0 -19 13 -32t32 -13q20 0 33 12.5z" />
    <glyph glyph-name="uni0E21" unicode="&#xe21;" horiz-adv-x="625" 
d="M558 577v-578h-101q-37 33 -84.5 60.5t-91.5 42.5q-1 -49 -36.5 -80.5t-88.5 -31.5t-86 32t-33 82q0 48 31.5 79t84.5 33v160q-4 -1 -13 -1q-47 0 -76.5 29.5t-29.5 76.5q0 46 31.5 75.5t82.5 29.5q52 0 85 -31.5t33 -81.5v-272q49 -16 97 -38.5t81 -43.5v458h114z
M107.5 447.5q12.5 -12.5 32.5 -12.5t33 12.5t13 32.5t-13 33t-33 13t-32.5 -13t-12.5 -33t12.5 -32.5zM185 69q13 13 13 34q0 20 -13 33t-34 13q-20 0 -33 -13t-13 -33q0 -21 13 -34t33 -13q21 0 34 13z" />
    <glyph glyph-name="uni0E22" unicode="&#xe22;" horiz-adv-x="582" 
d="M515 576v-433q0 -71 -61 -112t-168 -41q-105 0 -168 41t-63 112v59q0 66 65 97q-39 19 -56 56t-17 83q0 68 36 108t99 40q51 0 80 -26.5t29 -71.5q0 -44 -27.5 -70t-74.5 -26q-15 0 -32 5q3 -28 19 -43t40 -15h103v-84h-104q-21 0 -33.5 -13.5t-12.5 -36.5v-52
q0 -35 30.5 -54t86.5 -19q55 0 85.5 19t30.5 54v423h113zM154.5 522q-12.5 -12 -12.5 -32q0 -19 12.5 -31.5t31.5 -12.5q20 0 32 12.5t12 31.5q0 20 -12 32t-32 12q-19 0 -31.5 -12z" />
    <glyph glyph-name="uni0E23" unicode="&#xe23;" horiz-adv-x="493" 
d="M166 484q-17 -13 -18 -36q118 -12 192 -47t74 -87v-211q0 -50 -33.5 -81.5t-85.5 -31.5q-50 0 -82 29.5t-32 76.5t30 76.5t77 29.5q9 0 13 -1v95q0 28 -82 51t-191 31q1 99 43.5 153.5t116.5 54.5q27 0 49 -5t49 -14q4 -1 22.5 -6.5t33.5 -5.5q14 0 25.5 10t15.5 26
l81 -24q-13 -49 -40.5 -76t-62.5 -27q-15 0 -35 5t-39 11q-20 6 -42 11.5t-39 5.5q-23 0 -40 -13zM320.5 63.5q12.5 12.5 12.5 32.5t-12.5 33t-32.5 13t-33 -13t-13 -33t13 -32.5t33 -12.5t32.5 12.5z" />
    <glyph glyph-name="uni0E24" unicode="&#xe24;" horiz-adv-x="593" 
d="M414.5 560.5q53.5 -25.5 82.5 -72t29 -107.5v-631h-113v620q0 57 -35.5 92t-93.5 35q-50 0 -89 -21.5t-53 -57.5q34 -6 66 -18t51 -27v-30q-36 -12 -56 -38t-20 -61v-45q4 1 13 1q47 0 77 -29t30 -75q0 -47 -32 -76.5t-82 -29.5q-52 0 -85.5 31.5t-33.5 81.5v136
q0 36 19 65.5t52 44.5q-44 12 -104 17q2 65 34.5 115t89.5 77.5t131 27.5q69 0 122.5 -25.5zM163.5 128.5q-12.5 -12.5 -12.5 -32.5t12.5 -33t32.5 -13t33 13t13 33t-13 32.5t-33 12.5t-32.5 -12.5z" />
    <glyph glyph-name="uni0E25" unicode="&#xe25;" horiz-adv-x="594" 
d="M412 564.5q55 -21.5 85 -61.5t30 -93v-410h-113v225q0 40 -36 63.5t-86 23.5q-49 0 -80 -22.5t-31 -60.5v-28q4 1 13 1q47 0 76.5 -29.5t29.5 -76.5t-32 -76.5t-82 -29.5q-52 0 -85.5 31.5t-33.5 81.5v126q0 50 28 87.5t76 57.5t107 20q40 0 76 -11.5t60 -35.5v66
q0 38 -35.5 61t-95.5 23q-57 0 -96 -23t-47 -62h-110q6 80 73.5 127t179.5 47q74 0 129 -21.5zM226.5 129q-12.5 13 -32.5 13t-33 -13t-13 -33t13 -32.5t33 -12.5t32.5 13t12.5 32q0 20 -12.5 33z" />
    <glyph glyph-name="uni0E26" unicode="&#xe26;" horiz-adv-x="619" 
d="M490 531q62 -55 62 -150v-631h-113v620q0 59 -34 93t-90 34q-46 0 -83 -20.5t-52 -58.5q35 -6 68 -18.5t52 -26.5v-30q-32 -10 -49 -32t-17 -50q0 -10 6 -48q12 -58 12 -104q0 -54 -34 -86.5t-89 -32.5q-50 0 -81 29t-31 76t28.5 77t74.5 30q15 0 24 -4q-9 34 -9 58
q0 28 12 53.5t33 39.5q-39 13 -105 17q2 64 32.5 114t86 78t129.5 28q105 0 167 -55zM157 63.5q13 12.5 13 32.5t-13 33t-33 13t-32.5 -13t-12.5 -33q0 -19 13 -32t32 -13q20 0 33 12.5z" />
    <glyph glyph-name="uni0E27" unicode="&#xe27;" horiz-adv-x="527" 
d="M403 539q57 -47 57 -131v-305q0 -50 -33.5 -81.5t-85.5 -31.5q-50 0 -82 29.5t-32 76.5t30 76.5t77 29.5q9 0 13 -1v200q0 45 -27 70.5t-78 25.5q-46 0 -76.5 -26.5t-36.5 -71.5h-113q5 87 66 137t162 50q102 0 159 -47zM366.5 63.5q12.5 12.5 12.5 32.5t-12.5 33
t-32.5 13t-33 -13t-13 -33t13 -32.5t33 -12.5t32.5 12.5z" />
    <glyph glyph-name="uni0E28" unicode="&#xe28;" horiz-adv-x="617" 
d="M507 511q43 -48 43 -119v-392h-113v381q0 30 -12 52q-32 -26 -69 -48q42 -25 42 -79q0 -43 -25.5 -68t-69.5 -25q-24 0 -44 8.5t-30 25.5q-18 -25 -29 -62.5t-11 -73.5v-111h-111v148q0 23 -19 93q-12 45 -18.5 75t-6.5 55q0 99 70 157t193 58q75 0 129 -21q17 35 21 67
h126q-13 -61 -66 -121zM200.5 351.5q28.5 35.5 69.5 44.5q60 46 98 88q-29 13 -71 13q-71 0 -112 -34t-41 -92q0 -28 6 -65t7 -47q15 57 43.5 92.5zM330.5 276.5q11.5 11.5 11.5 29.5q0 19 -11.5 30t-29.5 11q-19 0 -30 -11t-11 -30q0 -18 11 -29.5t30 -11.5q18 0 29.5 11.5
z" />
    <glyph glyph-name="uni0E29" unicode="&#xe29;" horiz-adv-x="705" 
d="M605 250v-121q0 -65 -61.5 -102t-171.5 -37q-109 0 -172.5 37t-63.5 102v247q-4 -1 -13 -1q-47 0 -76.5 29.5t-29.5 76.5q0 46 32 75.5t82 29.5q53 0 86 -31.5t33 -81.5v-329q0 -30 33 -47t89 -17q57 0 88.5 17t31.5 47v69q-22 -2 -35 -2q-52 0 -93 16.5t-64 46t-23 66.5
q0 40 25.5 65t66.5 25q42 0 67.5 -23t25.5 -61q0 -19 -7 -35t-19 -26q12 -3 27 -3q9 0 29 2v293h113v-234q32 33 48 70l59 -48q-35 -75 -107 -115zM156 447.5q13 12.5 13 32.5t-13 33t-33 13t-32.5 -13t-12.5 -33q0 -19 13 -32t32 -13q20 0 33 12.5zM395.5 314
q10.5 11 10.5 28t-10.5 27.5t-27.5 10.5q-16 0 -26.5 -11t-10.5 -27q0 -17 10.5 -28t26.5 -11q17 0 27.5 11z" />
    <glyph glyph-name="uni0E2A" unicode="&#xe2a;" horiz-adv-x="594" 
d="M487 515q40 -43 40 -105v-410h-113v217q0 39 -36.5 62.5t-85.5 23.5t-80 -22t-31 -60v-20q4 1 13 1q47 0 76.5 -29.5t29.5 -76.5t-32 -76.5t-82 -29.5q-52 0 -85.5 31.5t-33.5 81.5v117q0 61 41 103t108 56q79 57 129 110q-29 8 -62 8q-57 0 -96 -23t-47 -62h-110
q6 80 73.5 127t179.5 47q70 0 124 -20q22 36 26 66h123q-4 -52 -69 -117zM405 447q-48 -35 -98 -64q68 -7 107 -44v74q0 19 -9 34zM226.5 129q-12.5 13 -32.5 13t-33 -13t-13 -33t13 -32.5t33 -12.5t32.5 13t12.5 32q0 20 -12.5 33z" />
    <glyph glyph-name="uni0E2B" unicode="&#xe2b;" horiz-adv-x="642" 
d="M576 434q-11 -22 -30 -36q14 -15 21.5 -37t7.5 -47v-314h-113v304q0 36 -21 36q-9 0 -16.5 -7t-16.5 -23l-171 -310h-101v376q-4 -1 -13 -1q-47 0 -76.5 29.5t-29.5 76.5q0 46 32 75.5t82 29.5q53 0 86 -31.5t33 -81.5v-226q0 -42 -9 -98l111 205q21 39 50 53
q-29 31 -29 75q0 46 30 75t76 29q47 0 77.5 -29t30.5 -75q0 -26 -11 -48zM156 447.5q13 12.5 13 32.5t-13 33t-33 13t-32.5 -13t-12.5 -33q0 -19 13 -32t32 -13q20 0 33 12.5zM447.5 513q-12.5 -13 -12.5 -33t12.5 -32.5t32.5 -12.5t32.5 12.5t12.5 32.5t-12.5 33t-32.5 13
t-32.5 -13z" />
    <glyph glyph-name="uni0E2C" unicode="&#xe2c;" horiz-adv-x="733" 
d="M656 544q10 -21 10 -49v-495h-131l-133 277l-134 -277h-130v376q-5 -1 -15 -1q-47 0 -76.5 29.5t-29.5 76.5q0 46 32 75.5t82 29.5q53 0 86 -31.5t33 -81.5v-245q0 -33 -5 -90l116 239h82l116 -239q-5 57 -5 90v170q-5 -1 -14 -1q-47 0 -77 29.5t-30 76.5q0 46 32 75.5
t82 29.5q22 0 40 -6q17 18 18 46h110q-9 -64 -59 -104zM572.5 469.5q12.5 12.5 12.5 32.5t-12.5 33t-32.5 13t-33 -13t-13 -33t13 -32.5t33 -12.5t32.5 12.5zM156 447.5q13 12.5 13 32.5t-13 33t-33 13t-32.5 -13t-12.5 -33q0 -19 13 -32t32 -13q20 0 33 12.5z" />
    <glyph glyph-name="uni0E2D" unicode="&#xe2d;" horiz-adv-x="597" 
d="M417 564q54 -22 83.5 -62t29.5 -92v-273q0 -69 -59.5 -108t-162.5 -39t-161 39.5t-58 107.5v141q0 49 32.5 80t84.5 31q51 0 82 -28.5t31 -75.5q0 -46 -29.5 -74.5t-75.5 -28.5q-9 0 -13 1v-38q0 -31 30 -48t80 -17q52 0 78.5 18.5t26.5 52.5v256q0 41 -34.5 65.5
t-92.5 24.5q-56 0 -95.5 -23t-46.5 -62h-110q4 52 37.5 91.5t89.5 61t127 21.5q72 0 126 -22zM181.5 317.5q-12.5 -12.5 -12.5 -32.5t12.5 -32t32.5 -12t32 12.5t12 31.5q0 20 -12.5 32.5t-31.5 12.5q-20 0 -32.5 -12.5z" />
    <glyph glyph-name="uni0E2E" unicode="&#xe2e;" horiz-adv-x="578" 
d="M492 463q12 -28 12 -64v-260q0 -70 -59.5 -109.5t-162.5 -39.5q-104 0 -163 40t-59 109v118q0 50 32.5 81t84.5 31q51 0 82 -29t31 -76q0 -46 -29.5 -74.5t-75.5 -28.5q-9 0 -13 1v-17q0 -31 30 -48t81 -17q53 0 80.5 19t27.5 53v253v1q-63 -21 -144 -21q-89 0 -142 25.5
t-53 72.5q0 48 58 75.5t153 27.5q107 0 173 -50q11 21 13 53h101q-4 -76 -58 -126zM369 479q-32 40 -114 40q-47 0 -75.5 -10t-28.5 -25q0 -26 88 -26q81 0 130 21zM152.5 297q-12.5 -12 -12.5 -32t12.5 -32.5t32.5 -12.5t32 12.5t12 32.5t-12 32t-32 12t-32.5 -12z" />
    <glyph glyph-name="uni0E2F" unicode="&#xe2f;" horiz-adv-x="565" 
d="M472.5 551.5q25.5 -24.5 25.5 -66.5v-485h-114v459q0 24 -23 25q-32 -61 -84.5 -95t-114.5 -34q-64 0 -102.5 33t-38.5 87q0 50 31.5 80.5t83.5 30.5q51 0 82.5 -29.5t31.5 -76.5q0 -11 -4 -25q32 18 52 49.5t27 71.5h79q43 0 68.5 -24.5zM167 447.5q13 12.5 13 32.5
t-13 33t-33 13t-32.5 -13t-12.5 -33q0 -19 13 -32t32 -13q20 0 33 12.5z" />
    <glyph glyph-name="uni0E30" unicode="&#xe30;" horiz-adv-x="544" 
d="M141.5 334.5q-45.5 17.5 -72 48.5t-26.5 72q0 47 33 78.5t83 31.5q49 0 81 -31.5t32 -78.5q0 -34 -20 -55q66 6 99 47.5t34 120.5h113q-1 -73 -32.5 -130t-88.5 -89t-133 -32q-57 0 -102.5 17.5zM126 490q-12 -12 -12 -32t12 -32t32 -12t32 12t12 32t-12 32t-32 12
t-32 -12zM351 146q33 41 34 120h113q-1 -73 -32.5 -130t-88.5 -89t-133 -32q-57 0 -102.5 17t-72 48.5t-26.5 71.5q0 47 33 78.5t83 31.5q49 0 81 -31.5t32 -78.5q0 -33 -19 -55q65 8 98 49zM190 123q12 12 12 32t-12 32.5t-32 12.5t-32 -12.5t-12 -32.5t12 -32t32 -12
t32 12z" />
    <glyph glyph-name="uni0E31" unicode="&#xe31;" 
d="M81 924q0 -76 -35.5 -132t-96 -86t-136.5 -30q-95 0 -149 37.5t-54 99.5q0 45 30 73t76 28t76 -28t30 -74q0 -42 -23 -68h8q57 0 98 24t61.5 65t20.5 91h94zM-317 781.5q13 -12.5 33 -12.5t32.5 12.5t12.5 32.5q0 19 -13 31.5t-32 12.5q-20 0 -33 -12.5t-13 -31.5
q0 -20 13 -32.5z" />
    <glyph glyph-name="uni0E32" unicode="&#xe32;" horiz-adv-x="502" 
d="M321 414q0 39 -24 61t-67 22q-46 0 -73 -26.5t-27 -72.5h-110q0 88 56 138t154 50q96 0 150.5 -44t54.5 -122v-420h-114v414z" />
    <glyph glyph-name="uni0E33" unicode="&#xe33;" horiz-adv-x="502" 
d="M-217.5 695q-35.5 34 -35.5 87t35.5 87t90.5 34q56 0 91.5 -34t35.5 -87t-35.5 -87t-91.5 -34q-55 0 -90.5 34zM-84.5 740q16.5 16 16.5 42t-16.5 42.5t-42.5 16.5t-42 -16.5t-16 -42.5q0 -25 16 -41.5t42 -16.5t42.5 16zM321 414q0 39 -24 61t-67 22q-46 0 -73 -26.5
t-27 -72.5h-110q0 88 56 138t154 50q96 0 150.5 -44t54.5 -122v-420h-114v414z" />
    <glyph glyph-name="uni0E34" unicode="&#xe34;" 
d="M-232 700q-105 17 -202 17q-64 0 -106 -7q1 58 30 102.5t80 69t118 24.5q112 0 178 -66t73 -185q-66 28 -171 45zM-217.5 814.5q-39.5 24.5 -92.5 24.5q-47 0 -81 -18t-46 -48q16 2 51 2q60 0 121 -8.5t108 -24.5q-21 48 -60.5 72.5z" />
    <glyph glyph-name="uni0E35" unicode="&#xe35;" 
d="M-61 655q-66 28 -171 45t-202 17q-64 0 -106 -7q1 58 30 102.5t80 69t118 24.5q89 0 149 -42v90h95v-244q5 -22 7 -55zM-265 766.5q61 -8.5 108 -24.5q-21 48 -60.5 72.5t-92.5 24.5q-47 0 -81 -18t-46 -48q16 2 51 2q60 0 121 -8.5z" />
    <glyph glyph-name="uni0E36" unicode="&#xe36;" 
d="M-45 818q-20 -23 -52 -28q31 -55 36 -135q-66 28 -171 45t-202 17q-64 0 -106 -7q1 58 30 102.5t80 69t118 24.5q65 0 112 -22q4 34 28 55t60 21q38 0 62.5 -24t24.5 -61q0 -34 -20 -57zM-87 849q10 10 10 26t-10 25.5t-25 9.5q-16 0 -26 -9.5t-10 -25.5t10 -26t26 -10
q15 0 25 10zM-265 766.5q61 -8.5 108 -24.5q-21 48 -60.5 72.5t-92.5 24.5q-47 0 -81 -18t-46 -48q16 2 51 2q60 0 121 -8.5z" />
    <glyph glyph-name="uni0E37" unicode="&#xe37;" 
d="M-61 655q-66 28 -171 45t-202 17q-64 0 -106 -7q1 58 30 102.5t80 69t118 24.5q13 0 37 -2v50h75v-69q31 -15 57 -36v105h75v-244q5 -22 7 -55zM-265 766.5q61 -8.5 108 -24.5q-21 48 -60.5 72.5t-92.5 24.5q-47 0 -81 -18t-46 -48q16 2 51 2q60 0 121 -8.5z" />
    <glyph glyph-name="uni0E38" unicode="&#xe38;" 
d="M-161 -239q-9 -3 -29 -3q-40 0 -64.5 25t-24.5 66q0 40 28.5 65.5t74.5 25.5q49 0 79 -25.5t30 -64.5v-195h-94v106zM-160.5 -179q10.5 11 10.5 28q0 16 -11 27t-27 11q-17 0 -28 -10.5t-11 -27.5t11 -28t28 -11t27.5 11z" />
    <glyph glyph-name="uni0E39" unicode="&#xe39;" 
d="M-298 -320.5q-34 23.5 -34 63.5v28q-14 -4 -28 -4q-37 0 -60 24.5t-23 62.5t26.5 62t68.5 24q45 0 72 -23t27 -60v-97q0 -17 12 -27t33 -10t33.5 10t12.5 27v175h91v-192q0 -40 -37 -63.5t-101 -23.5q-59 0 -93 23.5zM-331.5 -173q10.5 10 10.5 27q0 16 -10.5 26
t-26.5 10t-26 -10t-10 -26t10 -26.5t26 -10.5t26.5 10z" />
    <glyph glyph-name="uni0E3A" unicode="&#xe3a;" 
d="M-173 -177q-19 19 -19 49t19 49t49 19t49 -19t19 -49t-19 -49t-49 -19t-49 19z" />
    <glyph glyph-name="uni0E3F" unicode="&#xe3f;" horiz-adv-x="599" 
d="M504 55.5q-55 -51.5 -162 -55.5v-80h-100v80h-169v700h169v69h100v-72q94 -9 142 -52t48 -117q0 -53 -24 -89.5t-75 -61.5v-2q66 -22 96 -63t30 -108q0 -97 -55 -148.5zM199 416h103q49 0 76 26t27 73q0 44 -30 65.5t-93 21.5h-83v-186zM405 128q29 29 29 83
q0 58 -35.5 85t-112.5 27h-87v-224h123q54 0 83 29z" />
    <glyph glyph-name="uni0E40" unicode="&#xe40;" horiz-adv-x="321" 
d="M277 172.5q30 -29.5 30 -76.5t-32 -76.5t-82 -29.5q-52 0 -85.5 31.5t-33.5 81.5v473h113v-375q4 1 13 1q47 0 77 -29.5zM233 63.5q13 12.5 13 32.5t-13 33t-33 13t-32.5 -13t-12.5 -33t12.5 -32.5t32.5 -12.5t33 12.5z" />
    <glyph glyph-name="uni0E41" unicode="&#xe41;" horiz-adv-x="604" 
d="M277 172.5q30 -29.5 30 -76.5t-32 -76.5t-82 -29.5q-52 0 -85.5 31.5t-33.5 81.5v473h113v-375q4 1 13 1q47 0 77 -29.5zM233 63.5q13 12.5 13 32.5t-13 33t-33 13t-32.5 -13t-12.5 -33t12.5 -32.5t32.5 -12.5t33 12.5zM560 172.5q30 -29.5 30 -76.5t-32 -76.5t-82 -29.5
q-52 0 -85.5 31.5t-33.5 81.5v473h113v-375q4 1 13 1q47 0 77 -29.5zM516 63.5q13 12.5 13 32.5t-13 33t-33 13t-32.5 -13t-12.5 -33t12.5 -32.5t32.5 -12.5t33 12.5z" />
    <glyph glyph-name="uni0E42" unicode="&#xe42;" horiz-adv-x="399" 
d="M336.5 172q30.5 -30 30.5 -76q0 -47 -31.5 -76.5t-82.5 -29.5q-52 0 -85.5 31.5t-33.5 81.5v590q0 30 -28 54.5t-70.5 38.5t-83.5 16q0 60 23.5 102t60.5 62.5t80 20.5q30 0 53 -7.5t52 -21.5q13 -7 24.5 -11.5t20.5 -4.5q12 0 20.5 10.5t11.5 28.5l79 -15
q-7 -47 -33 -77.5t-66 -30.5q-21 0 -40 5.5t-43 16.5q-25 10 -38.5 14t-28.5 4q-23 0 -39.5 -11t-20.5 -30q180 -47 180 -151v-505q4 1 13 1q45 0 75.5 -30zM293.5 64q12.5 13 12.5 32q0 20 -12.5 33t-32.5 13t-33 -13t-13 -33t13 -32.5t33 -12.5t32.5 13z" />
    <glyph glyph-name="uni0E43" unicode="&#xe43;" horiz-adv-x="410" 
d="M352.5 172q30.5 -30 30.5 -76q0 -47 -31.5 -76.5t-82.5 -29.5q-52 0 -85.5 31.5t-33.5 81.5v536q0 41 10 71.5t29 68.5q13 25 18.5 40.5t5.5 32.5q0 33 -24.5 50t-63.5 17q-22 0 -41 -7t-31 -20h6q38 0 64.5 -25.5t26.5 -64.5q0 -41 -29 -68.5t-77 -27.5t-78.5 29.5
t-30.5 85.5q0 50 23.5 90t68 63.5t105.5 23.5q81 0 137 -39t56 -105q0 -26 -7 -45t-21 -43q-17 -32 -25.5 -56t-8.5 -62v-447q4 1 13 1q46 0 76.5 -30zM74.5 829.5q-11.5 11.5 -29.5 11.5t-29.5 -11.5t-11.5 -29.5t11.5 -29.5t29.5 -11.5t29.5 11.5t11.5 29.5t-11.5 29.5z
M309 63.5q13 12.5 13 32.5t-13 33t-33 13t-32.5 -13t-12.5 -33t12.5 -32.5t32.5 -12.5t33 12.5z" />
    <glyph glyph-name="uni0E44" unicode="&#xe44;" horiz-adv-x="430" 
d="M373 172.5q30 -29.5 30 -76.5t-32 -76.5t-82 -29.5q-52 0 -85.5 31.5t-33.5 81.5v754l-106 -155l-88 28q-10 117 -41 275h92q23 -114 28 -193l121 178h107v-789q4 1 13 1q47 0 77 -29.5zM329 63.5q13 12.5 13 32.5t-13 33t-33 13t-32.5 -13t-12.5 -33t12.5 -32.5
t32.5 -12.5t33 12.5z" />
    <glyph glyph-name="uni0E45" unicode="&#xe45;" horiz-adv-x="301" 
d="M121 414q0 39 -24.5 61t-67.5 22q-47 0 -73.5 -26.5t-26.5 -72.5h-110q0 88 56 138t154 50q96 0 150.5 -44t54.5 -122v-670h-113v664z" />
    <glyph glyph-name="uni0E46" unicode="&#xe46;" horiz-adv-x="651" 
d="M564 408v-658h-113v658q0 54 -40 84l-84 -59l-94 59q-18 -12 -29.5 -31.5t-15.5 -43.5l14 1q53 0 86 -30t33 -78q0 -47 -33 -77.5t-85 -30.5q-61 0 -94.5 40.5t-33.5 109.5q0 80 42.5 146t116.5 88l92 -63l83 63q155 -44 155 -178zM170.5 342q-12.5 -13 -12.5 -33
t12.5 -32.5t32.5 -12.5t32.5 12.5t12.5 32.5t-12.5 33t-32.5 13t-32.5 -13z" />
    <glyph glyph-name="uni0E47" unicode="&#xe47;" 
d="M-116 825.5q23 -20.5 23 -55.5q0 -38 -25 -61t-70 -23q-37 0 -76 17.5t-69 50.5q-33 -20 -71 -76q-46 15 -69.5 52.5t-23.5 84.5q0 57 43.5 94t113.5 37h104q59 0 61 87h84q0 -78 -35 -119.5t-104 -41.5h-116q-28 0 -45.5 -16t-17.5 -42q0 -28 13 -46q15 19 35.5 34
t41.5 23q23 -28 63 -57v5q0 33 22.5 53t58.5 20t59 -20.5zM-153 746q9 9 9 22q0 14 -9 23t-22 9t-21.5 -9t-8.5 -23t8.5 -22.5t21.5 -8.5t22 9z" />
    <glyph glyph-name="uni0E48" unicode="&#xe48;" 
d="M-176 903h105v-217h-105v217z" />
    <glyph glyph-name="uni0E49" unicode="&#xe49;" 
d="M34 954q-7 -80 -54 -141t-124 -94t-172 -33h-47v49q50 18 89 58h-6q-40 0 -63.5 24t-23.5 63t26.5 63t67.5 24t67.5 -26t26.5 -68q0 -27 -11.5 -58t-34.5 -54q45 11 81.5 41t58 70.5t24.5 81.5h95zM-299 853q10 -10 26 -10q15 0 25.5 10t10.5 26t-10.5 26t-25.5 10
q-16 0 -26 -10t-10 -26t10 -26z" />
    <glyph glyph-name="uni0E4A" unicode="&#xe4a;" 
d="M16 947q0 -121 -67.5 -191t-189.5 -70v54q20 11 33 35.5t13 50.5q0 21 -8.5 38t-24.5 24l-60 -43l-61 41q-22 -12 -38 -40h3q37 0 60 -22.5t23 -57.5t-23 -57.5t-60 -22.5q-44 0 -67.5 28.5t-23.5 73.5q0 57 35 105t91 58l61 -43l61 43q53 -9 80 -41t27 -75
q0 -41 -31 -79q42 27 58.5 75t16.5 116h92zM-361 789.5q-9 8.5 -24 8.5t-23.5 -8.5t-8.5 -23.5t8.5 -24t23.5 -9t24 9t9 24t-9 23.5z" />
    <glyph glyph-name="uni0E4B" unicode="&#xe4b;" 
d="M14 766h-88v-80h-99v80h-88v76h88v79h99v-79h88v-76z" />
    <glyph glyph-name="uni0E4C" unicode="&#xe4c;" 
d="M2 980q0 -47 -28 -70.5t-93 -45.5l-33 -11q32 -27 32 -71q0 -42 -27.5 -69t-70.5 -27q-44 0 -71 28t-27 73q0 43 24.5 68.5t50 35.5t85.5 29q36 12 53.5 23.5t17.5 36.5h87zM-187.5 752q10.5 11 10.5 28t-11 27.5t-27 10.5t-26.5 -10.5t-10.5 -27.5t10.5 -28t26.5 -11
q17 0 27.5 11z" />
    <glyph glyph-name="uni0E4D" unicode="&#xe4d;" 
d="M-217.5 695q-35.5 34 -35.5 87t35.5 87t90.5 34q56 0 91.5 -34t35.5 -87t-35.5 -87t-91.5 -34q-55 0 -90.5 34zM-84.5 740q16.5 16 16.5 42t-16.5 42.5t-42.5 16.5t-42 -16.5t-16 -42.5q0 -25 16 -41.5t42 -16.5t42.5 16z" />
    <glyph glyph-name="uni0E4E" unicode="&#xe4e;" 
d="M-279 705.5q-32 24.5 -32 64.5q0 36 25.5 61t70.5 32q-13 9 -21.5 25.5t-8.5 33.5q0 40 36 65.5t95 25.5q48 0 89 -20l-22 -60q-14 6 -33 10t-34 4q-22 0 -34.5 -8.5t-12.5 -23.5q0 -17 18 -28.5t60 -20.5l-24 -49q-29 10 -57 10q-30 0 -47 -11.5t-17 -32.5
q0 -20 16.5 -30.5t43.5 -10.5q25 0 50 11l4 -54q-38 -18 -82 -18q-51 0 -83 24.5z" />
    <glyph glyph-name="uni0E4F" unicode="&#xe4f;" horiz-adv-x="625" 
d="M182.5 22.5q-57.5 32.5 -90 89.5t-32.5 130t32.5 130.5t90 89.5t130.5 32t130.5 -32t89.5 -89.5t32 -130.5t-32 -130t-89.5 -89.5t-130.5 -32.5t-130.5 32.5zM412 74.5q44 24.5 68.5 68.5t24.5 99q0 56 -24.5 100t-68.5 68.5t-99 24.5q-56 0 -100 -24.5t-68.5 -68.5
t-24.5 -100q0 -55 24.5 -99t68.5 -68.5t100 -24.5q55 0 99 24.5zM209.5 139q-40.5 40 -40.5 103t40.5 103.5t103.5 40.5t103 -40.5t40 -103.5t-40 -103t-103 -40t-103.5 40zM377 178q25 25 25 64t-25 64.5t-64 25.5t-64.5 -25.5t-25.5 -64.5t25.5 -64t64.5 -25t64 25z" />
    <glyph glyph-name="uni0E50" unicode="&#xe50;" horiz-adv-x="664" 
d="M184.5 18.5q-64.5 28.5 -100.5 79t-36 114.5t36 114.5t100.5 79t147.5 28.5q84 0 148.5 -28.5t100.5 -79t36 -114.5t-36 -114.5t-100.5 -79t-148.5 -28.5q-83 0 -147.5 28.5zM459 114q49 38 49 98q0 61 -48.5 98.5t-127.5 37.5q-78 0 -127 -37.5t-49 -98.5q0 -60 49 -98
t127 -38t127 38z" />
    <glyph glyph-name="uni0E51" unicode="&#xe51;" horiz-adv-x="686" 
d="M492.5 403.5q68.5 -30.5 107.5 -88t39 -135.5q0 -57 -21 -112t-59 -92h-120q43 38 67.5 90.5t24.5 106.5q0 80 -54 127.5t-138 47.5q-81 0 -132 -41.5t-51 -107.5q0 -58 32.5 -96t83.5 -38q26 0 45 10t28 29q-3 -1 -11 -1q-41 0 -68 26t-27 67t28.5 67t73.5 26
q49 0 78.5 -31.5t29.5 -81.5q0 -51 -24 -93.5t-68.5 -67.5t-102.5 -25q-95 0 -150.5 57t-55.5 152q0 71 38 124t104 82t149 29q85 0 153.5 -30.5zM309.5 164.5q11.5 -11.5 30.5 -11.5q20 0 32 11.5t12 30.5q0 20 -12 32t-32 12q-19 0 -30.5 -12t-11.5 -32q0 -19 11.5 -30.5z
" />
    <glyph glyph-name="uni0E52" unicode="&#xe52;" horiz-adv-x="706" 
d="M624.5 381q34.5 -53 34.5 -150q0 -241 -290 -241q-148 0 -226.5 53t-78.5 155v279q0 18 -10.5 28t-30.5 12v91h49q50 0 75.5 -24.5t25.5 -70.5v-312q0 -65 49.5 -94.5t148.5 -29.5q100 0 144 38.5t44 121.5q0 55 -12.5 88.5t-37.5 33.5q-19 0 -32 -16.5t-15 -44.5h-49
q-5 29 -20 45.5t-37 16.5q-20 0 -35.5 -14t-21.5 -37q12 6 27 6q40 0 65.5 -26t25.5 -67q0 -39 -28.5 -64.5t-72.5 -25.5q-51 0 -79.5 34t-28.5 94q0 77 38.5 125.5t101.5 48.5q28 0 51.5 -14t36.5 -41q11 27 33.5 41t52.5 14q68 0 102.5 -53zM347 254q-11 11 -29 11
q-17 0 -28.5 -11t-11.5 -29q0 -17 11.5 -28.5t28.5 -11.5q18 0 29 11.5t11 28.5q0 18 -11 29z" />
    <glyph glyph-name="uni0E53" unicode="&#xe53;" horiz-adv-x="704" 
d="M608.5 394.5q38.5 -39.5 38.5 -109.5v-285h-109v287q0 27 -13 44t-41 17t-44 -19t-16 -47v-282h-100v270q0 34 -19.5 56t-52.5 22q-87 0 -92 -137q-1 -13 -1 -34q17 11 39 11q41 0 67 -28t26 -72q0 -43 -30.5 -70.5t-77.5 -27.5q-65 0 -100 53t-35 152q0 111 52 175
t142 64q48 0 82 -18t50 -51q16 33 48.5 51t76.5 18q71 0 109.5 -39.5zM218.5 120.5q-11.5 11.5 -30.5 11.5t-31 -11.5t-12 -30.5t12 -31t31 -12t30.5 12t11.5 31t-11.5 30.5z" />
    <glyph glyph-name="uni0E54" unicode="&#xe54;" horiz-adv-x="685" 
d="M549 8.5q-36 10.5 -62 10.5q-18 0 -82 -11q-94 -18 -139 -18q-98 0 -158 56.5t-60 156.5q0 112 75 170t215 62q87 2 118.5 5.5t58.5 14.5q33 14 56.5 53t27.5 100h96q-11 -105 -48.5 -157t-104.5 -77q-34 -13 -79 -15.5t-124 -2.5q-84 -1 -133.5 -38.5t-49.5 -115.5
q0 -62 34 -97t89 -35q34 0 118 12q-69 14 -105 49t-36 83q0 43 29.5 70t75.5 27q44 0 73 -26.5t29 -65.5q0 -26 -13.5 -50t-35.5 -34l35 -9q76 -20 124.5 -36.5t94.5 -44.5l-44 -69q-39 22 -75 32.5zM389 185.5q12 11.5 12 30.5t-12 30.5t-30 11.5q-19 0 -30.5 -11.5
t-11.5 -30.5t11.5 -30.5t30.5 -11.5q18 0 30 11.5z" />
    <glyph glyph-name="uni0E55" unicode="&#xe55;" horiz-adv-x="685" 
d="M449.5 169q-13.5 -24 -35.5 -34l35 -9q76 -20 124.5 -36.5t94.5 -44.5l-44 -69q-39 22 -75 32.5t-62 10.5q-18 0 -82 -11q-94 -18 -139 -18q-98 0 -158 56.5t-60 156.5q0 101 61 158t176 70q-16 26 -16 52q0 47 30.5 77t77.5 30q49 0 79.5 -30t30.5 -77q0 -21 -9 -39
q24 5 37 11q33 14 56.5 53t27.5 100h96q-11 -105 -48.5 -157t-104.5 -77q-34 -13 -79 -15.5t-124 -2.5q-84 -1 -133.5 -38.5t-49.5 -115.5q0 -62 34 -97t89 -35q34 0 118 12q-69 14 -105 49t-36 83q0 43 29.5 70t75.5 27q44 0 73 -26.5t29 -65.5q0 -26 -13.5 -50zM345 517
q-13 -13 -13 -33t13 -32.5t33 -12.5t33.5 13t13.5 32q0 20 -13.5 33t-33.5 13t-33 -13zM389 185.5q12 11.5 12 30.5t-12 30.5t-30 11.5q-19 0 -30.5 -11.5t-11.5 -30.5t11.5 -30.5t30.5 -11.5q18 0 30 11.5z" />
    <glyph glyph-name="uni0E56" unicode="&#xe56;" horiz-adv-x="674" 
d="M167 29.5q-59 39.5 -59 106.5q0 44 29.5 72t75.5 28q47 0 77 -27.5t30 -70.5q0 -18 -6.5 -35t-16.5 -28q10 -2 29 -2q89 0 140.5 36t51.5 104q0 65 -45 100.5t-117 35.5q-59 0 -107 -18t-79 -50h-72q-4 92 -27.5 186.5t-52.5 140.5h112q22 -44 37 -103.5t19 -117.5
q34 22 79 34.5t94 12.5q78 0 138.5 -26.5t94.5 -75.5t34 -116t-36.5 -118t-104 -79.5t-156.5 -28.5q-103 0 -162 39.5zM244.5 104q12.5 12 12.5 31t-12.5 31.5t-31.5 12.5t-31 -12.5t-12 -31.5t12 -31t31 -12t31.5 12z" />
    <glyph glyph-name="uni0E57" unicode="&#xe57;" horiz-adv-x="777" 
d="M756 608q-17 -47 -21.5 -104.5t-5.5 -161.5v-30q-2 -299 -248 -320l-53 39q45 117 45 221q0 43 -13 67.5t-37 24.5q-22 0 -34 -18.5t-12 -51.5v-89h-87v89q0 29 -15.5 49.5t-40.5 20.5q-33 0 -52.5 -32.5t-21.5 -99.5q-1 -8 -0.5 -18t0.5 -15q15 9 36 9q42 0 69 -28
t27 -72t-30 -71t-78 -27q-66 0 -101 54.5t-35 151.5q0 110 48 174t131 64q34 0 62.5 -17.5t44.5 -52.5q34 70 102 70t105.5 -48t37.5 -136q0 -71 -26 -147q39 35 55 75t17 114v33v56q0 85 5 137.5t23 89.5h103zM219.5 120q-12.5 12 -31.5 12t-31 -12t-12 -31t12 -31t31 -12
t31.5 12t12.5 31t-12.5 31z" />
    <glyph glyph-name="uni0E58" unicode="&#xe58;" horiz-adv-x="681" 
d="M195 309.5q-39 -32.5 -39 -102.5q0 -28 7 -57.5t19 -44.5q52 69 125 105q23 -57 69.5 -98.5t87.5 -41.5q14 0 31 5q-31 6 -50 30.5t-19 59.5q0 43 27.5 70t71.5 27q48 0 77.5 -29.5t29.5 -78.5q0 -72 -45 -118t-125 -46q-50 0 -94 25t-89 81q-18 -13 -40.5 -42t-34.5 -54
h-66q-90 63 -90 202q0 114 68 173t197 59q12 0 70 -5q36 -4 44 -4q49 0 76 33t27 98v52h104v-57q0 -103 -49 -160.5t-141 -57.5q-10 0 -62 4q-45 5 -69 5q-79 0 -118 -32.5zM495 197.5q-12 -11.5 -12 -30.5t12 -31t31 -12t31 12t12 31t-12 30.5t-31 11.5t-31 -11.5z" />
    <glyph glyph-name="uni0E59" unicode="&#xe59;" horiz-adv-x="698" 
d="M458 308q27 -77 74.5 -143t102.5 -111l-64 -65q-68 61 -126 143.5t-83 155.5q-8 23 -35 40t-60 17q-50 0 -80.5 -37t-30.5 -99q0 -54 26 -89q1 31 29.5 53.5t66.5 22.5q46 0 75.5 -28.5t29.5 -72.5q0 -46 -35 -75.5t-90 -29.5q-63 0 -111 29t-73.5 79t-25.5 112
q0 63 27 114t76 80.5t114 29.5q37 0 75 -13.5t63 -39.5q3 22 19.5 37.5t39.5 15.5q17 0 30.5 -7t32.5 -21q10 -7 20 -13t18 -6q28 0 28 85q0 70 -14 136h88q12 -79 12 -130q0 -78 -24 -122t-77 -44q-17 0 -30 6t-28 17q-3 2 -13 8t-19 6q-23 0 -28 -41zM246 126
q-12 -12 -12 -31t12 -31t31 -12t31 12t12 31t-12 31t-31 12t-31 -12z" />
    <glyph glyph-name="uni0E5A" unicode="&#xe5a;" horiz-adv-x="810" 
d="M717.5 551.5q25.5 -24.5 25.5 -66.5v-485h-113v459q0 11 -6.5 17.5t-17.5 7.5q-43 -81 -108 -109v-375h-114v459q0 24 -23 25q-32 -61 -84.5 -95t-114.5 -34q-64 0 -102.5 33t-38.5 87q0 50 31.5 80.5t83.5 30.5q51 0 82.5 -29.5t31.5 -76.5q0 -11 -4 -25q32 18 52 49.5
t27 71.5h79q43 0 68.5 -24.5t25.5 -66.5v-22q28 19 47 48.5t25 64.5h79q43 0 68.5 -24.5zM167 447.5q13 12.5 13 32.5t-13 33t-33 13t-32.5 -13t-12.5 -33q0 -19 13 -32t32 -13q20 0 33 12.5z" />
    <glyph glyph-name="uni0E5B" unicode="&#xe5b;" horiz-adv-x="1044" 
d="M1011 295v-67h-118l-37 64l-43 -108h-54l-40 98l-39 -114h-71l-35 90q-11 -79 -49 -134.5t-95 -83.5t-124 -28q-72 0 -126.5 32.5t-83.5 91.5t-29 136q0 114 56 181t151 67q81 0 126 -48.5t45 -135.5q0 -73 -34.5 -117.5t-91.5 -44.5q-43 0 -70 26t-27 67t26 66.5
t67 25.5q27 0 48 -13q-1 42 -23.5 65t-64.5 23q-52 0 -83.5 -45t-31.5 -120q0 -78 38.5 -124t108.5 -46q53 0 97.5 29t70 80.5t25.5 114.5v92h102l45 -135l34 102h69l37 -94l34 81h62l42 -74h86zM343 239.5q10 10.5 10 26.5q0 17 -10.5 27.5t-26.5 10.5t-27 -10.5t-11 -27.5
q0 -16 10.5 -26.5t27.5 -10.5t27 10.5z" />
    <glyph glyph-name="uni1E0C" unicode="&#x1e0c;" horiz-adv-x="636" 
d="M73 700h240q141 0 212.5 -84.5t71.5 -251.5q0 -130 -32 -210t-100 -117t-179 -37h-213v700zM301 102q91 0 130.5 61t39.5 201q0 123 -38.5 178.5t-122.5 55.5h-111v-496h102zM262.5 -177q-17.5 17 -17.5 44q0 26 17.5 43.5t44.5 17.5t44.5 -17.5t17.5 -43.5
q0 -27 -17.5 -44t-44.5 -17t-44.5 17z" />
    <glyph glyph-name="uni1E0D" unicode="&#x1e0d;" horiz-adv-x="553" 
d="M86 62q-56 72 -56 197q0 76 26 132.5t74 87.5t113 31q89 0 140 -66h2v298h113v-611q0 -101 3 -131h-106q-2 20 -2 71h-2q-23 -36 -64.5 -58.5t-86.5 -22.5q-98 0 -154 72zM350.5 111q33.5 33 33.5 89v99q0 55 -34.5 90.5t-88.5 35.5q-57 0 -87.5 -44t-30.5 -124
q0 -85 31 -132t87 -47t89.5 33zM239.5 -177q-17.5 17 -17.5 44q0 26 17.5 43.5t44.5 17.5t44.5 -17.5t17.5 -43.5q0 -27 -17.5 -44t-44.5 -17t-44.5 17z" />
    <glyph glyph-name="uni1E0E" unicode="&#x1e0e;" horiz-adv-x="636" 
d="M73 700h240q141 0 212.5 -84.5t71.5 -251.5q0 -130 -32 -210t-100 -117t-179 -37h-213v700zM301 102q91 0 130.5 61t39.5 201q0 123 -38.5 178.5t-122.5 55.5h-111v-496h102zM141 -69h332v-76h-332v76z" />
    <glyph glyph-name="uni1E0F" unicode="&#x1e0f;" horiz-adv-x="553" 
d="M86 62q-56 72 -56 197q0 76 26 132.5t74 87.5t113 31q89 0 140 -66h2v298h113v-611q0 -101 3 -131h-106q-2 20 -2 71h-2q-23 -36 -64.5 -58.5t-86.5 -22.5q-98 0 -154 72zM350.5 111q33.5 33 33.5 89v99q0 55 -34.5 90.5t-88.5 35.5q-57 0 -87.5 -44t-30.5 -124
q0 -85 31 -132t87 -47t89.5 33zM118 -69h332v-76h-332v76z" />
    <glyph glyph-name="uni1E20" unicode="&#x1e20;" horiz-adv-x="648" 
d="M594 374v-374h-93l-14 41q-66 -51 -162 -51q-91 0 -157 43t-101 124t-35 193q0 109 39 190.5t110.5 125.5t167.5 44q83 0 145 -31t91 -87l-71 -65q-25 40 -67 60.5t-96 20.5q-92 0 -142 -67t-50 -191q0 -128 47 -196.5t134 -68.5q77 0 129 37v162h-156v90h281zM178 845
h332v-76h-332v76z" />
    <glyph glyph-name="uni1E21" unicode="&#x1e21;" horiz-adv-x="550" 
d="M498 500v-481q0 -124 -62 -188t-182 -64q-56 0 -106 13t-89 38l37 78q36 -18 76 -28t77 -10q141 0 141 177v26q-20 -31 -57 -48t-86 -17q-103 0 -160 69t-57 192q0 120 55.5 186.5t154.5 66.5q51 0 90 -19.5t62 -56.5h2l9 66h95zM384 282q0 68 -30.5 105.5t-86.5 37.5
q-59 0 -91.5 -44t-32.5 -126t32 -126.5t91 -44.5q56 0 87 34t31 96v68zM96 645h332v-76h-332v76z" />
    <glyph glyph-name="uni1E24" unicode="&#x1e24;" horiz-adv-x="688" 
d="M72 700h127v-293h290v293h127v-700h-127v305h-290v-305h-127v700zM299.5 -177q-17.5 17 -17.5 44q0 26 17.5 43.5t44.5 17.5t44.5 -17.5t17.5 -43.5q0 -27 -17.5 -44t-44.5 -17t-44.5 17z" />
    <glyph glyph-name="uni1E25" unicode="&#x1e25;" horiz-adv-x="564" 
d="M53 742h113v-307q23 35 66 55t93 20q86 0 136.5 -57t50.5 -157v-296h-114v290q0 64 -26.5 99.5t-74.5 35.5q-59 0 -95 -42t-36 -110v-273h-113v742zM237.5 -177q-17.5 17 -17.5 44q0 26 17.5 43.5t44.5 17.5t44.5 -17.5t17.5 -43.5q0 -27 -17.5 -44t-44.5 -17t-44.5 17z
" />
    <glyph glyph-name="uni1E2A" unicode="&#x1e2a;" horiz-adv-x="688" 
d="M72 700h127v-293h290v293h127v-700h-127v305h-290v-305h-127v700zM230 -181q-41 37 -42 109h75q1 -35 21.5 -54.5t59.5 -19.5q37 0 59 19t23 55h75q-1 -70 -41 -108t-116 -38q-73 0 -114 37z" />
    <glyph glyph-name="uni1E2B" unicode="&#x1e2b;" horiz-adv-x="564" 
d="M53 742h113v-307q23 35 66 55t93 20q86 0 136.5 -57t50.5 -157v-296h-114v290q0 64 -26.5 99.5t-74.5 35.5q-59 0 -95 -42t-36 -110v-273h-113v742zM168 -181q-41 37 -42 109h75q1 -35 21.5 -54.5t59.5 -19.5q37 0 59 19t23 55h75q-1 -70 -41 -108t-116 -38
q-73 0 -114 37z" />
    <glyph glyph-name="uni1E36" unicode="&#x1e36;" horiz-adv-x="559" 
d="M72 700h127v-598h332v-102h-459v700zM252.5 -177q-17.5 17 -17.5 44q0 26 17.5 43.5t44.5 17.5t44.5 -17.5t17.5 -43.5q0 -27 -17.5 -44t-44.5 -17t-44.5 17z" />
    <glyph glyph-name="uni1E37" unicode="&#x1e37;" horiz-adv-x="298" 
d="M92.5 23.5q-31.5 33.5 -31.5 98.5v620h114v-621q0 -27 11 -38.5t36 -11.5t55 13l17 -63q-43 -31 -109 -31q-61 0 -92.5 33.5zM137.5 -177q-17.5 17 -17.5 44q0 26 17.5 43.5t44.5 17.5t44.5 -17.5t17.5 -43.5q0 -27 -17.5 -44t-44.5 -17t-44.5 17z" />
    <glyph glyph-name="uni1E38" unicode="&#x1e38;" horiz-adv-x="559" 
d="M72 700h127v-598h332v-102h-459v700zM252.5 -177q-17.5 17 -17.5 44q0 26 17.5 43.5t44.5 17.5t44.5 -17.5t17.5 -43.5q0 -27 -17.5 -44t-44.5 -17t-44.5 17zM-30 845h332v-76h-332v76z" />
    <glyph glyph-name="uni1E39" unicode="&#x1e39;" horiz-adv-x="298" 
d="M92.5 23.5q-31.5 33.5 -31.5 98.5v620h114v-621q0 -27 11 -38.5t36 -11.5t55 13l17 -63q-43 -31 -109 -31q-61 0 -92.5 33.5zM137.5 -177q-17.5 17 -17.5 44q0 26 17.5 43.5t44.5 17.5t44.5 -17.5t17.5 -43.5q0 -27 -17.5 -44t-44.5 -17t-44.5 17zM-48 887h332v-76h-332
v76z" />
    <glyph glyph-name="uni1E3A" unicode="&#x1e3a;" horiz-adv-x="559" 
d="M72 700h127v-598h332v-102h-459v700zM131 -69h332v-76h-332v76z" />
    <glyph glyph-name="uni1E3B" unicode="&#x1e3b;" horiz-adv-x="298" 
d="M92.5 23.5q-31.5 33.5 -31.5 98.5v620h114v-621q0 -27 11 -38.5t36 -11.5t55 13l17 -63q-43 -31 -109 -31q-61 0 -92.5 33.5zM16 -69h332v-76h-332v76z" />
    <glyph glyph-name="uni1E42" unicode="&#x1e42;" horiz-adv-x="810" 
d="M738 700v-700h-125v450l-163 -450h-89l-164 453v-453h-124v700h136l196 -555l197 555h136zM360.5 -177q-17.5 17 -17.5 44q0 26 17.5 43.5t44.5 17.5t44.5 -17.5t17.5 -43.5q0 -27 -17.5 -44t-44.5 -17t-44.5 17z" />
    <glyph glyph-name="uni1E43" unicode="&#x1e43;" horiz-adv-x="844" 
d="M53 370q0 90 -5 130h100q5 -43 5 -88h2q17 46 59 72t98 26q54 0 92 -24.5t51 -67.5q20 43 61.5 67.5t93.5 24.5q83 0 130 -53t47 -148v-309h-112v297q0 58 -25 90t-70 32q-47 0 -75.5 -33.5t-28.5 -89.5v-296h-112v293q0 61 -23.5 93.5t-67.5 32.5q-46 0 -77 -36t-31 -90
v-293h-112v370zM375.5 -177q-17.5 17 -17.5 44q0 26 17.5 43.5t44.5 17.5t44.5 -17.5t17.5 -43.5q0 -27 -17.5 -44t-44.5 -17t-44.5 17z" />
    <glyph glyph-name="uni1E44" unicode="&#x1e44;" horiz-adv-x="693" 
d="M621 700v-700h-118l-305 491v-491h-126v700h125l298 -483v483h126zM302.5 772.5q-17.5 17.5 -17.5 43.5t17.5 43.5t44.5 17.5t44.5 -17.5t17.5 -43.5t-17.5 -43.5t-44.5 -17.5t-44.5 17.5z" />
    <glyph glyph-name="uni1E45" unicode="&#x1e45;" horiz-adv-x="559" 
d="M52 370q0 93 -4 130h106q5 -47 5 -88h2q19 45 65 71.5t102 26.5q87 0 131 -57.5t44 -170.5v-282h-114v283q0 70 -22.5 103t-71.5 33q-58 0 -94 -40.5t-36 -104.5v-274h-113v370zM233.5 572.5q-17.5 17.5 -17.5 43.5t17.5 43.5t44.5 17.5t44.5 -17.5t17.5 -43.5
t-17.5 -43.5t-44.5 -17.5t-44.5 17.5z" />
    <glyph glyph-name="uni1E46" unicode="&#x1e46;" horiz-adv-x="693" 
d="M621 700v-700h-118l-305 491v-491h-126v700h125l298 -483v483h126zM302.5 -177q-17.5 17 -17.5 44q0 26 17.5 43.5t44.5 17.5t44.5 -17.5t17.5 -43.5q0 -27 -17.5 -44t-44.5 -17t-44.5 17z" />
    <glyph glyph-name="uni1E47" unicode="&#x1e47;" horiz-adv-x="559" 
d="M52 370q0 93 -4 130h106q5 -47 5 -88h2q19 45 65 71.5t102 26.5q87 0 131 -57.5t44 -170.5v-282h-114v283q0 70 -22.5 103t-71.5 33q-58 0 -94 -40.5t-36 -104.5v-274h-113v370zM233.5 -177q-17.5 17 -17.5 44q0 26 17.5 43.5t44.5 17.5t44.5 -17.5t17.5 -43.5
q0 -27 -17.5 -44t-44.5 -17t-44.5 17z" />
    <glyph glyph-name="uni1E48" unicode="&#x1e48;" horiz-adv-x="693" 
d="M621 700v-700h-118l-305 491v-491h-126v700h125l298 -483v483h126zM181 -69h332v-76h-332v76z" />
    <glyph glyph-name="uni1E49" unicode="&#x1e49;" horiz-adv-x="559" 
d="M52 370q0 93 -4 130h106q5 -47 5 -88h2q19 45 65 71.5t102 26.5q87 0 131 -57.5t44 -170.5v-282h-114v283q0 70 -22.5 103t-71.5 33q-58 0 -94 -40.5t-36 -104.5v-274h-113v370zM112 -69h332v-76h-332v76z" />
    <glyph glyph-name="uni1E5A" unicode="&#x1e5a;" horiz-adv-x="591" 
d="M73 700h236q117 0 175 -47.5t58 -144.5q0 -69 -31 -118t-88 -69v-2q19 -13 30.5 -27t19.5 -32l103 -260h-134l-83 218q-14 35 -35 47.5t-69 12.5h-56v-278h-126v700zM297 379q60 0 91.5 29t31.5 86q0 104 -125 104h-96v-219h98zM251.5 -177q-17.5 17 -17.5 44
q0 26 17.5 43.5t44.5 17.5t44.5 -17.5t17.5 -43.5q0 -27 -17.5 -44t-44.5 -17t-44.5 17z" />
    <glyph glyph-name="uni1E5B" unicode="&#x1e5b;" horiz-adv-x="382" 
d="M59 378q0 85 -3 122h107q4 -39 4 -88v-10h3q19 50 65 79t106 29q18 0 30 -3v-90q-10 2 -27 2q-47 0 -86.5 -25.5t-62.5 -69.5t-23 -95v-229h-113v378zM73.5 -177q-17.5 17 -17.5 44q0 26 17.5 43.5t44.5 17.5t44.5 -17.5t17.5 -43.5q0 -27 -17.5 -44t-44.5 -17t-44.5 17z
" />
    <glyph glyph-name="uni1E5C" unicode="&#x1e5c;" horiz-adv-x="591" 
d="M73 700h236q117 0 175 -47.5t58 -144.5q0 -69 -31 -118t-88 -69v-2q19 -13 30.5 -27t19.5 -32l103 -260h-134l-83 218q-14 35 -35 47.5t-69 12.5h-56v-278h-126v700zM297 379q60 0 91.5 29t31.5 86q0 104 -125 104h-96v-219h98zM251.5 -177q-17.5 17 -17.5 44
q0 26 17.5 43.5t44.5 17.5t44.5 -17.5t17.5 -43.5q0 -27 -17.5 -44t-44.5 -17t-44.5 17zM130 845h332v-76h-332v76z" />
    <glyph glyph-name="uni1E5D" unicode="&#x1e5d;" horiz-adv-x="382" 
d="M59 378q0 85 -3 122h107q4 -39 4 -88v-10h3q19 50 65 79t106 29q18 0 30 -3v-90q-10 2 -27 2q-47 0 -86.5 -25.5t-62.5 -69.5t-23 -95v-229h-113v378zM73.5 -177q-17.5 17 -17.5 44q0 26 17.5 43.5t44.5 17.5t44.5 -17.5t17.5 -43.5q0 -27 -17.5 -44t-44.5 -17t-44.5 17z
M30 645h332v-76h-332v76z" />
    <glyph glyph-name="uni1E5E" unicode="&#x1e5e;" horiz-adv-x="591" 
d="M73 700h236q117 0 175 -47.5t58 -144.5q0 -69 -31 -118t-88 -69v-2q19 -13 30.5 -27t19.5 -32l103 -260h-134l-83 218q-14 35 -35 47.5t-69 12.5h-56v-278h-126v700zM297 379q60 0 91.5 29t31.5 86q0 104 -125 104h-96v-219h98zM130 -69h332v-76h-332v76z" />
    <glyph glyph-name="uni1E5F" unicode="&#x1e5f;" horiz-adv-x="382" 
d="M59 378q0 85 -3 122h107q4 -39 4 -88v-10h3q19 50 65 79t106 29q18 0 30 -3v-90q-10 2 -27 2q-47 0 -86.5 -25.5t-62.5 -69.5t-23 -95v-229h-113v378zM28 -69h332v-76h-332v76z" />
    <glyph glyph-name="uni1E60" unicode="&#x1e60;" horiz-adv-x="544" 
d="M132.5 21q-62.5 31 -101.5 88l75 72q32 -39 78.5 -64t89.5 -25q51 0 81.5 24t30.5 63q0 28 -10 46.5t-37 37t-83 46.5q-74 36 -117 68t-63 68t-20 83q0 54 28.5 95.5t79.5 64t118 22.5q73 0 130.5 -29t84.5 -79l-81 -60q-24 31 -57.5 48.5t-71.5 17.5q-49 0 -76.5 -20.5
t-27.5 -57.5q0 -23 12.5 -39.5t45 -36.5t99.5 -52q95 -45 133.5 -93.5t38.5 -121.5q0 -59 -30 -103.5t-85 -69t-127 -24.5q-75 0 -137.5 31zM229.5 772.5q-17.5 17.5 -17.5 43.5t17.5 43.5t44.5 17.5t44.5 -17.5t17.5 -43.5t-17.5 -43.5t-44.5 -17.5t-44.5 17.5z" />
    <glyph glyph-name="uni1E61" unicode="&#x1e61;" horiz-adv-x="433" 
d="M97 15q-48 25 -68 67l72 49q17 -26 45.5 -41t60.5 -15q36 0 60 19.5t24 50.5q0 23 -17.5 38t-71.5 36q-89 34 -125.5 69t-36.5 87q0 61 49 98t130 37q55 0 98.5 -21t68.5 -60l-67 -50q-16 22 -41 34t-55 12q-32 0 -51 -12.5t-19 -34.5q0 -16 8 -26.5t29.5 -21.5t65.5 -28
q84 -33 116 -66t32 -86q0 -72 -54 -116t-143 -44q-62 0 -110 25zM173.5 572.5q-17.5 17.5 -17.5 43.5t17.5 43.5t44.5 17.5t44.5 -17.5t17.5 -43.5t-17.5 -43.5t-44.5 -17.5t-44.5 17.5z" />
    <glyph glyph-name="uni1E62" unicode="&#x1e62;" horiz-adv-x="544" 
d="M132.5 21q-62.5 31 -101.5 88l75 72q32 -39 78.5 -64t89.5 -25q51 0 81.5 24t30.5 63q0 28 -10 46.5t-37 37t-83 46.5q-74 36 -117 68t-63 68t-20 83q0 54 28.5 95.5t79.5 64t118 22.5q73 0 130.5 -29t84.5 -79l-81 -60q-24 31 -57.5 48.5t-71.5 17.5q-49 0 -76.5 -20.5
t-27.5 -57.5q0 -23 12.5 -39.5t45 -36.5t99.5 -52q95 -45 133.5 -93.5t38.5 -121.5q0 -59 -30 -103.5t-85 -69t-127 -24.5q-75 0 -137.5 31zM229.5 -177q-17.5 17 -17.5 44q0 26 17.5 43.5t44.5 17.5t44.5 -17.5t17.5 -43.5q0 -27 -17.5 -44t-44.5 -17t-44.5 17z" />
    <glyph glyph-name="uni1E63" unicode="&#x1e63;" horiz-adv-x="433" 
d="M97 15q-48 25 -68 67l72 49q17 -26 45.5 -41t60.5 -15q36 0 60 19.5t24 50.5q0 23 -17.5 38t-71.5 36q-89 34 -125.5 69t-36.5 87q0 61 49 98t130 37q55 0 98.5 -21t68.5 -60l-67 -50q-16 22 -41 34t-55 12q-32 0 -51 -12.5t-19 -34.5q0 -16 8 -26.5t29.5 -21.5t65.5 -28
q84 -33 116 -66t32 -86q0 -72 -54 -116t-143 -44q-62 0 -110 25zM173.5 -177q-17.5 17 -17.5 44q0 26 17.5 43.5t44.5 17.5t44.5 -17.5t17.5 -43.5q0 -27 -17.5 -44t-44.5 -17t-44.5 17z" />
    <glyph glyph-name="uni1E6C" unicode="&#x1e6c;" horiz-adv-x="580" 
d="M227 606h-211v94h548v-94h-211v-606h-126v606zM245.5 -177q-17.5 17 -17.5 44q0 26 17.5 43.5t44.5 17.5t44.5 -17.5t17.5 -43.5q0 -27 -17.5 -44t-44.5 -17t-44.5 17z" />
    <glyph glyph-name="uni1E6D" unicode="&#x1e6d;" horiz-adv-x="406" 
d="M143.5 32.5q-41.5 42.5 -41.5 117.5v265h-90v85h90v130l110 33h4v-163h144v-85h-144v-250q0 -45 19.5 -66.5t60.5 -21.5q44 0 72 12l6 -80q-41 -19 -116 -19q-73 0 -114.5 42.5zM207.5 -177q-17.5 17 -17.5 44q0 26 17.5 43.5t44.5 17.5t44.5 -17.5t17.5 -43.5
q0 -27 -17.5 -44t-44.5 -17t-44.5 17z" />
    <glyph glyph-name="uni1E6E" unicode="&#x1e6e;" horiz-adv-x="580" 
d="M227 606h-211v94h548v-94h-211v-606h-126v606zM124 -69h332v-76h-332v76z" />
    <glyph glyph-name="uni1E6F" unicode="&#x1e6f;" horiz-adv-x="406" 
d="M143.5 32.5q-41.5 42.5 -41.5 117.5v265h-90v85h90v130l110 33h4v-163h144v-85h-144v-250q0 -45 19.5 -66.5t60.5 -21.5q44 0 72 12l6 -80q-41 -19 -116 -19q-73 0 -114.5 42.5zM86 -69h332v-76h-332v76z" />
    <glyph glyph-name="Wgrave" unicode="&#x1e80;" horiz-adv-x="860" 
d="M834 700l-147 -700h-121l-136 539l-136 -539h-121l-147 700h135l83 -496l125 496h122l125 -494l83 494h135zM280 912h112l83 -157h-91z" />
    <glyph glyph-name="wgrave" unicode="&#x1e81;" horiz-adv-x="694" 
d="M682 500l-127 -500h-101l-107 379l-107 -379h-100l-127 500h118l69 -334l97 334h101l97 -336l69 336h118zM197 712h112l83 -157h-91z" />
    <glyph glyph-name="Wacute" unicode="&#x1e82;" horiz-adv-x="860" 
d="M834 700l-147 -700h-121l-136 539l-136 -539h-121l-147 700h135l83 -496l125 496h122l125 -494l83 494h135zM469 912h111l-103 -157h-91z" />
    <glyph glyph-name="wacute" unicode="&#x1e83;" horiz-adv-x="694" 
d="M682 500l-127 -500h-101l-107 379l-107 -379h-100l-127 500h118l69 -334l97 334h101l97 -336l69 336h118zM386 712h111l-103 -157h-91z" />
    <glyph glyph-name="Wdieresis" unicode="&#x1e84;" horiz-adv-x="860" 
d="M834 700l-147 -700h-121l-136 539l-136 -539h-121l-147 700h135l83 -496l125 496h122l125 -494l83 494h135zM282 772.5q-18 17.5 -18 43.5t18 43.5t44 17.5t44 -17.5t18 -43.5t-18 -43.5t-44 -17.5t-44 17.5zM490 772.5q-18 17.5 -18 43.5t18 43.5t44 17.5t44 -17.5
t18 -43.5t-18 -43.5t-44 -17.5t-44 17.5z" />
    <glyph glyph-name="wdieresis" unicode="&#x1e85;" horiz-adv-x="694" 
d="M682 500l-127 -500h-101l-107 379l-107 -379h-100l-127 500h118l69 -334l97 334h101l97 -336l69 336h118zM199 572.5q-18 17.5 -18 43.5t18 43.5t44 17.5t44 -17.5t18 -43.5t-18 -43.5t-44 -17.5t-44 17.5zM407 572.5q-18 17.5 -18 43.5t18 43.5t44 17.5t44 -17.5
t18 -43.5t-18 -43.5t-44 -17.5t-44 17.5z" />
    <glyph glyph-name="uni1E8E" unicode="&#x1e8e;" horiz-adv-x="610" 
d="M242 279l-226 421h138l151 -305l151 305h138l-225 -421v-279h-127v279zM260.5 772.5q-17.5 17.5 -17.5 43.5t17.5 43.5t44.5 17.5t44.5 -17.5t17.5 -43.5t-17.5 -43.5t-44.5 -17.5t-44.5 17.5z" />
    <glyph glyph-name="uni1E8F" unicode="&#x1e8f;" horiz-adv-x="491" 
d="M478 500l-187 -519q-32 -88 -86.5 -132.5t-128.5 -44.5q-35 0 -73 10v89q22 -8 56 -8q46 0 79 32.5t61 106.5l-186 466h120l118 -342l106 342h121zM204.5 572.5q-17.5 17.5 -17.5 43.5t17.5 43.5t44.5 17.5t44.5 -17.5t17.5 -43.5t-17.5 -43.5t-44.5 -17.5t-44.5 17.5z
" />
    <glyph glyph-name="uni1E92" unicode="&#x1e92;" horiz-adv-x="584" 
d="M29 64l355 534h-326v102h484v-65l-352 -533h365v-102h-526v64zM247.5 -177q-17.5 17 -17.5 44q0 26 17.5 43.5t44.5 17.5t44.5 -17.5t17.5 -43.5q0 -27 -17.5 -44t-44.5 -17t-44.5 17z" />
    <glyph glyph-name="uni1E93" unicode="&#x1e93;" horiz-adv-x="468" 
d="M23 62l275 352h-261v86h398v-58l-271 -356h281v-86h-422v62zM189.5 -177q-17.5 17 -17.5 44q0 26 17.5 43.5t44.5 17.5t44.5 -17.5t17.5 -43.5q0 -27 -17.5 -44t-44.5 -17t-44.5 17z" />
    <glyph glyph-name="uni1E97" unicode="&#x1e97;" horiz-adv-x="406" 
d="M143.5 32.5q-41.5 42.5 -41.5 117.5v265h-90v85h90v130l110 33h4v-163h144v-85h-144v-250q0 -45 19.5 -66.5t60.5 -21.5q44 0 72 12l6 -80q-41 -19 -116 -19q-73 0 -114.5 42.5zM11 735.5q-18 17.5 -18 43.5t18 43.5t44 17.5t44 -17.5t18 -43.5t-18 -43.5t-44 -17.5
t-44 17.5zM219 735.5q-18 17.5 -18 43.5t18 43.5t44 17.5t44 -17.5t18 -43.5t-18 -43.5t-44 -17.5t-44 17.5z" />
    <glyph glyph-name="uni1E9E" unicode="&#x1e9e;" horiz-adv-x="634" 
d="M292.5 14q-42.5 24 -62.5 70l69 49q31 -52 94 -52q42 0 66.5 29.5t24.5 79.5q0 39 -18.5 65t-60.5 44.5t-118 34.5v56l104 208h-193v-598h-126v700h454v-74l-121 -227q197 -46 197 -208q0 -59 -26 -105t-72.5 -71t-107.5 -25t-103.5 24z" />
    <glyph glyph-name="uni1EA0" unicode="&#x1ea0;" horiz-adv-x="626" 
d="M439 128h-251l-39 -128h-133l241 700h113l241 -700h-133zM408 229l-94 306l-95 -306h189zM268.5 -177q-17.5 17 -17.5 44q0 26 17.5 43.5t44.5 17.5t44.5 -17.5t17.5 -43.5q0 -27 -17.5 -44t-44.5 -17t-44.5 17z" />
    <glyph glyph-name="uni1EA1" unicode="&#x1ea1;" horiz-adv-x="524" 
d="M115.5 10.5q-38.5 20.5 -60 56.5t-21.5 81q0 76 59.5 117t168.5 41h87v23q0 45 -26 69t-73 24q-45 0 -84.5 -16.5t-65.5 -47.5l-52 67q38 41 92 63t114 22q98 0 153 -46.5t55 -130.5v-230q0 -21 4 -50.5t9 -52.5h-101q-9 21 -13 63h-2q-58 -73 -156 -73q-49 0 -87.5 20.5
zM314.5 103.5q34.5 27.5 34.5 67.5v58h-90q-55 0 -84.5 -21t-29.5 -60q0 -34 22 -53t62 -19q51 0 85.5 27.5zM215.5 -177q-17.5 17 -17.5 44q0 26 17.5 43.5t44.5 17.5t44.5 -17.5t17.5 -43.5q0 -27 -17.5 -44t-44.5 -17t-44.5 17z" />
    <glyph glyph-name="uni1EA2" unicode="&#x1ea2;" horiz-adv-x="626" 
d="M439 128h-251l-39 -128h-133l241 700h113l241 -700h-133zM408 229l-94 306l-95 -306h189zM281 799q11 17 31 35q16 15 23.5 26t7.5 26q0 28 -36 28q-39 0 -64 -48l-48 44q18 32 49.5 50.5t71.5 18.5q51 0 80 -23t29 -65q0 -24 -10 -40.5t-30 -37.5q-17 -19 -24.5 -30.5
t-7.5 -27.5h-83q0 27 11 44z" />
    <glyph glyph-name="uni1EA3" unicode="&#x1ea3;" horiz-adv-x="524" 
d="M115.5 10.5q-38.5 20.5 -60 56.5t-21.5 81q0 76 59.5 117t168.5 41h87v23q0 45 -26 69t-73 24q-45 0 -84.5 -16.5t-65.5 -47.5l-52 67q38 41 92 63t114 22q98 0 153 -46.5t55 -130.5v-230q0 -21 4 -50.5t9 -52.5h-101q-9 21 -13 63h-2q-58 -73 -156 -73q-49 0 -87.5 20.5
zM314.5 103.5q34.5 27.5 34.5 67.5v58h-90q-55 0 -84.5 -21t-29.5 -60q0 -34 22 -53t62 -19q51 0 85.5 27.5zM227 599q11 17 31 35q16 15 23.5 26t7.5 26q0 28 -36 28q-39 0 -64 -48l-48 44q18 32 49.5 50.5t71.5 18.5q51 0 80 -23t29 -65q0 -24 -10 -40.5t-30 -37.5
q-17 -19 -24.5 -30.5t-7.5 -27.5h-83q0 27 11 44z" />
    <glyph glyph-name="uni1EA4" unicode="&#x1ea4;" horiz-adv-x="626" 
d="M439 128h-251l-39 -128h-133l241 700h113l241 -700h-133zM408 229l-94 306l-95 -306h189zM459 993h84l-63 -106h-68zM279 911h68l127 -156h-99l-62 81l-62 -81h-99z" />
    <glyph glyph-name="uni1EA5" unicode="&#x1ea5;" horiz-adv-x="524" 
d="M115.5 10.5q-38.5 20.5 -60 56.5t-21.5 81q0 76 59.5 117t168.5 41h87v23q0 45 -26 69t-73 24q-45 0 -84.5 -16.5t-65.5 -47.5l-52 67q38 41 92 63t114 22q98 0 153 -46.5t55 -130.5v-230q0 -21 4 -50.5t9 -52.5h-101q-9 21 -13 63h-2q-58 -73 -156 -73q-49 0 -87.5 20.5
zM314.5 103.5q34.5 27.5 34.5 67.5v58h-90q-55 0 -84.5 -21t-29.5 -60q0 -34 22 -53t62 -19q51 0 85.5 27.5zM405 793h84l-63 -106h-68zM225 711h68l127 -156h-99l-62 81l-62 -81h-99z" />
    <glyph glyph-name="uni1EA6" unicode="&#x1ea6;" horiz-adv-x="626" 
d="M439 128h-251l-39 -128h-133l241 700h113l241 -700h-133zM408 229l-94 306l-95 -306h189zM382 993h84l47 -106h-68zM279 911h68l127 -156h-99l-62 81l-62 -81h-99z" />
    <glyph glyph-name="uni1EA7" unicode="&#x1ea7;" horiz-adv-x="524" 
d="M115.5 10.5q-38.5 20.5 -60 56.5t-21.5 81q0 76 59.5 117t168.5 41h87v23q0 45 -26 69t-73 24q-45 0 -84.5 -16.5t-65.5 -47.5l-52 67q38 41 92 63t114 22q98 0 153 -46.5t55 -130.5v-230q0 -21 4 -50.5t9 -52.5h-101q-9 21 -13 63h-2q-58 -73 -156 -73q-49 0 -87.5 20.5
zM314.5 103.5q34.5 27.5 34.5 67.5v58h-90q-55 0 -84.5 -21t-29.5 -60q0 -34 22 -53t62 -19q51 0 85.5 27.5zM328 793h84l47 -106h-68zM225 711h68l127 -156h-99l-62 81l-62 -81h-99z" />
    <glyph glyph-name="uni1EA8" unicode="&#x1ea8;" horiz-adv-x="626" 
d="M439 128h-251l-39 -128h-133l241 700h113l241 -700h-133zM408 229l-94 306l-95 -306h189zM452.5 910.5q9.5 13.5 27.5 27.5q14 11 19.5 18t5.5 18q0 9 -7.5 14.5t-20.5 5.5q-15 0 -29.5 -7.5t-23.5 -21.5l-36 34q14 22 40 35.5t55 13.5q37 0 60 -19t23 -51q0 -20 -8 -32
t-24 -25q-15 -13 -21.5 -23t-7.5 -25h-62q0 24 9.5 37.5zM279 911h68l127 -156h-99l-62 81l-62 -81h-99z" />
    <glyph glyph-name="uni1EA9" unicode="&#x1ea9;" horiz-adv-x="524" 
d="M115.5 10.5q-38.5 20.5 -60 56.5t-21.5 81q0 76 59.5 117t168.5 41h87v23q0 45 -26 69t-73 24q-45 0 -84.5 -16.5t-65.5 -47.5l-52 67q38 41 92 63t114 22q98 0 153 -46.5t55 -130.5v-230q0 -21 4 -50.5t9 -52.5h-101q-9 21 -13 63h-2q-58 -73 -156 -73q-49 0 -87.5 20.5
zM314.5 103.5q34.5 27.5 34.5 67.5v58h-90q-55 0 -84.5 -21t-29.5 -60q0 -34 22 -53t62 -19q51 0 85.5 27.5zM398.5 710.5q9.5 13.5 27.5 27.5q14 11 19.5 18t5.5 18q0 9 -7.5 14.5t-20.5 5.5q-15 0 -29.5 -7.5t-23.5 -21.5l-36 34q14 22 40 35.5t55 13.5q37 0 60 -19
t23 -51q0 -20 -8 -32t-24 -25q-15 -13 -21.5 -23t-7.5 -25h-62q0 24 9.5 37.5zM225 711h68l127 -156h-99l-62 81l-62 -81h-99z" />
    <glyph glyph-name="uni1EAA" unicode="&#x1eaa;" horiz-adv-x="626" 
d="M439 128h-251l-39 -128h-133l241 700h113l241 -700h-133zM408 229l-94 306l-95 -306h189zM335 948.5q-14 6.5 -35 19.5q-14 10 -23.5 14.5t-18.5 4.5q-13 0 -23 -10.5t-14 -29.5h-53q7 45 29 70.5t60 25.5q16 0 29.5 -5.5t38.5 -18.5q18 -10 28.5 -14.5t20.5 -4.5
q28 0 34 42h53q-6 -48 -31 -74t-65 -26q-16 0 -30 6.5zM279 911h68l127 -156h-99l-62 81l-62 -81h-99z" />
    <glyph glyph-name="uni1EAB" unicode="&#x1eab;" horiz-adv-x="524" 
d="M115.5 10.5q-38.5 20.5 -60 56.5t-21.5 81q0 76 59.5 117t168.5 41h87v23q0 45 -26 69t-73 24q-45 0 -84.5 -16.5t-65.5 -47.5l-52 67q38 41 92 63t114 22q98 0 153 -46.5t55 -130.5v-230q0 -21 4 -50.5t9 -52.5h-101q-9 21 -13 63h-2q-58 -73 -156 -73q-49 0 -87.5 20.5
zM314.5 103.5q34.5 27.5 34.5 67.5v58h-90q-55 0 -84.5 -21t-29.5 -60q0 -34 22 -53t62 -19q51 0 85.5 27.5zM281 748.5q-14 6.5 -35 19.5q-14 10 -23.5 14.5t-18.5 4.5q-13 0 -23 -10.5t-14 -29.5h-53q7 45 29 70.5t60 25.5q16 0 29.5 -5.5t38.5 -18.5q18 -10 28.5 -14.5
t20.5 -4.5q28 0 34 42h53q-6 -48 -31 -74t-65 -26q-16 0 -30 6.5zM225 711h68l127 -156h-99l-62 81l-62 -81h-99z" />
    <glyph glyph-name="uni1EAC" unicode="&#x1eac;" horiz-adv-x="626" 
d="M439 128h-251l-39 -128h-133l241 700h113l241 -700h-133zM408 229l-94 306l-95 -306h189zM268.5 -177q-17.5 17 -17.5 44q0 26 17.5 43.5t44.5 17.5t44.5 -17.5t17.5 -43.5q0 -27 -17.5 -44t-44.5 -17t-44.5 17zM279 911h68l127 -156h-99l-62 81l-62 -81h-99z" />
    <glyph glyph-name="uni1EAD" unicode="&#x1ead;" horiz-adv-x="524" 
d="M115.5 10.5q-38.5 20.5 -60 56.5t-21.5 81q0 76 59.5 117t168.5 41h87v23q0 45 -26 69t-73 24q-45 0 -84.5 -16.5t-65.5 -47.5l-52 67q38 41 92 63t114 22q98 0 153 -46.5t55 -130.5v-230q0 -21 4 -50.5t9 -52.5h-101q-9 21 -13 63h-2q-58 -73 -156 -73q-49 0 -87.5 20.5
zM314.5 103.5q34.5 27.5 34.5 67.5v58h-90q-55 0 -84.5 -21t-29.5 -60q0 -34 22 -53t62 -19q51 0 85.5 27.5zM215.5 -177q-17.5 17 -17.5 44q0 26 17.5 43.5t44.5 17.5t44.5 -17.5t17.5 -43.5q0 -27 -17.5 -44t-44.5 -17t-44.5 17zM225 711h68l127 -156h-99l-62 81l-62 -81
h-99z" />
    <glyph glyph-name="uni1EAE" unicode="&#x1eae;" horiz-adv-x="626" 
d="M439 128h-251l-39 -128h-133l241 700h113l241 -700h-133zM408 229l-94 306l-95 -306h189zM323 1033h85l-64 -109h-70zM198.5 792q-41.5 37 -42.5 109h75q2 -35 22.5 -54.5t59.5 -19.5q37 0 58.5 19t22.5 55h75q-1 -70 -41 -108t-115 -38q-73 0 -114.5 37z" />
    <glyph glyph-name="uni1EAF" unicode="&#x1eaf;" horiz-adv-x="524" 
d="M115.5 10.5q-38.5 20.5 -60 56.5t-21.5 81q0 76 59.5 117t168.5 41h87v23q0 45 -26 69t-73 24q-45 0 -84.5 -16.5t-65.5 -47.5l-52 67q38 41 92 63t114 22q98 0 153 -46.5t55 -130.5v-230q0 -21 4 -50.5t9 -52.5h-101q-9 21 -13 63h-2q-58 -73 -156 -73q-49 0 -87.5 20.5
zM314.5 103.5q34.5 27.5 34.5 67.5v58h-90q-55 0 -84.5 -21t-29.5 -60q0 -34 22 -53t62 -19q51 0 85.5 27.5zM269 833h85l-64 -109h-70zM144.5 592q-41.5 37 -42.5 109h75q2 -35 22.5 -54.5t59.5 -19.5q37 0 58.5 19t22.5 55h75q-1 -70 -41 -108t-115 -38q-73 0 -114.5 37z
" />
    <glyph glyph-name="uni1EB0" unicode="&#x1eb0;" horiz-adv-x="626" 
d="M439 128h-251l-39 -128h-133l241 700h113l241 -700h-133zM408 229l-94 306l-95 -306h189zM211 1033h85l49 -109h-69zM198.5 792q-41.5 37 -42.5 109h75q2 -35 22.5 -54.5t59.5 -19.5q37 0 58.5 19t22.5 55h75q-1 -70 -41 -108t-115 -38q-73 0 -114.5 37z" />
    <glyph glyph-name="uni1EB1" unicode="&#x1eb1;" horiz-adv-x="524" 
d="M115.5 10.5q-38.5 20.5 -60 56.5t-21.5 81q0 76 59.5 117t168.5 41h87v23q0 45 -26 69t-73 24q-45 0 -84.5 -16.5t-65.5 -47.5l-52 67q38 41 92 63t114 22q98 0 153 -46.5t55 -130.5v-230q0 -21 4 -50.5t9 -52.5h-101q-9 21 -13 63h-2q-58 -73 -156 -73q-49 0 -87.5 20.5
zM314.5 103.5q34.5 27.5 34.5 67.5v58h-90q-55 0 -84.5 -21t-29.5 -60q0 -34 22 -53t62 -19q51 0 85.5 27.5zM157 833h85l49 -109h-69zM144.5 592q-41.5 37 -42.5 109h75q2 -35 22.5 -54.5t59.5 -19.5q37 0 58.5 19t22.5 55h75q-1 -70 -41 -108t-115 -38q-73 0 -114.5 37z
" />
    <glyph glyph-name="uni1EB2" unicode="&#x1eb2;" horiz-adv-x="626" 
d="M439 128h-251l-39 -128h-133l241 700h113l241 -700h-133zM408 229l-94 306l-95 -306h189zM292 958q10 14 27 27q13 10 19 17.5t6 18.5q0 9 -8 15t-21 6q-15 0 -29.5 -8t-23.5 -22l-35 33q14 23 39.5 36.5t54.5 13.5q36 0 59 -19.5t23 -50.5q0 -20 -8 -32t-23 -25
t-21.5 -23t-7.5 -26h-61q0 25 10 39zM198.5 792q-41.5 37 -42.5 109h75q2 -35 22.5 -54.5t59.5 -19.5q37 0 58.5 19t22.5 55h75q-1 -70 -41 -108t-115 -38q-73 0 -114.5 37z" />
    <glyph glyph-name="uni1EB3" unicode="&#x1eb3;" horiz-adv-x="524" 
d="M115.5 10.5q-38.5 20.5 -60 56.5t-21.5 81q0 76 59.5 117t168.5 41h87v23q0 45 -26 69t-73 24q-45 0 -84.5 -16.5t-65.5 -47.5l-52 67q38 41 92 63t114 22q98 0 153 -46.5t55 -130.5v-230q0 -21 4 -50.5t9 -52.5h-101q-9 21 -13 63h-2q-58 -73 -156 -73q-49 0 -87.5 20.5
zM314.5 103.5q34.5 27.5 34.5 67.5v58h-90q-55 0 -84.5 -21t-29.5 -60q0 -34 22 -53t62 -19q51 0 85.5 27.5zM238 758q10 14 27 27q13 10 19 17.5t6 18.5q0 9 -8 15t-21 6q-15 0 -29.5 -8t-23.5 -22l-35 33q14 23 39.5 36.5t54.5 13.5q36 0 59 -19.5t23 -50.5q0 -20 -8 -32
t-23 -25t-21.5 -23t-7.5 -26h-61q0 25 10 39zM144.5 592q-41.5 37 -42.5 109h75q2 -35 22.5 -54.5t59.5 -19.5q37 0 58.5 19t22.5 55h75q-1 -70 -41 -108t-115 -38q-73 0 -114.5 37z" />
    <glyph glyph-name="uni1EB4" unicode="&#x1eb4;" horiz-adv-x="626" 
d="M439 128h-251l-39 -128h-133l241 700h113l241 -700h-133zM408 229l-94 306l-95 -306h189zM333.5 945.5q-14.5 6.5 -33.5 18.5q-14 10 -23.5 14.5t-18.5 4.5q-13 0 -23 -10t-14 -29h-53q7 45 29.5 70.5t59.5 25.5q17 0 31 -5.5t38 -18.5q16 -9 27 -14t21 -5q28 0 34 42h53
q-6 -48 -31 -74t-65 -26q-17 0 -31.5 6.5zM198.5 792q-41.5 37 -42.5 109h75q2 -35 22.5 -54.5t59.5 -19.5q37 0 58.5 19t22.5 55h75q-1 -70 -41 -108t-115 -38q-73 0 -114.5 37z" />
    <glyph glyph-name="uni1EB5" unicode="&#x1eb5;" horiz-adv-x="524" 
d="M115.5 10.5q-38.5 20.5 -60 56.5t-21.5 81q0 76 59.5 117t168.5 41h87v23q0 45 -26 69t-73 24q-45 0 -84.5 -16.5t-65.5 -47.5l-52 67q38 41 92 63t114 22q98 0 153 -46.5t55 -130.5v-230q0 -21 4 -50.5t9 -52.5h-101q-9 21 -13 63h-2q-58 -73 -156 -73q-49 0 -87.5 20.5
zM314.5 103.5q34.5 27.5 34.5 67.5v58h-90q-55 0 -84.5 -21t-29.5 -60q0 -34 22 -53t62 -19q51 0 85.5 27.5zM279.5 745.5q-14.5 6.5 -33.5 18.5q-14 10 -23.5 14.5t-18.5 4.5q-13 0 -23 -10t-14 -29h-53q7 45 29.5 70.5t59.5 25.5q17 0 31 -5.5t38 -18.5q16 -9 27 -14
t21 -5q28 0 34 42h53q-6 -48 -31 -74t-65 -26q-17 0 -31.5 6.5zM144.5 592q-41.5 37 -42.5 109h75q2 -35 22.5 -54.5t59.5 -19.5q37 0 58.5 19t22.5 55h75q-1 -70 -41 -108t-115 -38q-73 0 -114.5 37z" />
    <glyph glyph-name="uni1EB6" unicode="&#x1eb6;" horiz-adv-x="626" 
d="M439 128h-251l-39 -128h-133l241 700h113l241 -700h-133zM408 229l-94 306l-95 -306h189zM268.5 -177q-17.5 17 -17.5 44q0 26 17.5 43.5t44.5 17.5t44.5 -17.5t17.5 -43.5q0 -27 -17.5 -44t-44.5 -17t-44.5 17zM198.5 792q-41.5 37 -42.5 109h75q2 -35 22.5 -54.5
t59.5 -19.5q37 0 59 19t23 55h75q-1 -70 -41 -108t-116 -38q-73 0 -114.5 37z" />
    <glyph glyph-name="uni1EB7" unicode="&#x1eb7;" horiz-adv-x="524" 
d="M115.5 10.5q-38.5 20.5 -60 56.5t-21.5 81q0 76 59.5 117t168.5 41h87v23q0 45 -26 69t-73 24q-45 0 -84.5 -16.5t-65.5 -47.5l-52 67q38 41 92 63t114 22q98 0 153 -46.5t55 -130.5v-230q0 -21 4 -50.5t9 -52.5h-101q-9 21 -13 63h-2q-58 -73 -156 -73q-49 0 -87.5 20.5
zM314.5 103.5q34.5 27.5 34.5 67.5v58h-90q-55 0 -84.5 -21t-29.5 -60q0 -34 22 -53t62 -19q51 0 85.5 27.5zM215.5 -177q-17.5 17 -17.5 44q0 26 17.5 43.5t44.5 17.5t44.5 -17.5t17.5 -43.5q0 -27 -17.5 -44t-44.5 -17t-44.5 17zM144.5 592q-41.5 37 -42.5 109h75
q2 -35 22.5 -54.5t59.5 -19.5q37 0 59 19t23 55h75q-1 -70 -41 -108t-116 -38q-73 0 -114.5 37z" />
    <glyph glyph-name="uni1EB8" unicode="&#x1eb8;" horiz-adv-x="565" 
d="M73 700h449v-102h-323v-179h289v-102h-289v-215h323v-102h-449v700zM256.5 -177q-17.5 17 -17.5 44q0 26 17.5 43.5t44.5 17.5t44.5 -17.5t17.5 -43.5q0 -27 -17.5 -44t-44.5 -17t-44.5 17z" />
    <glyph glyph-name="uni1EB9" unicode="&#x1eb9;" horiz-adv-x="534" 
d="M501 208h-352q17 -122 133 -122q44 0 78 16t63 50l62 -59q-29 -47 -85.5 -75t-123.5 -28q-115 0 -179 68.5t-64 190.5t64.5 191.5t176.5 69.5q107 0 167 -69t60 -191v-42zM392 293q0 59 -32 92t-89 33q-52 0 -83.5 -34.5t-39.5 -96.5h244v6zM230.5 -177
q-17.5 17 -17.5 44q0 26 17.5 43.5t44.5 17.5t44.5 -17.5t17.5 -43.5q0 -27 -17.5 -44t-44.5 -17t-44.5 17z" />
    <glyph glyph-name="uni1EBA" unicode="&#x1eba;" horiz-adv-x="565" 
d="M73 700h449v-102h-323v-179h289v-102h-289v-215h323v-102h-449v700zM269 799q11 17 31 35q16 15 23.5 26t7.5 26q0 28 -36 28q-39 0 -64 -48l-48 44q18 32 49.5 50.5t71.5 18.5q51 0 80 -23t29 -65q0 -24 -10 -40.5t-30 -37.5q-17 -19 -24.5 -30.5t-7.5 -27.5h-83
q0 27 11 44z" />
    <glyph glyph-name="uni1EBB" unicode="&#x1ebb;" horiz-adv-x="534" 
d="M501 208h-352q17 -122 133 -122q44 0 78 16t63 50l62 -59q-29 -47 -85.5 -75t-123.5 -28q-115 0 -179 68.5t-64 190.5t64.5 191.5t176.5 69.5q107 0 167 -69t60 -191v-42zM392 293q0 59 -32 92t-89 33q-52 0 -83.5 -34.5t-39.5 -96.5h244v6zM239 599q11 17 31 35
q16 15 23.5 26t7.5 26q0 28 -36 28q-39 0 -64 -48l-48 44q18 32 49.5 50.5t71.5 18.5q51 0 80 -23t29 -65q0 -24 -10 -40.5t-30 -37.5q-17 -19 -24.5 -30.5t-7.5 -27.5h-83q0 27 11 44z" />
    <glyph glyph-name="uni1EBC" unicode="&#x1ebc;" horiz-adv-x="565" 
d="M73 700h449v-102h-323v-179h289v-102h-289v-215h323v-102h-449v700zM166.5 841q27.5 31 69.5 31q19 0 36 -7t40 -21q12 -7 24 -13t21 -6q14 0 20.5 12.5t8.5 38.5h70q0 -58 -28.5 -89.5t-71.5 -31.5q-21 0 -40.5 8.5t-41.5 22.5q-27 16 -36 16q-12 0 -20 -13t-9 -34h-70
q0 55 27.5 86z" />
    <glyph glyph-name="uni1EBD" unicode="&#x1ebd;" horiz-adv-x="534" 
d="M501 208h-352q17 -122 133 -122q44 0 78 16t63 50l62 -59q-29 -47 -85.5 -75t-123.5 -28q-115 0 -179 68.5t-64 190.5t64.5 191.5t176.5 69.5q107 0 167 -69t60 -191v-42zM392 293q0 59 -32 92t-89 33q-52 0 -83.5 -34.5t-39.5 -96.5h244v6zM136.5 641q27.5 31 69.5 31
q19 0 36 -7t40 -21q12 -7 24 -13t21 -6q14 0 20.5 12.5t8.5 38.5h70q0 -58 -28.5 -89.5t-71.5 -31.5q-21 0 -40.5 8.5t-41.5 22.5q-27 16 -36 16q-12 0 -20 -13t-9 -34h-70q0 55 27.5 86z" />
    <glyph glyph-name="uni1EBE" unicode="&#x1ebe;" horiz-adv-x="565" 
d="M73 700h449v-102h-323v-179h289v-102h-289v-215h323v-102h-449v700zM447 993h84l-63 -106h-68zM267 911h68l127 -156h-99l-62 81l-62 -81h-99z" />
    <glyph glyph-name="uni1EBF" unicode="&#x1ebf;" horiz-adv-x="534" 
d="M501 208h-352q17 -122 133 -122q44 0 78 16t63 50l62 -59q-29 -47 -85.5 -75t-123.5 -28q-115 0 -179 68.5t-64 190.5t64.5 191.5t176.5 69.5q107 0 167 -69t60 -191v-42zM392 293q0 59 -32 92t-89 33q-52 0 -83.5 -34.5t-39.5 -96.5h244v6zM417 793h84l-63 -106h-68z
M237 711h68l127 -156h-99l-62 81l-62 -81h-99z" />
    <glyph glyph-name="uni1EC0" unicode="&#x1ec0;" horiz-adv-x="565" 
d="M73 700h449v-102h-323v-179h289v-102h-289v-215h323v-102h-449v700zM370 993h84l47 -106h-68zM267 911h68l127 -156h-99l-62 81l-62 -81h-99z" />
    <glyph glyph-name="uni1EC1" unicode="&#x1ec1;" horiz-adv-x="534" 
d="M501 208h-352q17 -122 133 -122q44 0 78 16t63 50l62 -59q-29 -47 -85.5 -75t-123.5 -28q-115 0 -179 68.5t-64 190.5t64.5 191.5t176.5 69.5q107 0 167 -69t60 -191v-42zM392 293q0 59 -32 92t-89 33q-52 0 -83.5 -34.5t-39.5 -96.5h244v6zM340 793h84l47 -106h-68z
M237 711h68l127 -156h-99l-62 81l-62 -81h-99z" />
    <glyph glyph-name="uni1EC2" unicode="&#x1ec2;" horiz-adv-x="565" 
d="M73 700h449v-102h-323v-179h289v-102h-289v-215h323v-102h-449v700zM440.5 910.5q9.5 13.5 27.5 27.5q14 11 19.5 18t5.5 18q0 9 -7.5 14.5t-20.5 5.5q-15 0 -29.5 -7.5t-23.5 -21.5l-36 34q14 22 40 35.5t55 13.5q37 0 60 -19t23 -51q0 -20 -8 -32t-24 -25
q-15 -13 -21.5 -23t-7.5 -25h-62q0 24 9.5 37.5zM267 911h68l127 -156h-99l-62 81l-62 -81h-99z" />
    <glyph glyph-name="uni1EC3" unicode="&#x1ec3;" horiz-adv-x="534" 
d="M501 208h-352q17 -122 133 -122q44 0 78 16t63 50l62 -59q-29 -47 -85.5 -75t-123.5 -28q-115 0 -179 68.5t-64 190.5t64.5 191.5t176.5 69.5q107 0 167 -69t60 -191v-42zM392 293q0 59 -32 92t-89 33q-52 0 -83.5 -34.5t-39.5 -96.5h244v6zM410.5 710.5
q9.5 13.5 27.5 27.5q14 11 19.5 18t5.5 18q0 9 -7.5 14.5t-20.5 5.5q-15 0 -29.5 -7.5t-23.5 -21.5l-36 34q14 22 40 35.5t55 13.5q37 0 60 -19t23 -51q0 -20 -8 -32t-24 -25q-15 -13 -21.5 -23t-7.5 -25h-62q0 24 9.5 37.5zM237 711h68l127 -156h-99l-62 81l-62 -81h-99z
" />
    <glyph glyph-name="uni1EC4" unicode="&#x1ec4;" horiz-adv-x="565" 
d="M73 700h449v-102h-323v-179h289v-102h-289v-215h323v-102h-449v700zM323 948.5q-14 6.5 -35 19.5q-14 10 -23.5 14.5t-18.5 4.5q-13 0 -23 -10.5t-14 -29.5h-53q7 45 29 70.5t60 25.5q16 0 29.5 -5.5t38.5 -18.5q18 -10 28.5 -14.5t20.5 -4.5q28 0 34 42h53
q-6 -48 -31 -74t-65 -26q-16 0 -30 6.5zM267 911h68l127 -156h-99l-62 81l-62 -81h-99z" />
    <glyph glyph-name="uni1EC5" unicode="&#x1ec5;" horiz-adv-x="534" 
d="M501 208h-352q17 -122 133 -122q44 0 78 16t63 50l62 -59q-29 -47 -85.5 -75t-123.5 -28q-115 0 -179 68.5t-64 190.5t64.5 191.5t176.5 69.5q107 0 167 -69t60 -191v-42zM392 293q0 59 -32 92t-89 33q-52 0 -83.5 -34.5t-39.5 -96.5h244v6zM293 748.5q-14 6.5 -35 19.5
q-14 10 -23.5 14.5t-18.5 4.5q-13 0 -23 -10.5t-14 -29.5h-53q7 45 29 70.5t60 25.5q16 0 29.5 -5.5t38.5 -18.5q18 -10 28.5 -14.5t20.5 -4.5q28 0 34 42h53q-6 -48 -31 -74t-65 -26q-16 0 -30 6.5zM237 711h68l127 -156h-99l-62 81l-62 -81h-99z" />
    <glyph glyph-name="uni1EC6" unicode="&#x1ec6;" horiz-adv-x="565" 
d="M73 700h449v-102h-323v-179h289v-102h-289v-215h323v-102h-449v700zM256.5 -177q-17.5 17 -17.5 44q0 26 17.5 43.5t44.5 17.5t44.5 -17.5t17.5 -43.5q0 -27 -17.5 -44t-44.5 -17t-44.5 17zM267 911h68l127 -156h-99l-62 81l-62 -81h-99z" />
    <glyph glyph-name="uni1EC7" unicode="&#x1ec7;" horiz-adv-x="534" 
d="M501 208h-352q17 -122 133 -122q44 0 78 16t63 50l62 -59q-29 -47 -85.5 -75t-123.5 -28q-115 0 -179 68.5t-64 190.5t64.5 191.5t176.5 69.5q107 0 167 -69t60 -191v-42zM392 293q0 59 -32 92t-89 33q-52 0 -83.5 -34.5t-39.5 -96.5h244v6zM230.5 -177
q-17.5 17 -17.5 44q0 26 17.5 43.5t44.5 17.5t44.5 -17.5t17.5 -43.5q0 -27 -17.5 -44t-44.5 -17t-44.5 17zM237 711h68l127 -156h-99l-62 81l-62 -81h-99z" />
    <glyph glyph-name="uni1EC8" unicode="&#x1ec8;" horiz-adv-x="313" 
d="M93 700h127v-700h-127v700zM125 799q11 17 31 35q16 15 23.5 26t7.5 26q0 28 -36 28q-39 0 -64 -48l-48 44q18 32 49.5 50.5t71.5 18.5q51 0 80 -23t29 -65q0 -24 -10 -40.5t-30 -37.5q-17 -19 -24.5 -30.5t-7.5 -27.5h-83q0 27 11 44z" />
    <glyph glyph-name="uni1EC9" unicode="&#x1ec9;" horiz-adv-x="271" 
d="M79 500h113v-500h-113v500zM103 599q11 17 31 35q16 15 23.5 26t7.5 26q0 28 -36 28q-39 0 -64 -48l-48 44q18 32 49.5 50.5t71.5 18.5q51 0 80 -23t29 -65q0 -24 -10 -40.5t-30 -37.5q-17 -19 -24.5 -30.5t-7.5 -27.5h-83q0 27 11 44z" />
    <glyph glyph-name="uni1ECA" unicode="&#x1eca;" horiz-adv-x="313" 
d="M93 700h127v-700h-127v700zM112.5 -177q-17.5 17 -17.5 44q0 26 17.5 43.5t44.5 17.5t44.5 -17.5t17.5 -43.5q0 -27 -17.5 -44t-44.5 -17t-44.5 17z" />
    <glyph glyph-name="uni1ECB" unicode="&#x1ecb;" horiz-adv-x="264" 
d="M77.5 586.5q-20.5 18.5 -20.5 49.5q0 32 20.5 50.5t54.5 18.5t54.5 -18.5t20.5 -50.5q0 -31 -20.5 -49.5t-54.5 -18.5t-54.5 18.5zM75 500h114v-500h-114v500zM87.5 -177q-17.5 17 -17.5 44q0 26 17.5 43.5t44.5 17.5t44.5 -17.5t17.5 -43.5q0 -27 -17.5 -44t-44.5 -17
t-44.5 17z" />
    <glyph glyph-name="uni1ECC" unicode="&#x1ecc;" horiz-adv-x="681" 
d="M176 33.5q-70 43.5 -107 124.5t-37 192t37 192t107 124.5t165 43.5t164.5 -43.5t106.5 -124.5t37 -192t-37 -192t-106.5 -124.5t-164.5 -43.5t-165 43.5zM473.5 160q48.5 69 48.5 190t-48.5 190.5t-132.5 69.5q-85 0 -133.5 -69.5t-48.5 -190.5t48.5 -190t133.5 -69
q84 0 132.5 69zM296.5 -177q-17.5 17 -17.5 44q0 26 17.5 43.5t44.5 17.5t44.5 -17.5t17.5 -43.5q0 -27 -17.5 -44t-44.5 -17t-44.5 17z" />
    <glyph glyph-name="uni1ECD" unicode="&#x1ecd;" horiz-adv-x="572" 
d="M100.5 59.5q-67.5 69.5 -67.5 190.5t67.5 190.5t185.5 69.5t185.5 -69.5t67.5 -190.5t-67.5 -190.5t-185.5 -69.5t-185.5 69.5zM388 121.5q37 46.5 37 128.5t-37 128.5t-102 46.5t-102 -46.5t-37 -128.5t37 -128.5t102 -46.5t102 46.5zM241.5 -177q-17.5 17 -17.5 44
q0 26 17.5 43.5t44.5 17.5t44.5 -17.5t17.5 -43.5q0 -27 -17.5 -44t-44.5 -17t-44.5 17z" />
    <glyph glyph-name="uni1ECE" unicode="&#x1ece;" horiz-adv-x="681" 
d="M176 33.5q-70 43.5 -107 124.5t-37 192t37 192t107 124.5t165 43.5t164.5 -43.5t106.5 -124.5t37 -192t-37 -192t-106.5 -124.5t-164.5 -43.5t-165 43.5zM473.5 160q48.5 69 48.5 190t-48.5 190.5t-132.5 69.5q-85 0 -133.5 -69.5t-48.5 -190.5t48.5 -190t133.5 -69
q84 0 132.5 69zM309 799q11 17 31 35q16 15 23.5 26t7.5 26q0 28 -36 28q-39 0 -64 -48l-48 44q18 32 49.5 50.5t71.5 18.5q51 0 80 -23t29 -65q0 -24 -10 -40.5t-30 -37.5q-17 -19 -24.5 -30.5t-7.5 -27.5h-83q0 27 11 44z" />
    <glyph glyph-name="uni1ECF" unicode="&#x1ecf;" horiz-adv-x="572" 
d="M100.5 59.5q-67.5 69.5 -67.5 190.5t67.5 190.5t185.5 69.5t185.5 -69.5t67.5 -190.5t-67.5 -190.5t-185.5 -69.5t-185.5 69.5zM388 121.5q37 46.5 37 128.5t-37 128.5t-102 46.5t-102 -46.5t-37 -128.5t37 -128.5t102 -46.5t102 46.5zM254 599q11 17 31 35
q16 15 23.5 26t7.5 26q0 28 -36 28q-39 0 -64 -48l-48 44q18 32 49.5 50.5t71.5 18.5q51 0 80 -23t29 -65q0 -24 -10 -40.5t-30 -37.5q-17 -19 -24.5 -30.5t-7.5 -27.5h-83q0 27 11 44z" />
    <glyph glyph-name="uni1ED0" unicode="&#x1ed0;" horiz-adv-x="681" 
d="M176 33.5q-70 43.5 -107 124.5t-37 192t37 192t107 124.5t165 43.5t164.5 -43.5t106.5 -124.5t37 -192t-37 -192t-106.5 -124.5t-164.5 -43.5t-165 43.5zM473.5 160q48.5 69 48.5 190t-48.5 190.5t-132.5 69.5q-85 0 -133.5 -69.5t-48.5 -190.5t48.5 -190t133.5 -69
q84 0 132.5 69zM487 993h84l-63 -106h-68zM307 911h68l127 -156h-99l-62 81l-62 -81h-99z" />
    <glyph glyph-name="uni1ED1" unicode="&#x1ed1;" horiz-adv-x="572" 
d="M100.5 59.5q-67.5 69.5 -67.5 190.5t67.5 190.5t185.5 69.5t185.5 -69.5t67.5 -190.5t-67.5 -190.5t-185.5 -69.5t-185.5 69.5zM388 121.5q37 46.5 37 128.5t-37 128.5t-102 46.5t-102 -46.5t-37 -128.5t37 -128.5t102 -46.5t102 46.5zM432 793h84l-63 -106h-68zM252 711
h68l127 -156h-99l-62 81l-62 -81h-99z" />
    <glyph glyph-name="uni1ED2" unicode="&#x1ed2;" horiz-adv-x="681" 
d="M176 33.5q-70 43.5 -107 124.5t-37 192t37 192t107 124.5t165 43.5t164.5 -43.5t106.5 -124.5t37 -192t-37 -192t-106.5 -124.5t-164.5 -43.5t-165 43.5zM473.5 160q48.5 69 48.5 190t-48.5 190.5t-132.5 69.5q-85 0 -133.5 -69.5t-48.5 -190.5t48.5 -190t133.5 -69
q84 0 132.5 69zM410 993h84l47 -106h-68zM307 911h68l127 -156h-99l-62 81l-62 -81h-99z" />
    <glyph glyph-name="uni1ED3" unicode="&#x1ed3;" horiz-adv-x="572" 
d="M100.5 59.5q-67.5 69.5 -67.5 190.5t67.5 190.5t185.5 69.5t185.5 -69.5t67.5 -190.5t-67.5 -190.5t-185.5 -69.5t-185.5 69.5zM388 121.5q37 46.5 37 128.5t-37 128.5t-102 46.5t-102 -46.5t-37 -128.5t37 -128.5t102 -46.5t102 46.5zM355 793h84l47 -106h-68zM252 711
h68l127 -156h-99l-62 81l-62 -81h-99z" />
    <glyph glyph-name="uni1ED4" unicode="&#x1ed4;" horiz-adv-x="681" 
d="M176 33.5q-70 43.5 -107 124.5t-37 192t37 192t107 124.5t165 43.5t164.5 -43.5t106.5 -124.5t37 -192t-37 -192t-106.5 -124.5t-164.5 -43.5t-165 43.5zM473.5 160q48.5 69 48.5 190t-48.5 190.5t-132.5 69.5q-85 0 -133.5 -69.5t-48.5 -190.5t48.5 -190t133.5 -69
q84 0 132.5 69zM480.5 910.5q9.5 13.5 27.5 27.5q14 11 19.5 18t5.5 18q0 9 -7.5 14.5t-20.5 5.5q-15 0 -29.5 -7.5t-23.5 -21.5l-36 34q14 22 40 35.5t55 13.5q37 0 60 -19t23 -51q0 -20 -8 -32t-24 -25q-15 -13 -21.5 -23t-7.5 -25h-62q0 24 9.5 37.5zM307 911h68
l127 -156h-99l-62 81l-62 -81h-99z" />
    <glyph glyph-name="uni1ED5" unicode="&#x1ed5;" horiz-adv-x="572" 
d="M100.5 59.5q-67.5 69.5 -67.5 190.5t67.5 190.5t185.5 69.5t185.5 -69.5t67.5 -190.5t-67.5 -190.5t-185.5 -69.5t-185.5 69.5zM388 121.5q37 46.5 37 128.5t-37 128.5t-102 46.5t-102 -46.5t-37 -128.5t37 -128.5t102 -46.5t102 46.5zM425.5 710.5q9.5 13.5 27.5 27.5
q14 11 19.5 18t5.5 18q0 9 -7.5 14.5t-20.5 5.5q-15 0 -29.5 -7.5t-23.5 -21.5l-36 34q14 22 40 35.5t55 13.5q37 0 60 -19t23 -51q0 -20 -8 -32t-24 -25q-15 -13 -21.5 -23t-7.5 -25h-62q0 24 9.5 37.5zM252 711h68l127 -156h-99l-62 81l-62 -81h-99z" />
    <glyph glyph-name="uni1ED6" unicode="&#x1ed6;" horiz-adv-x="681" 
d="M176 33.5q-70 43.5 -107 124.5t-37 192t37 192t107 124.5t165 43.5t164.5 -43.5t106.5 -124.5t37 -192t-37 -192t-106.5 -124.5t-164.5 -43.5t-165 43.5zM473.5 160q48.5 69 48.5 190t-48.5 190.5t-132.5 69.5q-85 0 -133.5 -69.5t-48.5 -190.5t48.5 -190t133.5 -69
q84 0 132.5 69zM363 948.5q-14 6.5 -35 19.5q-14 10 -23.5 14.5t-18.5 4.5q-13 0 -23 -10.5t-14 -29.5h-53q7 45 29 70.5t60 25.5q16 0 29.5 -5.5t38.5 -18.5q18 -10 28.5 -14.5t20.5 -4.5q28 0 34 42h53q-6 -48 -31 -74t-65 -26q-16 0 -30 6.5zM307 911h68l127 -156h-99
l-62 81l-62 -81h-99z" />
    </font>
</defs>
</svg>
